G75*
G70*
%OFA0B0*%
%FSLAX24Y24*%
%IPPOS*%
%LPD*%
%AMOC8*
5,1,8,0,0,1.08239X$1,22.5*
%
%ADD10C,0.0000*%
%ADD11C,0.0060*%
%ADD12C,0.0050*%
%ADD13C,0.0080*%
%ADD14C,0.0160*%
%ADD15C,0.0110*%
%ADD16R,0.0079X0.0079*%
%ADD17C,0.0020*%
%ADD18C,0.0079*%
%ADD19C,0.0001*%
%ADD20C,0.0025*%
%ADD21C,0.0100*%
%ADD22R,0.0092X0.0095*%
D10*
X001657Y006396D02*
X001657Y026081D01*
X021343Y026081D01*
X021343Y006396D01*
X001657Y006396D01*
X003323Y009644D02*
X003325Y009670D01*
X003331Y009696D01*
X003341Y009721D01*
X003354Y009744D01*
X003370Y009764D01*
X003390Y009782D01*
X003412Y009797D01*
X003435Y009809D01*
X003461Y009817D01*
X003487Y009821D01*
X003513Y009821D01*
X003539Y009817D01*
X003565Y009809D01*
X003589Y009797D01*
X003610Y009782D01*
X003630Y009764D01*
X003646Y009744D01*
X003659Y009721D01*
X003669Y009696D01*
X003675Y009670D01*
X003677Y009644D01*
X003675Y009618D01*
X003669Y009592D01*
X003659Y009567D01*
X003646Y009544D01*
X003630Y009524D01*
X003610Y009506D01*
X003588Y009491D01*
X003565Y009479D01*
X003539Y009471D01*
X003513Y009467D01*
X003487Y009467D01*
X003461Y009471D01*
X003435Y009479D01*
X003411Y009491D01*
X003390Y009506D01*
X003370Y009524D01*
X003354Y009544D01*
X003341Y009567D01*
X003331Y009592D01*
X003325Y009618D01*
X003323Y009644D01*
X003323Y011022D02*
X003325Y011048D01*
X003331Y011074D01*
X003341Y011099D01*
X003354Y011122D01*
X003370Y011142D01*
X003390Y011160D01*
X003412Y011175D01*
X003435Y011187D01*
X003461Y011195D01*
X003487Y011199D01*
X003513Y011199D01*
X003539Y011195D01*
X003565Y011187D01*
X003589Y011175D01*
X003610Y011160D01*
X003630Y011142D01*
X003646Y011122D01*
X003659Y011099D01*
X003669Y011074D01*
X003675Y011048D01*
X003677Y011022D01*
X003675Y010996D01*
X003669Y010970D01*
X003659Y010945D01*
X003646Y010922D01*
X003630Y010902D01*
X003610Y010884D01*
X003588Y010869D01*
X003565Y010857D01*
X003539Y010849D01*
X003513Y010845D01*
X003487Y010845D01*
X003461Y010849D01*
X003435Y010857D01*
X003411Y010869D01*
X003390Y010884D01*
X003370Y010902D01*
X003354Y010922D01*
X003341Y010945D01*
X003331Y010970D01*
X003325Y010996D01*
X003323Y011022D01*
X009412Y008315D02*
X009457Y008414D01*
X009529Y008501D01*
X009621Y008562D01*
X009695Y008585D01*
X009770Y008592D01*
X009813Y008591D01*
X009880Y008569D01*
X009907Y008558D01*
X009823Y008557D01*
X009750Y008526D01*
X009682Y008485D01*
X009637Y008442D01*
X009593Y008385D01*
X009545Y008303D01*
X009509Y008219D01*
X009493Y008142D01*
X009486Y008065D01*
X009482Y008035D01*
X009477Y008033D01*
X009421Y008115D01*
X009400Y008223D01*
X009412Y008315D01*
X009548Y008244D02*
X009523Y008164D01*
X009512Y008108D01*
X009507Y008056D01*
X009505Y008014D01*
X009504Y008012D01*
X009532Y007989D01*
X009566Y007971D01*
X009618Y007956D01*
X009687Y007955D01*
X009743Y007962D01*
X009804Y007983D01*
X009863Y008015D01*
X009911Y008051D01*
X009955Y008105D01*
X010002Y008178D01*
X010029Y008255D01*
X010034Y008340D01*
X010020Y008419D01*
X009996Y008465D01*
X009954Y008512D01*
X009930Y008530D01*
X009870Y008528D01*
X009784Y008510D01*
X009720Y008474D01*
X009673Y008433D01*
X009627Y008380D01*
X009584Y008315D01*
X009548Y008244D01*
X009811Y008589D02*
X009811Y008591D01*
X009825Y008587D01*
X009861Y008574D01*
X009911Y008557D01*
X009921Y008549D01*
X009927Y008533D01*
X009943Y008521D01*
X009971Y008492D01*
X009991Y008471D01*
X010011Y008435D01*
X010014Y008435D01*
X010039Y008442D01*
X010066Y008465D01*
X010070Y008512D01*
X010046Y008562D01*
X010018Y008592D01*
X009986Y008617D01*
X009946Y008641D01*
X009913Y008649D01*
X009870Y008651D01*
X009836Y008642D01*
X009814Y008623D01*
X009811Y008589D01*
X010023Y007674D02*
X010022Y007674D01*
X010022Y007581D01*
X010115Y007628D01*
X010023Y007674D01*
X010022Y019392D02*
X010115Y019439D01*
X010023Y019485D01*
X010022Y019485D01*
X010022Y019392D01*
X009804Y019794D02*
X009743Y019773D01*
X009687Y019766D01*
X009618Y019768D01*
X009566Y019782D01*
X009532Y019800D01*
X009504Y019823D01*
X009505Y019825D01*
X009507Y019868D01*
X009512Y019919D01*
X009523Y019975D01*
X009548Y020055D01*
X009584Y020126D01*
X009627Y020191D01*
X009673Y020244D01*
X009720Y020285D01*
X009784Y020321D01*
X009870Y020339D01*
X009930Y020341D01*
X009954Y020323D01*
X009996Y020277D01*
X010020Y020230D01*
X010034Y020152D01*
X010029Y020066D01*
X010002Y019989D01*
X009955Y019916D01*
X009911Y019862D01*
X009863Y019826D01*
X009804Y019794D01*
X009509Y020030D02*
X009545Y020114D01*
X009593Y020196D01*
X009637Y020253D01*
X009682Y020296D01*
X009750Y020337D01*
X009823Y020368D01*
X009907Y020369D01*
X009880Y020380D01*
X009813Y020402D01*
X009770Y020403D01*
X009695Y020396D01*
X009621Y020373D01*
X009529Y020312D01*
X009457Y020225D01*
X009412Y020126D01*
X009400Y020034D01*
X009421Y019926D01*
X009477Y019844D01*
X009482Y019846D01*
X009486Y019876D01*
X009493Y019953D01*
X009509Y020030D01*
X009811Y020400D02*
X009811Y020402D01*
X009825Y020398D01*
X009861Y020385D01*
X009911Y020368D01*
X009921Y020360D01*
X009927Y020344D01*
X009943Y020332D01*
X009971Y020303D01*
X009991Y020282D01*
X010011Y020246D01*
X010014Y020246D01*
X010039Y020253D01*
X010066Y020277D01*
X010070Y020323D01*
X010046Y020373D01*
X010018Y020403D01*
X009986Y020428D01*
X009946Y020452D01*
X009913Y020460D01*
X009870Y020462D01*
X009836Y020453D01*
X009814Y020434D01*
X009811Y020400D01*
X003323Y021455D02*
X003325Y021481D01*
X003331Y021507D01*
X003341Y021532D01*
X003354Y021555D01*
X003370Y021575D01*
X003390Y021593D01*
X003412Y021608D01*
X003435Y021620D01*
X003461Y021628D01*
X003487Y021632D01*
X003513Y021632D01*
X003539Y021628D01*
X003565Y021620D01*
X003589Y021608D01*
X003610Y021593D01*
X003630Y021575D01*
X003646Y021555D01*
X003659Y021532D01*
X003669Y021507D01*
X003675Y021481D01*
X003677Y021455D01*
X003675Y021429D01*
X003669Y021403D01*
X003659Y021378D01*
X003646Y021355D01*
X003630Y021335D01*
X003610Y021317D01*
X003588Y021302D01*
X003565Y021290D01*
X003539Y021282D01*
X003513Y021278D01*
X003487Y021278D01*
X003461Y021282D01*
X003435Y021290D01*
X003411Y021302D01*
X003390Y021317D01*
X003370Y021335D01*
X003354Y021355D01*
X003341Y021378D01*
X003331Y021403D01*
X003325Y021429D01*
X003323Y021455D01*
X003323Y022833D02*
X003325Y022859D01*
X003331Y022885D01*
X003341Y022910D01*
X003354Y022933D01*
X003370Y022953D01*
X003390Y022971D01*
X003412Y022986D01*
X003435Y022998D01*
X003461Y023006D01*
X003487Y023010D01*
X003513Y023010D01*
X003539Y023006D01*
X003565Y022998D01*
X003589Y022986D01*
X003610Y022971D01*
X003630Y022953D01*
X003646Y022933D01*
X003659Y022910D01*
X003669Y022885D01*
X003675Y022859D01*
X003677Y022833D01*
X003675Y022807D01*
X003669Y022781D01*
X003659Y022756D01*
X003646Y022733D01*
X003630Y022713D01*
X003610Y022695D01*
X003588Y022680D01*
X003565Y022668D01*
X003539Y022660D01*
X003513Y022656D01*
X003487Y022656D01*
X003461Y022660D01*
X003435Y022668D01*
X003411Y022680D01*
X003390Y022695D01*
X003370Y022713D01*
X003354Y022733D01*
X003341Y022756D01*
X003331Y022781D01*
X003325Y022807D01*
X003323Y022833D01*
D11*
X005200Y020194D02*
X005200Y020144D01*
X007400Y020144D01*
X007157Y020225D02*
X006640Y020225D01*
X006640Y020642D01*
X006640Y021066D02*
X006640Y021463D01*
X007157Y021463D01*
X007160Y021011D02*
X007160Y020673D01*
X007500Y022244D02*
X006300Y022244D01*
X001657Y018207D02*
X021343Y018207D01*
X021343Y014270D02*
X001657Y014270D01*
X006300Y010433D02*
X007500Y010433D01*
X007157Y009652D02*
X006640Y009652D01*
X006640Y009255D01*
X006640Y008831D02*
X006640Y008414D01*
X007157Y008414D01*
X007400Y008333D02*
X005200Y008333D01*
X005200Y008383D01*
X007160Y008862D02*
X007160Y009200D01*
X015300Y010083D02*
X015550Y010083D01*
X015800Y010083D01*
X015800Y010233D02*
X015800Y010433D01*
X015300Y010433D01*
X015300Y010233D01*
X015800Y010233D01*
X015800Y010583D02*
X015550Y010583D01*
X015300Y010583D01*
X016381Y010390D02*
X016381Y009873D01*
X016778Y009873D01*
X016834Y010393D02*
X017172Y010393D01*
X017619Y010390D02*
X017619Y009873D01*
X017202Y009873D01*
X017202Y021684D02*
X017619Y021684D01*
X017619Y022201D01*
X017172Y022204D02*
X016834Y022204D01*
X016381Y022201D02*
X016381Y021684D01*
X016778Y021684D01*
X015800Y021894D02*
X015550Y021894D01*
X015300Y021894D01*
X015300Y022044D02*
X015300Y022244D01*
X015800Y022244D01*
X015800Y022044D01*
X015300Y022044D01*
X015300Y022394D02*
X015550Y022394D01*
X015800Y022394D01*
D12*
X016125Y022578D02*
X016125Y022695D01*
X016183Y022753D01*
X016241Y022888D02*
X016125Y023004D01*
X016475Y023004D01*
X016475Y023083D02*
X016125Y023083D01*
X016125Y023258D01*
X016183Y023316D01*
X016300Y023316D01*
X016358Y023258D01*
X016358Y023083D01*
X016358Y023199D02*
X016475Y023316D01*
X016475Y023121D02*
X016475Y022888D01*
X016417Y022753D02*
X016475Y022695D01*
X016475Y022578D01*
X016417Y022519D01*
X016183Y022519D01*
X016125Y022578D01*
X016180Y023325D02*
X016180Y020963D01*
X016180Y020964D02*
X016165Y020962D01*
X016150Y020958D01*
X016136Y020951D01*
X016124Y020941D01*
X016114Y020929D01*
X016107Y020915D01*
X016103Y020900D01*
X016101Y020885D01*
X016032Y020885D01*
X016225Y020620D02*
X016400Y020620D01*
X016459Y020561D01*
X016459Y020445D01*
X016400Y020386D01*
X016225Y020386D01*
X016225Y020269D02*
X016225Y020620D01*
X016342Y020386D02*
X016459Y020269D01*
X016593Y020328D02*
X016593Y020445D01*
X016652Y020503D01*
X016768Y020503D01*
X016827Y020445D01*
X016827Y020386D01*
X016593Y020386D01*
X016593Y020328D02*
X016652Y020269D01*
X016768Y020269D01*
X017025Y020120D02*
X017142Y020120D01*
X017083Y020120D02*
X017083Y019769D01*
X017025Y019769D02*
X017142Y019769D01*
X017271Y019828D02*
X017329Y019769D01*
X017446Y019769D01*
X017504Y019828D01*
X017504Y019886D01*
X017446Y019945D01*
X017329Y019945D01*
X017271Y020003D01*
X017271Y020061D01*
X017329Y020120D01*
X017446Y020120D01*
X017504Y020061D01*
X017639Y020120D02*
X017814Y020120D01*
X017872Y020061D01*
X017872Y019945D01*
X017814Y019886D01*
X017639Y019886D01*
X017639Y019769D02*
X017639Y020120D01*
X017882Y020269D02*
X017882Y020503D01*
X017999Y020620D01*
X018116Y020503D01*
X018116Y020269D01*
X018116Y020445D02*
X017882Y020445D01*
X018000Y020644D02*
X018000Y023644D01*
X021375Y023644D01*
X020975Y023186D02*
X020625Y023186D01*
X020800Y023011D01*
X020800Y023244D01*
X020681Y023755D02*
X020681Y024051D01*
X020681Y023755D02*
X018319Y023755D01*
X018319Y024051D01*
X018075Y024023D02*
X017725Y024023D01*
X017725Y023906D02*
X017725Y024140D01*
X017783Y023771D02*
X017725Y023713D01*
X017725Y023596D01*
X017783Y023538D01*
X017841Y023538D01*
X017900Y023596D01*
X017900Y023713D01*
X017958Y023771D01*
X018017Y023771D01*
X018075Y023713D01*
X018075Y023596D01*
X018017Y023538D01*
X018075Y023403D02*
X017958Y023286D01*
X017958Y023345D02*
X017958Y023169D01*
X018075Y023169D02*
X017725Y023169D01*
X017725Y023345D01*
X017783Y023403D01*
X017900Y023403D01*
X017958Y023345D01*
X018909Y024149D02*
X020091Y024149D01*
X020091Y024740D01*
X018909Y024740D01*
X018909Y024149D01*
X018319Y024838D02*
X018319Y025133D01*
X020681Y025133D01*
X020681Y024838D01*
X020683Y022876D02*
X020625Y022818D01*
X020625Y022701D01*
X020683Y022643D01*
X020683Y022508D02*
X020741Y022508D01*
X020800Y022449D01*
X020858Y022508D01*
X020917Y022508D01*
X020975Y022449D01*
X020975Y022333D01*
X020917Y022274D01*
X020917Y022140D02*
X020975Y022081D01*
X020975Y021964D01*
X020917Y021906D01*
X020800Y022023D02*
X020800Y022081D01*
X020858Y022140D01*
X020917Y022140D01*
X020800Y022081D02*
X020741Y022140D01*
X020683Y022140D01*
X020625Y022081D01*
X020625Y021964D01*
X020683Y021906D01*
X020800Y021771D02*
X020800Y021538D01*
X020625Y021713D01*
X020975Y021713D01*
X020917Y021403D02*
X020683Y021403D01*
X020625Y021345D01*
X020625Y021169D01*
X020975Y021169D01*
X020975Y021345D01*
X020917Y021403D01*
X021375Y020644D02*
X018000Y020644D01*
X017875Y020728D02*
X017817Y020669D01*
X017875Y020728D02*
X017875Y020845D01*
X017817Y020903D01*
X017758Y020903D01*
X017700Y020845D01*
X017700Y020728D01*
X017641Y020669D01*
X017583Y020669D01*
X017525Y020728D01*
X017525Y020845D01*
X017583Y020903D01*
X017525Y021038D02*
X017875Y021038D01*
X017758Y021154D01*
X017875Y021271D01*
X017525Y021271D01*
X017525Y021406D02*
X017525Y021581D01*
X017583Y021640D01*
X017817Y021640D01*
X017875Y021581D01*
X017875Y021406D01*
X017525Y021406D01*
X016877Y021219D02*
X016643Y021219D01*
X016760Y021219D02*
X016760Y021570D01*
X016643Y021453D01*
X016509Y021511D02*
X016509Y021278D01*
X016450Y021219D01*
X016275Y021219D01*
X016275Y021570D01*
X016450Y021570D01*
X016509Y021511D01*
X016962Y020503D02*
X017078Y020269D01*
X017195Y020503D01*
X017330Y020328D02*
X017388Y020328D01*
X017388Y020269D01*
X017330Y020269D01*
X017330Y020328D01*
X017120Y019620D02*
X017003Y019503D01*
X017003Y019269D01*
X016868Y019328D02*
X016810Y019269D01*
X016693Y019269D01*
X016635Y019328D01*
X016693Y019445D02*
X016810Y019445D01*
X016868Y019386D01*
X016868Y019328D01*
X017003Y019445D02*
X017237Y019445D01*
X017237Y019503D02*
X017237Y019269D01*
X017237Y019503D02*
X017120Y019620D01*
X016868Y019561D02*
X016810Y019620D01*
X016693Y019620D01*
X016635Y019561D01*
X016635Y019503D01*
X016693Y019445D01*
X016500Y019445D02*
X016267Y019445D01*
X016132Y019561D02*
X016132Y019620D01*
X016132Y019561D02*
X016015Y019445D01*
X016015Y019269D01*
X016015Y019445D02*
X015898Y019561D01*
X015898Y019620D01*
X015763Y019561D02*
X015763Y019503D01*
X015705Y019445D01*
X015530Y019445D01*
X015395Y019445D02*
X015162Y019445D01*
X015027Y019561D02*
X014968Y019620D01*
X014852Y019620D01*
X014793Y019561D01*
X014793Y019328D01*
X014852Y019269D01*
X014968Y019269D01*
X015027Y019328D01*
X014659Y019328D02*
X014600Y019269D01*
X014483Y019269D01*
X014425Y019328D01*
X014425Y019561D01*
X014483Y019620D01*
X014600Y019620D01*
X014659Y019561D01*
X015530Y019620D02*
X015530Y019269D01*
X015705Y019269D01*
X015763Y019328D01*
X015763Y019386D01*
X015705Y019445D01*
X015763Y019561D02*
X015705Y019620D01*
X015530Y019620D01*
X014918Y020469D02*
X014918Y020820D01*
X014743Y020645D01*
X014977Y020645D01*
X014999Y020885D02*
X015078Y020885D01*
X014999Y020885D02*
X014997Y020900D01*
X014993Y020915D01*
X014986Y020929D01*
X014976Y020941D01*
X014964Y020951D01*
X014950Y020958D01*
X014935Y020962D01*
X014920Y020964D01*
X014920Y020963D02*
X014920Y023325D01*
X014935Y023327D01*
X014950Y023331D01*
X014964Y023338D01*
X014976Y023348D01*
X014986Y023360D01*
X014993Y023374D01*
X014997Y023389D01*
X014999Y023404D01*
X015068Y023404D01*
X014927Y023469D02*
X014693Y023469D01*
X014810Y023469D02*
X014810Y023820D01*
X014693Y023703D01*
X014559Y023761D02*
X014559Y023820D01*
X014559Y023761D02*
X014442Y023645D01*
X014442Y023469D01*
X014442Y023645D02*
X014325Y023761D01*
X014325Y023820D01*
X013758Y023723D02*
X013758Y023373D01*
X013874Y023373D02*
X013641Y023373D01*
X013506Y023431D02*
X013506Y023723D01*
X013641Y023606D02*
X013758Y023723D01*
X013468Y023969D02*
X013527Y024028D01*
X013527Y024086D01*
X013468Y024145D01*
X013293Y024145D01*
X013293Y024028D01*
X013352Y023969D01*
X013468Y023969D01*
X013293Y024145D02*
X013410Y024261D01*
X013527Y024320D01*
X013293Y024619D02*
X013293Y024678D01*
X013527Y024911D01*
X013527Y024970D01*
X013293Y024970D01*
X013159Y024911D02*
X013100Y024970D01*
X012983Y024970D01*
X012925Y024911D01*
X012925Y024678D01*
X012983Y024619D01*
X013100Y024619D01*
X013159Y024678D01*
X013100Y024320D02*
X012983Y024320D01*
X012925Y024261D01*
X012925Y024028D01*
X012983Y023969D01*
X013100Y023969D01*
X013159Y024028D01*
X013159Y024261D02*
X013100Y024320D01*
X013273Y023723D02*
X013273Y023431D01*
X013331Y023373D01*
X013448Y023373D01*
X013506Y023431D01*
X015425Y024528D02*
X015483Y024469D01*
X015600Y024469D01*
X015659Y024528D01*
X015793Y024528D02*
X015852Y024469D01*
X015968Y024469D01*
X016027Y024528D01*
X016027Y024645D01*
X015968Y024703D01*
X015910Y024703D01*
X015793Y024645D01*
X015793Y024820D01*
X016027Y024820D01*
X016125Y024695D02*
X016183Y024753D01*
X016300Y024753D01*
X016358Y024695D01*
X016358Y024519D01*
X016475Y024519D02*
X016125Y024519D01*
X016125Y024695D01*
X016241Y024888D02*
X016125Y025004D01*
X016475Y025004D01*
X016475Y024888D02*
X016475Y025121D01*
X016475Y024753D02*
X016358Y024636D01*
X016247Y024402D02*
X016189Y024402D01*
X016130Y024344D01*
X016130Y024227D01*
X016189Y024169D01*
X016189Y024034D02*
X016305Y024034D01*
X016364Y023975D01*
X016364Y023800D01*
X016480Y023800D02*
X016130Y023800D01*
X016130Y023975D01*
X016189Y024034D01*
X016364Y023917D02*
X016480Y024034D01*
X016480Y024169D02*
X016247Y024402D01*
X016480Y024402D02*
X016480Y024169D01*
X016300Y023685D02*
X016300Y023451D01*
X016125Y023626D01*
X016475Y023626D01*
X016180Y023325D02*
X016165Y023327D01*
X016150Y023331D01*
X016136Y023338D01*
X016124Y023348D01*
X016114Y023360D01*
X016107Y023374D01*
X016103Y023389D01*
X016101Y023404D01*
X016032Y023404D01*
X015425Y024528D02*
X015425Y024761D01*
X015483Y024820D01*
X015600Y024820D01*
X015659Y024761D01*
X013932Y020920D02*
X013815Y020920D01*
X013757Y020861D01*
X013757Y020803D01*
X013815Y020745D01*
X013990Y020745D01*
X013990Y020861D02*
X013932Y020920D01*
X013990Y020861D02*
X013990Y020628D01*
X013932Y020569D01*
X013815Y020569D01*
X013757Y020628D01*
X013622Y020628D02*
X013564Y020569D01*
X013447Y020569D01*
X013388Y020628D01*
X013388Y020861D01*
X013447Y020920D01*
X013564Y020920D01*
X013622Y020861D01*
X014375Y020761D02*
X014375Y020528D01*
X014433Y020469D01*
X014550Y020469D01*
X014609Y020528D01*
X014609Y020761D02*
X014550Y020820D01*
X014433Y020820D01*
X014375Y020761D01*
X013045Y019811D02*
X013045Y019578D01*
X012987Y019519D01*
X012870Y019519D01*
X012812Y019578D01*
X013045Y019811D01*
X012987Y019870D01*
X012870Y019870D01*
X012812Y019811D01*
X012812Y019578D01*
X012677Y019519D02*
X012443Y019519D01*
X012560Y019519D02*
X012560Y019870D01*
X012443Y019753D01*
X012309Y019811D02*
X012250Y019870D01*
X012133Y019870D01*
X012075Y019811D01*
X012075Y019578D01*
X012133Y019519D01*
X012250Y019519D01*
X012309Y019578D01*
X011747Y019573D02*
X011513Y019339D01*
X011747Y019339D01*
X011747Y019573D02*
X011747Y019631D01*
X011688Y019690D01*
X011572Y019690D01*
X011513Y019631D01*
X011379Y019631D02*
X011379Y019515D01*
X011320Y019456D01*
X011145Y019456D01*
X011145Y019339D02*
X011145Y019690D01*
X011320Y019690D01*
X011379Y019631D01*
X010145Y020148D02*
X010131Y020154D01*
X010117Y020157D01*
X010102Y020159D01*
X010032Y020162D01*
X009813Y019725D02*
X009834Y019708D01*
X009857Y019694D01*
X009813Y019725D02*
X009755Y019773D01*
X010020Y019869D02*
X010034Y019856D01*
X010046Y019841D01*
X010020Y019869D02*
X009957Y019921D01*
X009774Y019565D02*
X009776Y019574D01*
X009781Y019581D01*
X009789Y019585D01*
X009797Y019586D01*
X009805Y019583D01*
X009812Y019577D01*
X009816Y019569D01*
X009816Y019561D01*
X009812Y019553D01*
X009806Y019547D01*
X009797Y019544D01*
X009789Y019545D01*
X009781Y019549D01*
X009776Y019556D01*
X009774Y019565D01*
X009290Y019461D02*
X009290Y019228D01*
X009232Y019169D01*
X009115Y019169D01*
X009057Y019228D01*
X009115Y019345D02*
X009290Y019345D01*
X009290Y019461D02*
X009232Y019520D01*
X009115Y019520D01*
X009057Y019461D01*
X009057Y019403D01*
X009115Y019345D01*
X008922Y019345D02*
X008922Y019461D01*
X008864Y019520D01*
X008688Y019520D01*
X008688Y019169D01*
X008688Y019286D02*
X008864Y019286D01*
X008922Y019345D01*
X008805Y019286D02*
X008922Y019169D01*
X009402Y020060D02*
X009332Y020126D01*
X009452Y020350D02*
X009440Y020361D01*
X009427Y020371D01*
X009452Y020350D02*
X009509Y020284D01*
X009332Y020126D02*
X009319Y020140D01*
X009307Y020155D01*
X009296Y020171D01*
X009707Y020450D02*
X009704Y020478D01*
X009698Y020505D01*
X009707Y020450D02*
X009711Y020396D01*
X009892Y020578D02*
X009894Y020585D01*
X009898Y020590D01*
X009905Y020593D01*
X009912Y020592D01*
X009918Y020588D01*
X009922Y020582D01*
X009922Y020574D01*
X009918Y020568D01*
X009912Y020564D01*
X009905Y020563D01*
X009898Y020566D01*
X009894Y020571D01*
X009892Y020578D01*
X010166Y020410D02*
X010168Y020417D01*
X010173Y020422D01*
X010180Y020424D01*
X010187Y020422D01*
X010192Y020417D01*
X010194Y020410D01*
X010192Y020403D01*
X010187Y020398D01*
X010180Y020396D01*
X010173Y020398D01*
X010168Y020403D01*
X010166Y020410D01*
X009563Y020869D02*
X009447Y020986D01*
X009505Y020986D02*
X009330Y020986D01*
X009330Y020869D02*
X009330Y021220D01*
X009505Y021220D01*
X009563Y021161D01*
X009563Y021045D01*
X009505Y020986D01*
X009195Y020869D02*
X008962Y020869D01*
X008962Y021220D01*
X009195Y021220D01*
X009078Y021045D02*
X008962Y021045D01*
X008827Y020986D02*
X008827Y020928D01*
X008768Y020869D01*
X008652Y020869D01*
X008593Y020928D01*
X008652Y021045D02*
X008768Y021045D01*
X008827Y020986D01*
X008827Y021161D02*
X008768Y021220D01*
X008652Y021220D01*
X008593Y021161D01*
X008593Y021103D01*
X008652Y021045D01*
X008459Y020928D02*
X008459Y021220D01*
X008225Y021220D02*
X008225Y020928D01*
X008283Y020869D01*
X008400Y020869D01*
X008459Y020928D01*
X008127Y021069D02*
X007893Y021069D01*
X008010Y021069D02*
X008010Y021420D01*
X007893Y021303D01*
X007759Y021361D02*
X007759Y021128D01*
X007700Y021069D01*
X007583Y021069D01*
X007525Y021128D01*
X007525Y021361D01*
X007583Y021420D01*
X007700Y021420D01*
X007759Y021361D01*
X007642Y021186D02*
X007759Y021069D01*
X007691Y020940D02*
X007633Y020940D01*
X007575Y020881D01*
X007575Y020764D01*
X007633Y020706D01*
X007691Y020940D02*
X007925Y020706D01*
X007925Y020940D01*
X007925Y020571D02*
X007925Y020338D01*
X007925Y020454D02*
X007575Y020454D01*
X007691Y020338D01*
X007633Y020203D02*
X007750Y020203D01*
X007808Y020145D01*
X007808Y019969D01*
X007925Y019969D02*
X007575Y019969D01*
X007575Y020145D01*
X007633Y020203D01*
X007808Y020086D02*
X007925Y020203D01*
X007577Y019811D02*
X007577Y019753D01*
X007518Y019695D01*
X007402Y019695D01*
X007343Y019753D01*
X007343Y019811D01*
X007402Y019870D01*
X007518Y019870D01*
X007577Y019811D01*
X007518Y019695D02*
X007577Y019636D01*
X007577Y019578D01*
X007518Y019519D01*
X007402Y019519D01*
X007343Y019578D01*
X007343Y019636D01*
X007402Y019695D01*
X007209Y019811D02*
X007150Y019870D01*
X007033Y019870D01*
X006975Y019811D01*
X006975Y019578D01*
X007033Y019519D01*
X007150Y019519D01*
X007209Y019578D01*
X006575Y021069D02*
X006225Y021069D01*
X006225Y021245D01*
X006283Y021303D01*
X006400Y021303D01*
X006458Y021245D01*
X006458Y021069D01*
X006458Y021186D02*
X006575Y021303D01*
X006575Y021438D02*
X006517Y021438D01*
X006283Y021671D01*
X006225Y021671D01*
X006225Y021438D01*
X006191Y022019D02*
X006151Y022019D01*
X006191Y022019D02*
X006191Y022570D01*
X006151Y022570D01*
X005797Y022570D02*
X005403Y022570D01*
X005049Y022570D02*
X005009Y022570D01*
X005009Y022019D01*
X005049Y022019D01*
X004989Y021901D02*
X004991Y021909D01*
X004996Y021916D01*
X005003Y021920D01*
X005011Y021921D01*
X005019Y021918D01*
X005025Y021913D01*
X005029Y021905D01*
X005029Y021897D01*
X005025Y021889D01*
X005019Y021884D01*
X005011Y021881D01*
X005003Y021882D01*
X004996Y021886D01*
X004991Y021893D01*
X004989Y021901D01*
X005561Y022019D02*
X005797Y022019D01*
X007575Y021970D02*
X007575Y021619D01*
X007575Y021736D02*
X007750Y021736D01*
X007809Y021795D01*
X007809Y021911D01*
X007750Y021970D01*
X007575Y021970D01*
X007575Y022069D02*
X007750Y022069D01*
X007809Y022128D01*
X007809Y022361D01*
X007750Y022420D01*
X007575Y022420D01*
X007575Y022069D01*
X007692Y021736D02*
X007809Y021619D01*
X007943Y021619D02*
X008177Y021619D01*
X008060Y021619D02*
X008060Y021970D01*
X007943Y021853D01*
X008002Y022069D02*
X007943Y022128D01*
X008002Y022069D02*
X008118Y022069D01*
X008177Y022128D01*
X008177Y022245D01*
X008118Y022303D01*
X008060Y022303D01*
X007943Y022245D01*
X007943Y022420D01*
X008177Y022420D01*
X008177Y022519D02*
X007943Y022519D01*
X008060Y022519D02*
X008060Y022870D01*
X007943Y022753D01*
X007809Y022811D02*
X007809Y022695D01*
X007750Y022636D01*
X007575Y022636D01*
X007575Y022519D02*
X007575Y022870D01*
X007750Y022870D01*
X007809Y022811D01*
X007792Y022969D02*
X007909Y023086D01*
X007909Y023320D01*
X008043Y023320D02*
X008218Y023320D01*
X008277Y023261D01*
X008277Y023145D01*
X008218Y023086D01*
X008043Y023086D01*
X008043Y022969D02*
X008043Y023320D01*
X008160Y023086D02*
X008277Y022969D01*
X008412Y022969D02*
X008645Y022969D01*
X008528Y022969D02*
X008528Y023320D01*
X008412Y023203D01*
X008938Y023469D02*
X008938Y023820D01*
X009114Y023820D01*
X009172Y023761D01*
X009172Y023645D01*
X009114Y023586D01*
X008938Y023586D01*
X009055Y023586D02*
X009172Y023469D01*
X009307Y023528D02*
X009365Y023469D01*
X009482Y023469D01*
X009540Y023528D01*
X009540Y023586D01*
X009482Y023645D01*
X009423Y023645D01*
X009482Y023645D02*
X009540Y023703D01*
X009540Y023761D01*
X009482Y023820D01*
X009365Y023820D01*
X009307Y023761D01*
X009352Y024069D02*
X009293Y024128D01*
X009352Y024069D02*
X009468Y024069D01*
X009527Y024128D01*
X009527Y024245D01*
X009468Y024303D01*
X009410Y024303D01*
X009293Y024245D01*
X009293Y024420D01*
X009527Y024420D01*
X009683Y024669D02*
X009800Y024669D01*
X009859Y024728D01*
X009993Y024728D02*
X010052Y024669D01*
X010168Y024669D01*
X010227Y024728D01*
X010227Y024786D01*
X010168Y024845D01*
X010110Y024845D01*
X010168Y024845D02*
X010227Y024903D01*
X010227Y024961D01*
X010168Y025020D01*
X010052Y025020D01*
X009993Y024961D01*
X009859Y024961D02*
X009800Y025020D01*
X009683Y025020D01*
X009625Y024961D01*
X009625Y024728D01*
X009683Y024669D01*
X009159Y024361D02*
X009159Y024245D01*
X009100Y024186D01*
X008925Y024186D01*
X008925Y024069D02*
X008925Y024420D01*
X009100Y024420D01*
X009159Y024361D01*
X009042Y024186D02*
X009159Y024069D01*
X008487Y022870D02*
X008370Y022870D01*
X008312Y022811D01*
X008312Y022578D01*
X008545Y022811D01*
X008545Y022578D01*
X008487Y022519D01*
X008370Y022519D01*
X008312Y022578D01*
X008545Y022811D02*
X008487Y022870D01*
X007792Y022969D02*
X007675Y023086D01*
X007675Y023320D01*
X007692Y022636D02*
X007809Y022519D01*
X008428Y021970D02*
X008312Y021853D01*
X008428Y021970D02*
X008428Y021619D01*
X008312Y021619D02*
X008545Y021619D01*
X006217Y024319D02*
X005983Y024319D01*
X005925Y024378D01*
X005925Y024495D01*
X005983Y024553D01*
X005983Y024688D02*
X005925Y024746D01*
X005925Y024863D01*
X005983Y024921D01*
X006041Y024921D01*
X006275Y024688D01*
X006275Y024921D01*
X006217Y024553D02*
X006275Y024495D01*
X006275Y024378D01*
X006217Y024319D01*
X005575Y024419D02*
X005575Y024653D01*
X005575Y024788D02*
X005575Y025021D01*
X005575Y024904D02*
X005225Y024904D01*
X005341Y024788D01*
X005077Y024686D02*
X005077Y024628D01*
X005018Y024569D01*
X004902Y024569D01*
X004843Y024628D01*
X004843Y024745D01*
X005018Y024745D01*
X005077Y024686D01*
X004960Y024861D02*
X005077Y024920D01*
X004960Y024861D02*
X004843Y024745D01*
X004709Y024745D02*
X004650Y024686D01*
X004475Y024686D01*
X004475Y024569D02*
X004475Y024920D01*
X004650Y024920D01*
X004709Y024861D01*
X004709Y024745D01*
X004592Y024686D02*
X004709Y024569D01*
X005000Y024394D02*
X005000Y019894D01*
X001500Y019894D01*
X002825Y020028D02*
X002883Y019969D01*
X003000Y019969D01*
X003059Y020028D01*
X003059Y020320D01*
X003193Y020261D02*
X003193Y020203D01*
X003252Y020145D01*
X003368Y020145D01*
X003427Y020086D01*
X003427Y020028D01*
X003368Y019969D01*
X003252Y019969D01*
X003193Y020028D01*
X003193Y020261D02*
X003252Y020320D01*
X003368Y020320D01*
X003427Y020261D01*
X003562Y020320D02*
X003562Y019969D01*
X003737Y019969D01*
X003795Y020028D01*
X003795Y020086D01*
X003737Y020145D01*
X003562Y020145D01*
X003562Y020320D02*
X003737Y020320D01*
X003795Y020261D01*
X003795Y020203D01*
X003737Y020145D01*
X003777Y020419D02*
X003543Y020419D01*
X003660Y020419D02*
X003660Y020770D01*
X003543Y020653D01*
X003409Y020770D02*
X003292Y020770D01*
X003350Y020770D02*
X003350Y020478D01*
X003292Y020419D01*
X003233Y020419D01*
X003175Y020478D01*
X002825Y020320D02*
X002825Y020028D01*
X004475Y019720D02*
X004475Y019369D01*
X004475Y019486D02*
X004650Y019486D01*
X004709Y019545D01*
X004709Y019661D01*
X004650Y019720D01*
X004475Y019720D01*
X004592Y019486D02*
X004709Y019369D01*
X004843Y019428D02*
X004843Y019486D01*
X004902Y019545D01*
X005018Y019545D01*
X005077Y019486D01*
X005077Y019428D01*
X005018Y019369D01*
X004902Y019369D01*
X004843Y019428D01*
X004902Y019545D02*
X004843Y019603D01*
X004843Y019661D01*
X004902Y019720D01*
X005018Y019720D01*
X005077Y019661D01*
X005077Y019603D01*
X005018Y019545D01*
X004689Y017795D02*
X004747Y017737D01*
X004747Y017678D01*
X004689Y017620D01*
X004514Y017620D01*
X004379Y017562D02*
X004379Y017503D01*
X004320Y017445D01*
X004204Y017445D01*
X004145Y017503D01*
X004204Y017620D02*
X004145Y017678D01*
X004145Y017737D01*
X004204Y017795D01*
X004320Y017795D01*
X004379Y017737D01*
X004320Y017620D02*
X004379Y017562D01*
X004320Y017620D02*
X004204Y017620D01*
X004011Y017503D02*
X004011Y017795D01*
X003777Y017795D02*
X003777Y017503D01*
X003835Y017445D01*
X003952Y017445D01*
X004011Y017503D01*
X004514Y017445D02*
X004689Y017445D01*
X004747Y017503D01*
X004747Y017562D01*
X004689Y017620D01*
X004689Y017795D02*
X004514Y017795D01*
X004514Y017445D01*
X004882Y017503D02*
X004882Y017678D01*
X004882Y017503D02*
X004940Y017445D01*
X005115Y017445D01*
X005115Y017678D01*
X005250Y017620D02*
X005309Y017678D01*
X005484Y017678D01*
X005484Y017387D01*
X005425Y017328D01*
X005367Y017328D01*
X005309Y017445D02*
X005484Y017445D01*
X005309Y017445D02*
X005250Y017503D01*
X005250Y017620D01*
X005677Y017503D02*
X005677Y017445D01*
X005735Y017445D01*
X005735Y017503D01*
X005677Y017503D01*
X005735Y017445D02*
X005619Y017328D01*
X005711Y016902D02*
X005711Y016843D01*
X005828Y016726D01*
X005828Y016551D01*
X005828Y016726D02*
X005944Y016843D01*
X005944Y016902D01*
X006079Y016726D02*
X006313Y016726D01*
X006447Y016785D02*
X006447Y016843D01*
X006506Y016902D01*
X006623Y016902D01*
X006681Y016843D01*
X006623Y016726D02*
X006681Y016668D01*
X006681Y016610D01*
X006623Y016551D01*
X006506Y016551D01*
X006447Y016610D01*
X006506Y016726D02*
X006623Y016726D01*
X006506Y016726D02*
X006447Y016785D01*
X006816Y016785D02*
X006933Y016902D01*
X007049Y016785D01*
X007049Y016551D01*
X007049Y016726D02*
X006816Y016726D01*
X006816Y016785D02*
X006816Y016551D01*
X006846Y017445D02*
X006963Y017562D01*
X006963Y017678D01*
X006846Y017795D01*
X006711Y017678D02*
X006536Y017678D01*
X006478Y017620D01*
X006478Y017503D01*
X006536Y017445D01*
X006711Y017445D01*
X006349Y017445D02*
X006232Y017562D01*
X006232Y017678D01*
X006349Y017795D01*
X005518Y016902D02*
X005576Y016843D01*
X005576Y016785D01*
X005518Y016726D01*
X005343Y016726D01*
X005208Y016726D02*
X004974Y016726D01*
X004839Y016610D02*
X004781Y016551D01*
X004664Y016551D01*
X004606Y016610D01*
X004606Y016843D01*
X004664Y016902D01*
X004781Y016902D01*
X004839Y016843D01*
X004471Y016843D02*
X004413Y016902D01*
X004296Y016902D01*
X004238Y016843D01*
X004238Y016610D01*
X004296Y016551D01*
X004413Y016551D01*
X004471Y016610D01*
X005343Y016551D02*
X005518Y016551D01*
X005576Y016610D01*
X005576Y016668D01*
X005518Y016726D01*
X005518Y016902D02*
X005343Y016902D01*
X005343Y016551D01*
X006128Y015098D02*
X006128Y015039D01*
X006128Y014923D02*
X006128Y014689D01*
X006186Y014689D02*
X006069Y014689D01*
X005935Y014747D02*
X005876Y014689D01*
X005701Y014689D01*
X005701Y014572D02*
X005701Y014923D01*
X005876Y014923D01*
X005935Y014864D01*
X005935Y014747D01*
X006069Y014923D02*
X006128Y014923D01*
X006315Y014923D02*
X006315Y014689D01*
X006549Y014689D02*
X006549Y014864D01*
X006490Y014923D01*
X006315Y014923D01*
X006683Y014981D02*
X006683Y014747D01*
X006742Y014689D01*
X006858Y014689D01*
X006917Y014747D01*
X006858Y014806D02*
X006858Y014923D01*
X006742Y014923D01*
X006742Y014806D01*
X006858Y014806D01*
X006917Y014864D01*
X006917Y014981D01*
X006858Y015039D01*
X006742Y015039D01*
X006683Y014981D01*
X007052Y014923D02*
X007052Y014747D01*
X007110Y014689D01*
X007168Y014747D01*
X007227Y014689D01*
X007285Y014747D01*
X007285Y014923D01*
X007478Y014923D02*
X007595Y014923D01*
X007653Y014864D01*
X007653Y014689D01*
X007478Y014689D01*
X007420Y014747D01*
X007478Y014806D01*
X007653Y014806D01*
X007788Y014923D02*
X007963Y014923D01*
X008022Y014864D01*
X008022Y014689D01*
X008157Y014747D02*
X008215Y014806D01*
X008390Y014806D01*
X008390Y014864D02*
X008390Y014689D01*
X008215Y014689D01*
X008157Y014747D01*
X008215Y014923D02*
X008332Y014923D01*
X008390Y014864D01*
X008525Y014864D02*
X008525Y014747D01*
X008583Y014689D01*
X008758Y014689D01*
X008758Y015039D01*
X008758Y014923D02*
X008583Y014923D01*
X008525Y014864D01*
X008893Y014864D02*
X008893Y014747D01*
X008952Y014689D01*
X009068Y014689D01*
X009127Y014747D01*
X009127Y014864D01*
X009068Y014923D01*
X008952Y014923D01*
X008893Y014864D01*
X009262Y014864D02*
X009262Y014747D01*
X009320Y014689D01*
X009437Y014689D01*
X009495Y014747D01*
X009495Y014864D01*
X009437Y014923D01*
X009320Y014923D01*
X009262Y014864D01*
X009630Y014747D02*
X009688Y014747D01*
X009688Y014689D01*
X009630Y014689D01*
X009630Y014747D01*
X009814Y014864D02*
X009931Y014864D01*
X009872Y014981D02*
X009931Y015039D01*
X009872Y014981D02*
X009872Y014689D01*
X010060Y014689D02*
X010060Y014923D01*
X010176Y014923D02*
X010060Y014806D01*
X010176Y014923D02*
X010235Y014923D01*
X010168Y013209D02*
X010052Y013209D01*
X009993Y013150D01*
X009859Y013150D02*
X009800Y013209D01*
X009683Y013209D01*
X009625Y013150D01*
X009625Y012917D01*
X009683Y012858D01*
X009800Y012858D01*
X009859Y012917D01*
X009993Y012917D02*
X010052Y012858D01*
X010168Y012858D01*
X010227Y012917D01*
X010227Y012975D01*
X010168Y013033D01*
X010110Y013033D01*
X010168Y013033D02*
X010227Y013092D01*
X010227Y013150D01*
X010168Y013209D01*
X009527Y012609D02*
X009293Y012609D01*
X009293Y012433D01*
X009410Y012492D01*
X009468Y012492D01*
X009527Y012433D01*
X009527Y012317D01*
X009468Y012258D01*
X009352Y012258D01*
X009293Y012317D01*
X009159Y012258D02*
X009042Y012375D01*
X009100Y012375D02*
X008925Y012375D01*
X008925Y012258D02*
X008925Y012609D01*
X009100Y012609D01*
X009159Y012550D01*
X009159Y012433D01*
X009100Y012375D01*
X009114Y012009D02*
X008938Y012009D01*
X008938Y011658D01*
X008938Y011775D02*
X009114Y011775D01*
X009172Y011833D01*
X009172Y011950D01*
X009114Y012009D01*
X009307Y011950D02*
X009365Y012009D01*
X009482Y012009D01*
X009540Y011950D01*
X009540Y011892D01*
X009482Y011833D01*
X009540Y011775D01*
X009540Y011717D01*
X009482Y011658D01*
X009365Y011658D01*
X009307Y011717D01*
X009172Y011658D02*
X009055Y011775D01*
X009423Y011833D02*
X009482Y011833D01*
X008528Y011509D02*
X008528Y011158D01*
X008487Y011059D02*
X008545Y011000D01*
X008312Y010767D01*
X008370Y010708D01*
X008487Y010708D01*
X008545Y010767D01*
X008545Y011000D01*
X008487Y011059D02*
X008370Y011059D01*
X008312Y011000D01*
X008312Y010767D01*
X008177Y010708D02*
X007943Y010708D01*
X007943Y010609D02*
X007943Y010433D01*
X008060Y010492D01*
X008118Y010492D01*
X008177Y010433D01*
X008177Y010317D01*
X008118Y010258D01*
X008002Y010258D01*
X007943Y010317D01*
X007809Y010317D02*
X007809Y010550D01*
X007750Y010609D01*
X007575Y010609D01*
X007575Y010258D01*
X007750Y010258D01*
X007809Y010317D01*
X007750Y010159D02*
X007809Y010100D01*
X007809Y009983D01*
X007750Y009925D01*
X007575Y009925D01*
X007575Y009808D02*
X007575Y010159D01*
X007750Y010159D01*
X007943Y010042D02*
X008060Y010159D01*
X008060Y009808D01*
X007943Y009808D02*
X008177Y009808D01*
X008312Y009808D02*
X008545Y009808D01*
X008428Y009808D02*
X008428Y010159D01*
X008312Y010042D01*
X008010Y009609D02*
X008010Y009258D01*
X007893Y009258D02*
X008127Y009258D01*
X008225Y009117D02*
X008283Y009058D01*
X008400Y009058D01*
X008459Y009117D01*
X008459Y009409D01*
X008593Y009350D02*
X008593Y009292D01*
X008652Y009233D01*
X008768Y009233D01*
X008827Y009175D01*
X008827Y009117D01*
X008768Y009058D01*
X008652Y009058D01*
X008593Y009117D01*
X008593Y009350D02*
X008652Y009409D01*
X008768Y009409D01*
X008827Y009350D01*
X008962Y009409D02*
X008962Y009058D01*
X009195Y009058D01*
X009330Y009058D02*
X009330Y009409D01*
X009505Y009409D01*
X009563Y009350D01*
X009563Y009233D01*
X009505Y009175D01*
X009330Y009175D01*
X009447Y009175D02*
X009563Y009058D01*
X009892Y008767D02*
X009894Y008774D01*
X009898Y008779D01*
X009905Y008782D01*
X009912Y008781D01*
X009918Y008777D01*
X009922Y008771D01*
X009922Y008763D01*
X009918Y008757D01*
X009912Y008753D01*
X009905Y008752D01*
X009898Y008755D01*
X009894Y008760D01*
X009892Y008767D01*
X009707Y008639D02*
X009711Y008585D01*
X009509Y008473D02*
X009452Y008539D01*
X009296Y008360D02*
X009307Y008344D01*
X009319Y008329D01*
X009332Y008315D01*
X009402Y008249D01*
X009452Y008539D02*
X009440Y008550D01*
X009427Y008560D01*
X009707Y008639D02*
X009704Y008667D01*
X009698Y008694D01*
X010032Y008351D02*
X010102Y008348D01*
X010117Y008346D01*
X010131Y008343D01*
X010145Y008337D01*
X010166Y008599D02*
X010168Y008606D01*
X010173Y008611D01*
X010180Y008613D01*
X010187Y008611D01*
X010192Y008606D01*
X010194Y008599D01*
X010192Y008592D01*
X010187Y008587D01*
X010180Y008585D01*
X010173Y008587D01*
X010168Y008592D01*
X010166Y008599D01*
X009813Y007914D02*
X009834Y007897D01*
X009857Y007883D01*
X009813Y007914D02*
X009755Y007962D01*
X010020Y008058D02*
X010034Y008045D01*
X010046Y008030D01*
X010020Y008058D02*
X009957Y008110D01*
X009774Y007754D02*
X009776Y007763D01*
X009781Y007770D01*
X009789Y007774D01*
X009797Y007775D01*
X009805Y007772D01*
X009812Y007766D01*
X009816Y007758D01*
X009816Y007750D01*
X009812Y007742D01*
X009806Y007736D01*
X009797Y007733D01*
X009789Y007734D01*
X009781Y007738D01*
X009776Y007745D01*
X009774Y007754D01*
X009290Y007650D02*
X009290Y007417D01*
X009232Y007358D01*
X009115Y007358D01*
X009057Y007417D01*
X009115Y007533D02*
X009290Y007533D01*
X009290Y007650D02*
X009232Y007709D01*
X009115Y007709D01*
X009057Y007650D01*
X009057Y007592D01*
X009115Y007533D01*
X008922Y007533D02*
X008922Y007650D01*
X008864Y007709D01*
X008688Y007709D01*
X008688Y007358D01*
X008688Y007475D02*
X008864Y007475D01*
X008922Y007533D01*
X008805Y007475D02*
X008922Y007358D01*
X007925Y008158D02*
X007575Y008158D01*
X007575Y008333D01*
X007633Y008392D01*
X007750Y008392D01*
X007808Y008333D01*
X007808Y008158D01*
X007808Y008275D02*
X007925Y008392D01*
X007925Y008527D02*
X007925Y008760D01*
X007925Y008643D02*
X007575Y008643D01*
X007691Y008527D01*
X007633Y008895D02*
X007575Y008953D01*
X007575Y009070D01*
X007633Y009128D01*
X007691Y009128D01*
X007925Y008895D01*
X007925Y009128D01*
X007759Y009258D02*
X007642Y009375D01*
X007759Y009317D02*
X007700Y009258D01*
X007583Y009258D01*
X007525Y009317D01*
X007525Y009550D01*
X007583Y009609D01*
X007700Y009609D01*
X007759Y009550D01*
X007759Y009317D01*
X007893Y009492D02*
X008010Y009609D01*
X007809Y009808D02*
X007692Y009925D01*
X007943Y010609D02*
X008177Y010609D01*
X008060Y010708D02*
X008060Y011059D01*
X007943Y010942D01*
X007809Y011000D02*
X007750Y011059D01*
X007575Y011059D01*
X007575Y010708D01*
X007575Y010825D02*
X007750Y010825D01*
X007809Y010883D01*
X007809Y011000D01*
X007792Y011158D02*
X007909Y011275D01*
X007909Y011509D01*
X008043Y011509D02*
X008218Y011509D01*
X008277Y011450D01*
X008277Y011333D01*
X008218Y011275D01*
X008043Y011275D01*
X008043Y011158D02*
X008043Y011509D01*
X008160Y011275D02*
X008277Y011158D01*
X008412Y011158D02*
X008645Y011158D01*
X008412Y011392D02*
X008528Y011509D01*
X007792Y011158D02*
X007675Y011275D01*
X007675Y011509D01*
X007692Y010825D02*
X007809Y010708D01*
X008225Y009409D02*
X008225Y009117D01*
X008962Y009233D02*
X009078Y009233D01*
X008962Y009409D02*
X009195Y009409D01*
X007577Y008000D02*
X007577Y007942D01*
X007518Y007883D01*
X007402Y007883D01*
X007343Y007942D01*
X007343Y008000D01*
X007402Y008059D01*
X007518Y008059D01*
X007577Y008000D01*
X007518Y007883D02*
X007577Y007825D01*
X007577Y007767D01*
X007518Y007708D01*
X007402Y007708D01*
X007343Y007767D01*
X007343Y007825D01*
X007402Y007883D01*
X007209Y007767D02*
X007150Y007708D01*
X007033Y007708D01*
X006975Y007767D01*
X006975Y008000D01*
X007033Y008059D01*
X007150Y008059D01*
X007209Y008000D01*
X006575Y009258D02*
X006225Y009258D01*
X006225Y009433D01*
X006283Y009492D01*
X006400Y009492D01*
X006458Y009433D01*
X006458Y009258D01*
X006458Y009375D02*
X006575Y009492D01*
X006575Y009627D02*
X006517Y009627D01*
X006283Y009860D01*
X006225Y009860D01*
X006225Y009627D01*
X006191Y010208D02*
X006151Y010208D01*
X006191Y010208D02*
X006191Y010759D01*
X006151Y010759D01*
X005797Y010759D02*
X005403Y010759D01*
X005049Y010759D02*
X005009Y010759D01*
X005009Y010208D01*
X005049Y010208D01*
X004989Y010090D02*
X004991Y010098D01*
X004996Y010105D01*
X005003Y010109D01*
X005011Y010110D01*
X005019Y010107D01*
X005025Y010102D01*
X005029Y010094D01*
X005029Y010086D01*
X005025Y010078D01*
X005019Y010073D01*
X005011Y010070D01*
X005003Y010071D01*
X004996Y010075D01*
X004991Y010082D01*
X004989Y010090D01*
X005561Y010208D02*
X005797Y010208D01*
X003660Y008959D02*
X003660Y008608D01*
X003543Y008608D02*
X003777Y008608D01*
X003737Y008509D02*
X003795Y008450D01*
X003795Y008392D01*
X003737Y008333D01*
X003562Y008333D01*
X003427Y008275D02*
X003427Y008217D01*
X003368Y008158D01*
X003252Y008158D01*
X003193Y008217D01*
X003252Y008333D02*
X003368Y008333D01*
X003427Y008275D01*
X003427Y008450D02*
X003368Y008509D01*
X003252Y008509D01*
X003193Y008450D01*
X003193Y008392D01*
X003252Y008333D01*
X003059Y008217D02*
X003059Y008509D01*
X003175Y008667D02*
X003233Y008608D01*
X003292Y008608D01*
X003350Y008667D01*
X003350Y008959D01*
X003292Y008959D02*
X003409Y008959D01*
X003543Y008842D02*
X003660Y008959D01*
X003737Y008509D02*
X003562Y008509D01*
X003562Y008158D01*
X003737Y008158D01*
X003795Y008217D01*
X003795Y008275D01*
X003737Y008333D01*
X004475Y007909D02*
X004475Y007558D01*
X004475Y007675D02*
X004650Y007675D01*
X004709Y007733D01*
X004709Y007850D01*
X004650Y007909D01*
X004475Y007909D01*
X004592Y007675D02*
X004709Y007558D01*
X004843Y007617D02*
X004843Y007675D01*
X004902Y007733D01*
X005018Y007733D01*
X005077Y007675D01*
X005077Y007617D01*
X005018Y007558D01*
X004902Y007558D01*
X004843Y007617D01*
X004902Y007733D02*
X004843Y007792D01*
X004843Y007850D01*
X004902Y007909D01*
X005018Y007909D01*
X005077Y007850D01*
X005077Y007792D01*
X005018Y007733D01*
X005000Y008083D02*
X001500Y008083D01*
X002825Y008217D02*
X002883Y008158D01*
X003000Y008158D01*
X003059Y008217D01*
X002825Y008217D02*
X002825Y008509D01*
X005000Y008083D02*
X005000Y012583D01*
X001500Y012583D01*
X002825Y012409D02*
X002825Y012058D01*
X002825Y012175D02*
X003000Y012175D01*
X003059Y012233D01*
X003059Y012350D01*
X003000Y012409D01*
X002825Y012409D01*
X003193Y012409D02*
X003193Y012058D01*
X003310Y012175D01*
X003427Y012058D01*
X003427Y012409D01*
X003562Y012409D02*
X003737Y012409D01*
X003795Y012350D01*
X003795Y012233D01*
X003737Y012175D01*
X003562Y012175D01*
X003678Y012175D02*
X003795Y012058D01*
X003562Y012058D02*
X003562Y012409D01*
X004475Y012758D02*
X004475Y013109D01*
X004650Y013109D01*
X004709Y013050D01*
X004709Y012933D01*
X004650Y012875D01*
X004475Y012875D01*
X004592Y012875D02*
X004709Y012758D01*
X004843Y012817D02*
X004902Y012758D01*
X005018Y012758D01*
X005077Y012817D01*
X005077Y012875D01*
X005018Y012933D01*
X004843Y012933D01*
X004843Y012817D01*
X004843Y012933D02*
X004960Y013050D01*
X005077Y013109D01*
X005225Y013093D02*
X005575Y013093D01*
X005575Y012977D02*
X005575Y013210D01*
X005341Y012977D02*
X005225Y013093D01*
X005575Y012842D02*
X005575Y012608D01*
X005225Y012608D01*
X005925Y012567D02*
X005983Y012508D01*
X006217Y012508D01*
X006275Y012567D01*
X006275Y012683D01*
X006217Y012742D01*
X006275Y012877D02*
X006041Y013110D01*
X005983Y013110D01*
X005925Y013052D01*
X005925Y012935D01*
X005983Y012877D01*
X005983Y012742D02*
X005925Y012683D01*
X005925Y012567D01*
X006275Y012877D02*
X006275Y013110D01*
X005566Y014689D02*
X005566Y014864D01*
X005508Y014923D01*
X005450Y014864D01*
X005450Y014689D01*
X005333Y014689D02*
X005333Y014923D01*
X005391Y014923D01*
X005450Y014864D01*
X005198Y014864D02*
X005198Y014806D01*
X004965Y014806D01*
X004965Y014864D02*
X005023Y014923D01*
X005140Y014923D01*
X005198Y014864D01*
X005140Y014689D02*
X005023Y014689D01*
X004965Y014747D01*
X004965Y014864D01*
X004836Y014923D02*
X004719Y014923D01*
X004777Y014981D02*
X004777Y014747D01*
X004836Y014689D01*
X004584Y014747D02*
X004526Y014806D01*
X004409Y014806D01*
X004351Y014864D01*
X004409Y014923D01*
X004584Y014923D01*
X004584Y014747D02*
X004526Y014689D01*
X004351Y014689D01*
X004225Y014689D02*
X004167Y014689D01*
X004167Y014747D01*
X004225Y014747D01*
X004225Y014689D01*
X004038Y014689D02*
X003921Y014689D01*
X003979Y014689D02*
X003979Y015039D01*
X003921Y015039D01*
X003786Y014864D02*
X003786Y014806D01*
X003553Y014806D01*
X003553Y014864D02*
X003611Y014923D01*
X003728Y014923D01*
X003786Y014864D01*
X003728Y014689D02*
X003611Y014689D01*
X003553Y014747D01*
X003553Y014864D01*
X003418Y014864D02*
X003418Y014689D01*
X003418Y014864D02*
X003359Y014923D01*
X003243Y014923D01*
X003184Y014864D01*
X003050Y014923D02*
X002874Y014923D01*
X002816Y014864D01*
X002816Y014747D01*
X002874Y014689D01*
X003050Y014689D01*
X003184Y014689D02*
X003184Y015039D01*
X002629Y015039D02*
X002629Y015098D01*
X002629Y014923D02*
X002629Y014689D01*
X002687Y014689D02*
X002570Y014689D01*
X002436Y014689D02*
X002436Y014864D01*
X002377Y014923D01*
X002319Y014864D01*
X002319Y014689D01*
X002202Y014689D02*
X002202Y014923D01*
X002261Y014923D01*
X002319Y014864D01*
X002570Y014923D02*
X002629Y014923D01*
X007460Y017445D02*
X007694Y017678D01*
X007694Y017737D01*
X007635Y017795D01*
X007518Y017795D01*
X007460Y017737D01*
X007460Y017445D02*
X007694Y017445D01*
X007828Y017503D02*
X008062Y017737D01*
X008062Y017503D01*
X008004Y017445D01*
X007887Y017445D01*
X007828Y017503D01*
X007828Y017737D01*
X007887Y017795D01*
X008004Y017795D01*
X008062Y017737D01*
X008197Y017678D02*
X008314Y017795D01*
X008314Y017445D01*
X008430Y017445D02*
X008197Y017445D01*
X008565Y017445D02*
X008799Y017678D01*
X008799Y017737D01*
X008740Y017795D01*
X008623Y017795D01*
X008565Y017737D01*
X008565Y017445D02*
X008799Y017445D01*
X008933Y017328D02*
X009050Y017445D01*
X008992Y017445D01*
X008992Y017503D01*
X009050Y017503D01*
X009050Y017445D01*
X009547Y017445D02*
X009547Y017795D01*
X009664Y017678D01*
X009781Y017795D01*
X009781Y017445D01*
X009916Y017445D02*
X010032Y017445D01*
X009974Y017445D02*
X009974Y017678D01*
X009916Y017678D01*
X009974Y017795D02*
X009974Y017854D01*
X010161Y017620D02*
X010161Y017503D01*
X010219Y017445D01*
X010395Y017445D01*
X010529Y017445D02*
X010529Y017795D01*
X010588Y017678D02*
X010705Y017678D01*
X010763Y017620D01*
X010763Y017445D01*
X010898Y017503D02*
X010898Y017620D01*
X010956Y017678D01*
X011073Y017678D01*
X011131Y017620D01*
X011131Y017562D01*
X010898Y017562D01*
X010898Y017503D02*
X010956Y017445D01*
X011073Y017445D01*
X011266Y017445D02*
X011383Y017445D01*
X011324Y017445D02*
X011324Y017795D01*
X011266Y017795D01*
X011880Y017737D02*
X011880Y017678D01*
X011938Y017620D01*
X012055Y017620D01*
X012113Y017562D01*
X012113Y017503D01*
X012055Y017445D01*
X011938Y017445D01*
X011880Y017503D01*
X011880Y017737D02*
X011938Y017795D01*
X012055Y017795D01*
X012113Y017737D01*
X012248Y017678D02*
X012365Y017678D01*
X012307Y017737D02*
X012307Y017503D01*
X012365Y017445D01*
X012494Y017503D02*
X012494Y017620D01*
X012552Y017678D01*
X012669Y017678D01*
X012727Y017620D01*
X012727Y017562D01*
X012494Y017562D01*
X012494Y017503D02*
X012552Y017445D01*
X012669Y017445D01*
X012862Y017445D02*
X012862Y017678D01*
X012920Y017678D01*
X012979Y017620D01*
X013037Y017678D01*
X013096Y017620D01*
X013096Y017445D01*
X012979Y017445D02*
X012979Y017620D01*
X013230Y017678D02*
X013230Y017328D01*
X013230Y017445D02*
X013406Y017445D01*
X013464Y017503D01*
X013464Y017620D01*
X013406Y017678D01*
X013230Y017678D01*
X013599Y017678D02*
X013657Y017678D01*
X013657Y017445D01*
X013599Y017445D02*
X013715Y017445D01*
X013844Y017445D02*
X013844Y017678D01*
X014019Y017678D01*
X014078Y017620D01*
X014078Y017445D01*
X014213Y017445D02*
X014271Y017445D01*
X014271Y017503D01*
X014213Y017503D01*
X014213Y017445D01*
X014765Y017445D02*
X014765Y017678D01*
X014882Y017795D01*
X014999Y017678D01*
X014999Y017445D01*
X015133Y017445D02*
X015250Y017445D01*
X015192Y017445D02*
X015192Y017795D01*
X015133Y017795D01*
X014999Y017620D02*
X014765Y017620D01*
X015379Y017445D02*
X015496Y017445D01*
X015437Y017445D02*
X015437Y017795D01*
X015379Y017795D01*
X015993Y017678D02*
X015993Y017445D01*
X015993Y017562D02*
X016109Y017678D01*
X016168Y017678D01*
X016300Y017678D02*
X016358Y017678D01*
X016358Y017445D01*
X016300Y017445D02*
X016416Y017445D01*
X016545Y017503D02*
X016604Y017445D01*
X016779Y017445D01*
X016779Y017387D02*
X016779Y017678D01*
X016604Y017678D01*
X016545Y017620D01*
X016545Y017503D01*
X016662Y017328D02*
X016720Y017328D01*
X016779Y017387D01*
X016914Y017445D02*
X016914Y017795D01*
X016972Y017678D02*
X017089Y017678D01*
X017147Y017620D01*
X017147Y017445D01*
X017340Y017503D02*
X017399Y017445D01*
X017340Y017503D02*
X017340Y017737D01*
X017282Y017678D02*
X017399Y017678D01*
X017527Y017620D02*
X017586Y017678D01*
X017761Y017678D01*
X017703Y017562D02*
X017586Y017562D01*
X017527Y017620D01*
X017527Y017445D02*
X017703Y017445D01*
X017761Y017503D01*
X017703Y017562D01*
X018264Y017562D02*
X018381Y017678D01*
X018439Y017678D01*
X018571Y017620D02*
X018629Y017678D01*
X018746Y017678D01*
X018804Y017620D01*
X018804Y017562D01*
X018571Y017562D01*
X018571Y017620D02*
X018571Y017503D01*
X018629Y017445D01*
X018746Y017445D01*
X018939Y017445D02*
X019114Y017445D01*
X019173Y017503D01*
X019114Y017562D01*
X018998Y017562D01*
X018939Y017620D01*
X018998Y017678D01*
X019173Y017678D01*
X019308Y017620D02*
X019366Y017678D01*
X019483Y017678D01*
X019541Y017620D01*
X019541Y017562D01*
X019308Y017562D01*
X019308Y017620D02*
X019308Y017503D01*
X019366Y017445D01*
X019483Y017445D01*
X019676Y017445D02*
X019676Y017678D01*
X019676Y017562D02*
X019793Y017678D01*
X019851Y017678D01*
X019983Y017678D02*
X020100Y017445D01*
X020216Y017678D01*
X020351Y017620D02*
X020409Y017678D01*
X020526Y017678D01*
X020585Y017620D01*
X020585Y017562D01*
X020351Y017562D01*
X020351Y017620D02*
X020351Y017503D01*
X020409Y017445D01*
X020526Y017445D01*
X020719Y017503D02*
X020719Y017620D01*
X020778Y017678D01*
X020953Y017678D01*
X020953Y017795D02*
X020953Y017445D01*
X020778Y017445D01*
X020719Y017503D01*
X021088Y017503D02*
X021146Y017503D01*
X021146Y017445D01*
X021088Y017445D01*
X021088Y017503D01*
X020743Y016902D02*
X020859Y016785D01*
X020859Y016551D01*
X020859Y016726D02*
X020626Y016726D01*
X020626Y016785D02*
X020743Y016902D01*
X020626Y016785D02*
X020626Y016551D01*
X020123Y016551D02*
X020123Y016726D01*
X020064Y016785D01*
X019889Y016785D01*
X019889Y016551D01*
X019754Y016610D02*
X019754Y016726D01*
X019696Y016785D01*
X019579Y016785D01*
X019521Y016726D01*
X019521Y016610D01*
X019579Y016551D01*
X019696Y016551D01*
X019754Y016610D01*
X019392Y016551D02*
X019275Y016551D01*
X019334Y016551D02*
X019334Y016785D01*
X019275Y016785D01*
X019334Y016902D02*
X019334Y016960D01*
X019141Y016785D02*
X018965Y016785D01*
X018907Y016726D01*
X018965Y016668D01*
X019082Y016668D01*
X019141Y016610D01*
X019082Y016551D01*
X018907Y016551D01*
X018778Y016551D02*
X018661Y016551D01*
X018720Y016551D02*
X018720Y016785D01*
X018661Y016785D01*
X018720Y016902D02*
X018720Y016960D01*
X018527Y016785D02*
X018410Y016551D01*
X018293Y016785D01*
X018158Y016726D02*
X018158Y016668D01*
X017925Y016668D01*
X017925Y016610D02*
X017925Y016726D01*
X017983Y016785D01*
X018100Y016785D01*
X018158Y016726D01*
X018100Y016551D02*
X017983Y016551D01*
X017925Y016610D01*
X017790Y016551D02*
X017673Y016668D01*
X017732Y016668D02*
X017556Y016668D01*
X017556Y016551D02*
X017556Y016902D01*
X017732Y016902D01*
X017790Y016843D01*
X017790Y016726D01*
X017732Y016668D01*
X018264Y017445D02*
X018264Y017678D01*
X016972Y017678D02*
X016914Y017620D01*
X016358Y017795D02*
X016358Y017854D01*
X018319Y019155D02*
X020681Y019155D01*
X020681Y019451D01*
X020091Y019549D02*
X020091Y020140D01*
X018909Y020140D01*
X018909Y019549D01*
X020091Y019549D01*
X020681Y020238D02*
X020681Y020533D01*
X018319Y020533D01*
X018319Y020238D01*
X018319Y019451D02*
X018319Y019155D01*
X020683Y022274D02*
X020625Y022333D01*
X020625Y022449D01*
X020683Y022508D01*
X020800Y022449D02*
X020800Y022391D01*
X020975Y022643D02*
X020741Y022876D01*
X020683Y022876D01*
X020975Y022876D02*
X020975Y022643D01*
X013657Y017854D02*
X013657Y017795D01*
X015646Y015039D02*
X015763Y015039D01*
X015822Y014981D01*
X015822Y014923D01*
X015763Y014864D01*
X015822Y014806D01*
X015822Y014747D01*
X015763Y014689D01*
X015646Y014689D01*
X015588Y014747D01*
X015705Y014864D02*
X015763Y014864D01*
X015588Y014981D02*
X015646Y015039D01*
X015956Y014981D02*
X015956Y014747D01*
X016190Y014981D01*
X016190Y014747D01*
X016131Y014689D01*
X016015Y014689D01*
X015956Y014747D01*
X015956Y014981D02*
X016015Y015039D01*
X016131Y015039D01*
X016190Y014981D01*
X016325Y014689D02*
X016558Y015039D01*
X016693Y014981D02*
X016751Y015039D01*
X016868Y015039D01*
X016926Y014981D01*
X016693Y014747D01*
X016751Y014689D01*
X016868Y014689D01*
X016926Y014747D01*
X016926Y014981D01*
X017061Y014923D02*
X017178Y015039D01*
X017178Y014689D01*
X017061Y014689D02*
X017295Y014689D01*
X017430Y014689D02*
X017663Y015039D01*
X017798Y014981D02*
X017856Y015039D01*
X017973Y015039D01*
X018031Y014981D01*
X018031Y014923D01*
X017798Y014689D01*
X018031Y014689D01*
X018166Y014747D02*
X018400Y014981D01*
X018400Y014747D01*
X018341Y014689D01*
X018225Y014689D01*
X018166Y014747D01*
X018166Y014981D01*
X018225Y015039D01*
X018341Y015039D01*
X018400Y014981D01*
X018535Y014923D02*
X018651Y015039D01*
X018651Y014689D01*
X018535Y014689D02*
X018768Y014689D01*
X018903Y014689D02*
X019136Y014923D01*
X019136Y014981D01*
X019078Y015039D01*
X018961Y015039D01*
X018903Y014981D01*
X018903Y014689D02*
X019136Y014689D01*
X018319Y013322D02*
X020681Y013322D01*
X020681Y013027D01*
X020091Y012929D02*
X020091Y012338D01*
X018909Y012338D01*
X018909Y012929D01*
X020091Y012929D01*
X020681Y012240D02*
X020681Y011944D01*
X018319Y011944D01*
X018319Y012240D01*
X018075Y012212D02*
X017725Y012212D01*
X017725Y012328D02*
X017725Y012095D01*
X017783Y011960D02*
X017725Y011902D01*
X017725Y011785D01*
X017783Y011727D01*
X017841Y011727D01*
X017900Y011785D01*
X017900Y011902D01*
X017958Y011960D01*
X018017Y011960D01*
X018075Y011902D01*
X018075Y011785D01*
X018017Y011727D01*
X018000Y011833D02*
X021375Y011833D01*
X020975Y011375D02*
X020625Y011375D01*
X020800Y011200D01*
X020800Y011433D01*
X020741Y011065D02*
X020683Y011065D01*
X020625Y011007D01*
X020625Y010890D01*
X020683Y010832D01*
X020683Y010697D02*
X020741Y010697D01*
X020800Y010638D01*
X020858Y010697D01*
X020917Y010697D01*
X020975Y010638D01*
X020975Y010522D01*
X020917Y010463D01*
X020917Y010328D02*
X020975Y010270D01*
X020975Y010153D01*
X020917Y010095D01*
X020800Y010212D02*
X020800Y010270D01*
X020858Y010328D01*
X020917Y010328D01*
X020800Y010270D02*
X020741Y010328D01*
X020683Y010328D01*
X020625Y010270D01*
X020625Y010153D01*
X020683Y010095D01*
X020800Y009960D02*
X020800Y009727D01*
X020625Y009902D01*
X020975Y009902D01*
X020917Y009592D02*
X020683Y009592D01*
X020625Y009533D01*
X020625Y009358D01*
X020975Y009358D01*
X020975Y009533D01*
X020917Y009592D01*
X021375Y008833D02*
X018000Y008833D01*
X018000Y011833D01*
X018075Y011592D02*
X017958Y011475D01*
X017958Y011533D02*
X017958Y011358D01*
X018075Y011358D02*
X017725Y011358D01*
X017725Y011533D01*
X017783Y011592D01*
X017900Y011592D01*
X017958Y011533D01*
X018319Y013027D02*
X018319Y013322D01*
X016693Y014747D02*
X016693Y014981D01*
X016475Y013310D02*
X016475Y013077D01*
X016475Y013193D02*
X016125Y013193D01*
X016241Y013077D01*
X016183Y012942D02*
X016300Y012942D01*
X016358Y012883D01*
X016358Y012708D01*
X016475Y012708D02*
X016125Y012708D01*
X016125Y012883D01*
X016183Y012942D01*
X016027Y013009D02*
X015793Y013009D01*
X015793Y012833D01*
X015910Y012892D01*
X015968Y012892D01*
X016027Y012833D01*
X016027Y012717D01*
X015968Y012658D01*
X015852Y012658D01*
X015793Y012717D01*
X015659Y012717D02*
X015600Y012658D01*
X015483Y012658D01*
X015425Y012717D01*
X015425Y012950D01*
X015483Y013009D01*
X015600Y013009D01*
X015659Y012950D01*
X016130Y012533D02*
X016130Y012416D01*
X016189Y012358D01*
X016189Y012223D02*
X016305Y012223D01*
X016364Y012164D01*
X016364Y011989D01*
X016480Y011989D02*
X016130Y011989D01*
X016130Y012164D01*
X016189Y012223D01*
X016364Y012106D02*
X016480Y012223D01*
X016480Y012358D02*
X016247Y012591D01*
X016189Y012591D01*
X016130Y012533D01*
X016480Y012591D02*
X016480Y012358D01*
X016358Y012825D02*
X016475Y012942D01*
X016300Y011874D02*
X016300Y011640D01*
X016125Y011815D01*
X016475Y011815D01*
X016475Y011505D02*
X016358Y011388D01*
X016358Y011447D02*
X016358Y011272D01*
X016475Y011272D02*
X016125Y011272D01*
X016125Y011447D01*
X016183Y011505D01*
X016300Y011505D01*
X016358Y011447D01*
X016475Y011310D02*
X016475Y011077D01*
X016475Y011193D02*
X016125Y011193D01*
X016241Y011077D01*
X016183Y010942D02*
X016125Y010883D01*
X016125Y010767D01*
X016183Y010708D01*
X016417Y010708D01*
X016475Y010767D01*
X016475Y010883D01*
X016417Y010942D01*
X016180Y011514D02*
X016180Y009152D01*
X016165Y009150D01*
X016150Y009146D01*
X016136Y009139D01*
X016124Y009129D01*
X016114Y009117D01*
X016107Y009103D01*
X016103Y009088D01*
X016101Y009073D01*
X016032Y009073D01*
X016225Y008809D02*
X016400Y008809D01*
X016459Y008750D01*
X016459Y008633D01*
X016400Y008575D01*
X016225Y008575D01*
X016225Y008458D02*
X016225Y008809D01*
X016342Y008575D02*
X016459Y008458D01*
X016593Y008517D02*
X016593Y008633D01*
X016652Y008692D01*
X016768Y008692D01*
X016827Y008633D01*
X016827Y008575D01*
X016593Y008575D01*
X016593Y008517D02*
X016652Y008458D01*
X016768Y008458D01*
X017025Y008309D02*
X017142Y008309D01*
X017083Y008309D02*
X017083Y007958D01*
X017025Y007958D02*
X017142Y007958D01*
X017271Y008017D02*
X017329Y007958D01*
X017446Y007958D01*
X017504Y008017D01*
X017504Y008075D01*
X017446Y008133D01*
X017329Y008133D01*
X017271Y008192D01*
X017271Y008250D01*
X017329Y008309D01*
X017446Y008309D01*
X017504Y008250D01*
X017639Y008309D02*
X017814Y008309D01*
X017872Y008250D01*
X017872Y008133D01*
X017814Y008075D01*
X017639Y008075D01*
X017639Y007958D02*
X017639Y008309D01*
X017882Y008458D02*
X017882Y008692D01*
X017999Y008809D01*
X018116Y008692D01*
X018116Y008458D01*
X018116Y008633D02*
X017882Y008633D01*
X017817Y008858D02*
X017875Y008917D01*
X017875Y009033D01*
X017817Y009092D01*
X017758Y009092D01*
X017700Y009033D01*
X017700Y008917D01*
X017641Y008858D01*
X017583Y008858D01*
X017525Y008917D01*
X017525Y009033D01*
X017583Y009092D01*
X017525Y009227D02*
X017875Y009227D01*
X017758Y009343D01*
X017875Y009460D01*
X017525Y009460D01*
X017525Y009595D02*
X017525Y009770D01*
X017583Y009828D01*
X017817Y009828D01*
X017875Y009770D01*
X017875Y009595D01*
X017525Y009595D01*
X016877Y009408D02*
X016643Y009408D01*
X016760Y009408D02*
X016760Y009759D01*
X016643Y009642D01*
X016509Y009700D02*
X016509Y009467D01*
X016450Y009408D01*
X016275Y009408D01*
X016275Y009759D01*
X016450Y009759D01*
X016509Y009700D01*
X016962Y008692D02*
X017078Y008458D01*
X017195Y008692D01*
X017330Y008517D02*
X017388Y008517D01*
X017388Y008458D01*
X017330Y008458D01*
X017330Y008517D01*
X017120Y007809D02*
X017003Y007692D01*
X017003Y007458D01*
X016868Y007517D02*
X016810Y007458D01*
X016693Y007458D01*
X016635Y007517D01*
X016693Y007633D02*
X016810Y007633D01*
X016868Y007575D01*
X016868Y007517D01*
X017003Y007633D02*
X017237Y007633D01*
X017237Y007692D02*
X017237Y007458D01*
X017237Y007692D02*
X017120Y007809D01*
X016868Y007750D02*
X016810Y007809D01*
X016693Y007809D01*
X016635Y007750D01*
X016635Y007692D01*
X016693Y007633D01*
X016500Y007633D02*
X016267Y007633D01*
X016132Y007750D02*
X016132Y007809D01*
X016132Y007750D02*
X016015Y007633D01*
X016015Y007458D01*
X016015Y007633D02*
X015898Y007750D01*
X015898Y007809D01*
X015763Y007750D02*
X015763Y007692D01*
X015705Y007633D01*
X015530Y007633D01*
X015395Y007633D02*
X015162Y007633D01*
X015027Y007517D02*
X014968Y007458D01*
X014852Y007458D01*
X014793Y007517D01*
X014793Y007750D01*
X014852Y007809D01*
X014968Y007809D01*
X015027Y007750D01*
X014659Y007750D02*
X014600Y007809D01*
X014483Y007809D01*
X014425Y007750D01*
X014425Y007517D01*
X014483Y007458D01*
X014600Y007458D01*
X014659Y007517D01*
X015530Y007458D02*
X015705Y007458D01*
X015763Y007517D01*
X015763Y007575D01*
X015705Y007633D01*
X015763Y007750D02*
X015705Y007809D01*
X015530Y007809D01*
X015530Y007458D01*
X014918Y008658D02*
X014918Y009009D01*
X014743Y008833D01*
X014977Y008833D01*
X014999Y009073D02*
X015078Y009073D01*
X014999Y009073D02*
X014997Y009088D01*
X014993Y009103D01*
X014986Y009117D01*
X014976Y009129D01*
X014964Y009139D01*
X014950Y009146D01*
X014935Y009150D01*
X014920Y009152D01*
X014920Y011514D01*
X014935Y011516D01*
X014950Y011520D01*
X014964Y011527D01*
X014976Y011537D01*
X014986Y011549D01*
X014993Y011563D01*
X014997Y011578D01*
X014999Y011593D01*
X015068Y011593D01*
X014927Y011658D02*
X014693Y011658D01*
X014810Y011658D02*
X014810Y012009D01*
X014693Y011892D01*
X014559Y011950D02*
X014442Y011833D01*
X014442Y011658D01*
X014442Y011833D02*
X014325Y011950D01*
X014325Y012009D01*
X014559Y012009D02*
X014559Y011950D01*
X013874Y011562D02*
X013641Y011562D01*
X013758Y011562D02*
X013758Y011912D01*
X013641Y011795D01*
X013506Y011912D02*
X013506Y011620D01*
X013448Y011562D01*
X013331Y011562D01*
X013273Y011620D01*
X013273Y011912D01*
X013352Y012158D02*
X013468Y012158D01*
X013527Y012217D01*
X013527Y012275D01*
X013468Y012333D01*
X013293Y012333D01*
X013293Y012217D01*
X013352Y012158D01*
X013293Y012333D02*
X013410Y012450D01*
X013527Y012509D01*
X013293Y012808D02*
X013293Y012867D01*
X013527Y013100D01*
X013527Y013159D01*
X013293Y013159D01*
X013159Y013100D02*
X013100Y013159D01*
X012983Y013159D01*
X012925Y013100D01*
X012925Y012867D01*
X012983Y012808D01*
X013100Y012808D01*
X013159Y012867D01*
X013100Y012509D02*
X012983Y012509D01*
X012925Y012450D01*
X012925Y012217D01*
X012983Y012158D01*
X013100Y012158D01*
X013159Y012217D01*
X013159Y012450D02*
X013100Y012509D01*
X011697Y012937D02*
X011638Y012878D01*
X011522Y012878D01*
X011463Y012937D01*
X011580Y013053D02*
X011638Y013053D01*
X011697Y012995D01*
X011697Y012937D01*
X011638Y013053D02*
X011697Y013112D01*
X011697Y013170D01*
X011638Y013229D01*
X011522Y013229D01*
X011463Y013170D01*
X011329Y013170D02*
X011329Y013053D01*
X011270Y012995D01*
X011095Y012995D01*
X011095Y012878D02*
X011095Y013229D01*
X011270Y013229D01*
X011329Y013170D01*
X007788Y014689D02*
X007788Y014923D01*
X010161Y017620D02*
X010219Y017678D01*
X010395Y017678D01*
X010529Y017620D02*
X010588Y017678D01*
X016032Y011593D02*
X016101Y011593D01*
X016103Y011578D01*
X016107Y011563D01*
X016114Y011549D01*
X016124Y011537D01*
X016136Y011527D01*
X016150Y011520D01*
X016165Y011516D01*
X016180Y011514D01*
X014550Y009009D02*
X014433Y009009D01*
X014375Y008950D01*
X014375Y008717D01*
X014433Y008658D01*
X014550Y008658D01*
X014609Y008717D01*
X014609Y008950D02*
X014550Y009009D01*
X013990Y009050D02*
X013990Y008817D01*
X013932Y008758D01*
X013815Y008758D01*
X013757Y008817D01*
X013815Y008933D02*
X013990Y008933D01*
X013990Y009050D02*
X013932Y009109D01*
X013815Y009109D01*
X013757Y009050D01*
X013757Y008992D01*
X013815Y008933D01*
X013622Y008817D02*
X013564Y008758D01*
X013447Y008758D01*
X013388Y008817D01*
X013388Y009050D01*
X013447Y009109D01*
X013564Y009109D01*
X013622Y009050D01*
X012987Y008059D02*
X012870Y008059D01*
X012812Y008000D01*
X012812Y007767D01*
X013045Y008000D01*
X013045Y007767D01*
X012987Y007708D01*
X012870Y007708D01*
X012812Y007767D01*
X012677Y007708D02*
X012443Y007708D01*
X012560Y007708D02*
X012560Y008059D01*
X012443Y007942D01*
X012309Y008000D02*
X012250Y008059D01*
X012133Y008059D01*
X012075Y008000D01*
X012075Y007767D01*
X012133Y007708D01*
X012250Y007708D01*
X012309Y007767D01*
X011747Y007762D02*
X011513Y007528D01*
X011747Y007528D01*
X011747Y007762D02*
X011747Y007820D01*
X011688Y007879D01*
X011572Y007879D01*
X011513Y007820D01*
X011379Y007820D02*
X011320Y007879D01*
X011145Y007879D01*
X011145Y007528D01*
X011145Y007645D02*
X011320Y007645D01*
X011379Y007703D01*
X011379Y007820D01*
X012987Y008059D02*
X013045Y008000D01*
X018319Y007640D02*
X018319Y007344D01*
X020681Y007344D01*
X020681Y007640D01*
X020091Y007738D02*
X020091Y008329D01*
X018909Y008329D01*
X018909Y007738D01*
X020091Y007738D01*
X020681Y008427D02*
X020681Y008722D01*
X018319Y008722D01*
X018319Y008427D01*
X020625Y010522D02*
X020625Y010638D01*
X020683Y010697D01*
X020800Y010638D02*
X020800Y010580D01*
X020683Y010463D02*
X020625Y010522D01*
X020975Y010832D02*
X020741Y011065D01*
X020975Y011065D02*
X020975Y010832D01*
X011638Y024689D02*
X011522Y024689D01*
X011463Y024748D01*
X011580Y024865D02*
X011638Y024865D01*
X011697Y024806D01*
X011697Y024748D01*
X011638Y024689D01*
X011638Y024865D02*
X011697Y024923D01*
X011697Y024981D01*
X011638Y025040D01*
X011522Y025040D01*
X011463Y024981D01*
X011329Y024981D02*
X011329Y024865D01*
X011270Y024806D01*
X011095Y024806D01*
X011095Y024689D02*
X011095Y025040D01*
X011270Y025040D01*
X011329Y024981D01*
X005575Y024419D02*
X005225Y024419D01*
X005000Y024394D02*
X001500Y024394D01*
X002825Y024220D02*
X002825Y023869D01*
X002825Y023986D02*
X003000Y023986D01*
X003059Y024045D01*
X003059Y024161D01*
X003000Y024220D01*
X002825Y024220D01*
X003193Y024220D02*
X003193Y023869D01*
X003310Y023986D01*
X003427Y023869D01*
X003427Y024220D01*
X003562Y024220D02*
X003737Y024220D01*
X003795Y024161D01*
X003795Y024045D01*
X003737Y023986D01*
X003562Y023986D01*
X003678Y023986D02*
X003795Y023869D01*
X003562Y023869D02*
X003562Y024220D01*
D13*
X002500Y006333D02*
X001500Y006333D01*
X001500Y007333D01*
X002500Y007333D01*
X002500Y007083D01*
X002750Y007333D01*
X003250Y007333D01*
X003500Y007083D01*
X003750Y007333D01*
X004250Y007333D01*
X004500Y007083D01*
X004750Y007333D01*
X005250Y007333D01*
X005500Y007083D01*
X005750Y007333D01*
X006250Y007333D01*
X006500Y007083D01*
X006750Y007333D01*
X007250Y007333D01*
X007500Y007083D01*
X007750Y007333D01*
X008250Y007333D01*
X008500Y007083D01*
X008750Y007333D01*
X009250Y007333D01*
X009500Y007083D01*
X009750Y007333D01*
X010250Y007333D01*
X010500Y007083D01*
X010750Y007333D01*
X011250Y007333D01*
X011500Y007083D01*
X011750Y007333D01*
X012250Y007333D01*
X012500Y007083D01*
X012750Y007333D01*
X013250Y007333D01*
X013500Y007083D01*
X013750Y007333D01*
X014250Y007333D01*
X014500Y007083D01*
X014750Y007333D01*
X015250Y007333D01*
X015500Y007083D01*
X015750Y007333D01*
X016250Y007333D01*
X016500Y007083D01*
X016750Y007333D01*
X017250Y007333D01*
X017500Y007083D01*
X017750Y007333D01*
X018250Y007333D01*
X018500Y007083D01*
X018750Y007333D01*
X019250Y007333D01*
X019500Y007083D01*
X019750Y007333D01*
X020250Y007333D01*
X020500Y007083D01*
X020750Y007333D01*
X021250Y007333D01*
X021500Y007083D01*
X021500Y006583D01*
X021250Y006333D01*
X020750Y006333D01*
X020500Y006583D01*
X020250Y006333D01*
X019750Y006333D01*
X019500Y006583D01*
X019250Y006333D01*
X018750Y006333D01*
X018500Y006583D01*
X018250Y006333D01*
X017750Y006333D01*
X017500Y006583D01*
X017250Y006333D01*
X016750Y006333D01*
X016500Y006583D01*
X016250Y006333D01*
X015750Y006333D01*
X015500Y006583D01*
X015250Y006333D01*
X014750Y006333D01*
X014500Y006583D01*
X014250Y006333D01*
X013750Y006333D01*
X013500Y006583D01*
X013250Y006333D01*
X012750Y006333D01*
X012500Y006583D01*
X012250Y006333D01*
X011750Y006333D01*
X011500Y006583D01*
X011250Y006333D01*
X010750Y006333D01*
X010500Y006583D01*
X010250Y006333D01*
X009750Y006333D01*
X009500Y006583D01*
X009250Y006333D01*
X008750Y006333D01*
X008500Y006583D01*
X008250Y006333D01*
X007750Y006333D01*
X007500Y006583D01*
X007250Y006333D01*
X006750Y006333D01*
X006500Y006583D01*
X006250Y006333D01*
X005750Y006333D01*
X005500Y006583D01*
X005250Y006333D01*
X004750Y006333D01*
X004500Y006583D01*
X004250Y006333D01*
X003750Y006333D01*
X003500Y006583D01*
X003250Y006333D01*
X002750Y006333D01*
X002500Y006583D01*
X002500Y006333D01*
X006540Y012064D02*
X006540Y012402D01*
X006994Y012552D02*
X007206Y012552D01*
X007660Y012402D02*
X007660Y012064D01*
X007750Y013333D02*
X007500Y013583D01*
X007250Y013333D01*
X006750Y013333D01*
X006500Y013583D01*
X006250Y013333D01*
X005750Y013333D01*
X005500Y013583D01*
X005250Y013333D01*
X004750Y013333D01*
X004500Y013583D01*
X004250Y013333D01*
X003750Y013333D01*
X003500Y013583D01*
X003250Y013333D01*
X002750Y013333D01*
X002500Y013583D01*
X002500Y013333D01*
X001500Y013333D01*
X001500Y014333D01*
X002500Y014333D01*
X002500Y014083D01*
X002750Y014333D01*
X003250Y014333D01*
X003500Y014083D01*
X003750Y014333D01*
X004250Y014333D01*
X004500Y014083D01*
X004750Y014333D01*
X005250Y014333D01*
X005500Y014083D01*
X005750Y014333D01*
X006250Y014333D01*
X006500Y014083D01*
X006750Y014333D01*
X007250Y014333D01*
X007500Y014083D01*
X007750Y014333D01*
X008250Y014333D01*
X008500Y014083D01*
X008750Y014333D01*
X009250Y014333D01*
X009500Y014083D01*
X009750Y014333D01*
X010250Y014333D01*
X010500Y014083D01*
X010750Y014333D01*
X011250Y014333D01*
X011500Y014083D01*
X011750Y014333D01*
X012250Y014333D01*
X012500Y014083D01*
X012750Y014333D01*
X013250Y014333D01*
X013500Y014083D01*
X013750Y014333D01*
X014250Y014333D01*
X014500Y014083D01*
X014750Y014333D01*
X015250Y014333D01*
X015500Y014083D01*
X015750Y014333D01*
X016250Y014333D01*
X016500Y014083D01*
X016750Y014333D01*
X017250Y014333D01*
X017500Y014083D01*
X017750Y014333D01*
X018250Y014333D01*
X018500Y014083D01*
X018750Y014333D01*
X019250Y014333D01*
X019500Y014083D01*
X019750Y014333D01*
X020250Y014333D01*
X020500Y014083D01*
X020750Y014333D01*
X021250Y014333D01*
X021500Y014083D01*
X021500Y013583D01*
X021250Y013333D01*
X020750Y013333D01*
X020500Y013583D01*
X020250Y013333D01*
X019750Y013333D01*
X019500Y013583D01*
X019250Y013333D01*
X018750Y013333D01*
X018500Y013583D01*
X018250Y013333D01*
X017750Y013333D01*
X017500Y013583D01*
X017250Y013333D01*
X016750Y013333D01*
X016500Y013583D01*
X016250Y013333D01*
X015750Y013333D01*
X015500Y013583D01*
X015250Y013333D01*
X014750Y013333D01*
X014500Y013583D01*
X014250Y013333D01*
X013750Y013333D01*
X013500Y013583D01*
X013250Y013333D01*
X012750Y013333D01*
X012500Y013583D01*
X012250Y013333D01*
X011750Y013333D01*
X011500Y013583D01*
X011250Y013333D01*
X010750Y013333D01*
X010500Y013583D01*
X010250Y013333D01*
X009750Y013333D01*
X009500Y013583D01*
X009250Y013333D01*
X008750Y013333D01*
X008500Y013583D01*
X008250Y013333D01*
X007750Y013333D01*
X009690Y010417D02*
X009690Y010250D01*
X011416Y008524D02*
X011584Y008524D01*
X013310Y010250D02*
X013310Y010417D01*
X014140Y010304D02*
X014140Y010094D01*
X014560Y010094D01*
X014560Y010304D01*
X014490Y010374D01*
X014420Y010374D01*
X014350Y010304D01*
X014350Y010094D01*
X014420Y009914D02*
X014490Y009914D01*
X014560Y009844D01*
X014560Y009704D01*
X014490Y009634D01*
X014350Y009704D02*
X014350Y009844D01*
X014420Y009914D01*
X014210Y009914D02*
X014140Y009844D01*
X014140Y009704D01*
X014210Y009634D01*
X014280Y009634D01*
X014350Y009704D01*
X014490Y009454D02*
X014140Y009454D01*
X014140Y009173D02*
X014490Y009173D01*
X014560Y009243D01*
X014560Y009384D01*
X014490Y009454D01*
X014350Y010304D02*
X014280Y010374D01*
X014210Y010374D01*
X014140Y010304D01*
X014280Y010555D02*
X014490Y010555D01*
X014560Y010625D01*
X014560Y010835D01*
X014280Y010835D01*
X014350Y011015D02*
X014280Y011085D01*
X014280Y011295D01*
X014630Y011295D01*
X014700Y011225D01*
X014700Y011155D01*
X014560Y011085D02*
X014560Y011295D01*
X014560Y011085D02*
X014490Y011015D01*
X014350Y011015D01*
X011584Y012143D02*
X011416Y012143D01*
X011250Y018144D02*
X010750Y018144D01*
X010500Y018394D01*
X010250Y018144D01*
X009750Y018144D01*
X009500Y018394D01*
X009250Y018144D01*
X008750Y018144D01*
X008500Y018394D01*
X008250Y018144D01*
X007750Y018144D01*
X007500Y018394D01*
X007250Y018144D01*
X006750Y018144D01*
X006500Y018394D01*
X006250Y018144D01*
X005750Y018144D01*
X005500Y018394D01*
X005250Y018144D01*
X004750Y018144D01*
X004500Y018394D01*
X004250Y018144D01*
X003750Y018144D01*
X003500Y018394D01*
X003250Y018144D01*
X002750Y018144D01*
X002500Y018394D01*
X002500Y018144D01*
X001500Y018144D01*
X001500Y019144D01*
X002500Y019144D01*
X002500Y018894D01*
X002750Y019144D01*
X003250Y019144D01*
X003500Y018894D01*
X003750Y019144D01*
X004250Y019144D01*
X004500Y018894D01*
X004750Y019144D01*
X005250Y019144D01*
X005500Y018894D01*
X005750Y019144D01*
X006250Y019144D01*
X006500Y018894D01*
X006750Y019144D01*
X007250Y019144D01*
X007500Y018894D01*
X007750Y019144D01*
X008250Y019144D01*
X008500Y018894D01*
X008750Y019144D01*
X009250Y019144D01*
X009500Y018894D01*
X009750Y019144D01*
X010250Y019144D01*
X010500Y018894D01*
X010750Y019144D01*
X011250Y019144D01*
X011500Y018894D01*
X011750Y019144D01*
X012250Y019144D01*
X012500Y018894D01*
X012750Y019144D01*
X013250Y019144D01*
X013500Y018894D01*
X013750Y019144D01*
X014250Y019144D01*
X014500Y018894D01*
X014750Y019144D01*
X015250Y019144D01*
X015500Y018894D01*
X015750Y019144D01*
X016250Y019144D01*
X016500Y018894D01*
X016750Y019144D01*
X017250Y019144D01*
X017500Y018894D01*
X017750Y019144D01*
X018250Y019144D01*
X018500Y018894D01*
X018750Y019144D01*
X019250Y019144D01*
X019500Y018894D01*
X019750Y019144D01*
X020250Y019144D01*
X020500Y018894D01*
X020750Y019144D01*
X021250Y019144D01*
X021500Y018894D01*
X021500Y018394D01*
X021250Y018144D01*
X020750Y018144D01*
X020500Y018394D01*
X020250Y018144D01*
X019750Y018144D01*
X019500Y018394D01*
X019250Y018144D01*
X018750Y018144D01*
X018500Y018394D01*
X018250Y018144D01*
X017750Y018144D01*
X017500Y018394D01*
X017250Y018144D01*
X016750Y018144D01*
X016500Y018394D01*
X016250Y018144D01*
X015750Y018144D01*
X015500Y018394D01*
X015250Y018144D01*
X014750Y018144D01*
X014500Y018394D01*
X014250Y018144D01*
X013750Y018144D01*
X013500Y018394D01*
X013250Y018144D01*
X012750Y018144D01*
X012500Y018394D01*
X012250Y018144D01*
X011750Y018144D01*
X011500Y018394D01*
X011250Y018144D01*
X011416Y020335D02*
X011584Y020335D01*
X013310Y022061D02*
X013310Y022228D01*
X014140Y022115D02*
X014140Y021905D01*
X014560Y021905D01*
X014560Y022115D01*
X014490Y022185D01*
X014420Y022185D01*
X014350Y022115D01*
X014350Y021905D01*
X014420Y021725D02*
X014490Y021725D01*
X014560Y021655D01*
X014560Y021515D01*
X014490Y021445D01*
X014350Y021515D02*
X014350Y021655D01*
X014420Y021725D01*
X014210Y021725D02*
X014140Y021655D01*
X014140Y021515D01*
X014210Y021445D01*
X014280Y021445D01*
X014350Y021515D01*
X014490Y021265D02*
X014140Y021265D01*
X014140Y020984D02*
X014490Y020984D01*
X014560Y021054D01*
X014560Y021195D01*
X014490Y021265D01*
X014350Y022115D02*
X014280Y022185D01*
X014210Y022185D01*
X014140Y022115D01*
X014280Y022366D02*
X014490Y022366D01*
X014560Y022436D01*
X014560Y022646D01*
X014280Y022646D01*
X014350Y022826D02*
X014280Y022896D01*
X014280Y023106D01*
X014630Y023106D01*
X014700Y023036D01*
X014700Y022966D01*
X014560Y022896D02*
X014490Y022826D01*
X014350Y022826D01*
X014560Y022896D02*
X014560Y023106D01*
X014750Y025144D02*
X015250Y025144D01*
X015500Y025394D01*
X015750Y025144D01*
X016250Y025144D01*
X016500Y025394D01*
X016750Y025144D01*
X017250Y025144D01*
X017500Y025394D01*
X017750Y025144D01*
X018250Y025144D01*
X018500Y025394D01*
X018750Y025144D01*
X019250Y025144D01*
X019500Y025394D01*
X019750Y025144D01*
X020250Y025144D01*
X020500Y025394D01*
X020750Y025144D01*
X021250Y025144D01*
X021500Y025394D01*
X021500Y025894D01*
X021250Y026144D01*
X020750Y026144D01*
X020500Y025894D01*
X020250Y026144D01*
X019750Y026144D01*
X019500Y025894D01*
X019250Y026144D01*
X018750Y026144D01*
X018500Y025894D01*
X018250Y026144D01*
X017750Y026144D01*
X017500Y025894D01*
X017250Y026144D01*
X016750Y026144D01*
X016500Y025894D01*
X016250Y026144D01*
X015750Y026144D01*
X015500Y025894D01*
X015250Y026144D01*
X014750Y026144D01*
X014500Y025894D01*
X014250Y026144D01*
X013750Y026144D01*
X013500Y025894D01*
X013250Y026144D01*
X012750Y026144D01*
X012500Y025894D01*
X012250Y026144D01*
X011750Y026144D01*
X011500Y025894D01*
X011250Y026144D01*
X010750Y026144D01*
X010500Y025894D01*
X010250Y026144D01*
X009750Y026144D01*
X009500Y025894D01*
X009250Y026144D01*
X008750Y026144D01*
X008500Y025894D01*
X008250Y026144D01*
X007750Y026144D01*
X007500Y025894D01*
X007250Y026144D01*
X006750Y026144D01*
X006500Y025894D01*
X006250Y026144D01*
X005750Y026144D01*
X005500Y025894D01*
X005250Y026144D01*
X004750Y026144D01*
X004500Y025894D01*
X004250Y026144D01*
X003750Y026144D01*
X003500Y025894D01*
X003250Y026144D01*
X002750Y026144D01*
X002500Y025894D01*
X002500Y026144D01*
X001500Y026144D01*
X001500Y025144D01*
X002500Y025144D01*
X002500Y025394D01*
X002750Y025144D01*
X003250Y025144D01*
X003500Y025394D01*
X003750Y025144D01*
X004250Y025144D01*
X004500Y025394D01*
X004750Y025144D01*
X005250Y025144D01*
X005500Y025394D01*
X005750Y025144D01*
X006250Y025144D01*
X006500Y025394D01*
X006750Y025144D01*
X007250Y025144D01*
X007500Y025394D01*
X007750Y025144D01*
X008250Y025144D01*
X008500Y025394D01*
X008750Y025144D01*
X009250Y025144D01*
X009500Y025394D01*
X009750Y025144D01*
X010250Y025144D01*
X010500Y025394D01*
X010750Y025144D01*
X011250Y025144D01*
X011500Y025394D01*
X011750Y025144D01*
X012250Y025144D01*
X012500Y025394D01*
X012750Y025144D01*
X013250Y025144D01*
X013500Y025394D01*
X013750Y025144D01*
X014250Y025144D01*
X014500Y025394D01*
X014750Y025144D01*
X011584Y023954D02*
X011416Y023954D01*
X009690Y022228D02*
X009690Y022061D01*
X007660Y023875D02*
X007660Y024213D01*
X007206Y024363D02*
X006994Y024363D01*
X006540Y024213D02*
X006540Y023875D01*
D14*
X009374Y016570D02*
X009374Y015388D01*
X013311Y015388D01*
X013311Y016570D01*
X009374Y016570D01*
D15*
X009823Y016288D02*
X010048Y016288D01*
X010123Y016212D01*
X010123Y015912D01*
X010048Y015837D01*
X009823Y015837D01*
X009823Y016288D01*
X010338Y016062D02*
X010639Y016062D01*
X010564Y015837D02*
X010564Y016288D01*
X010338Y016062D01*
X010854Y015912D02*
X010929Y015837D01*
X011079Y015837D01*
X011154Y015912D01*
X011154Y015987D01*
X011079Y016062D01*
X011004Y016062D01*
X011079Y016062D02*
X011154Y016137D01*
X011154Y016212D01*
X011079Y016288D01*
X010929Y016288D01*
X010854Y016212D01*
X011370Y016212D02*
X011445Y016288D01*
X011595Y016288D01*
X011670Y016212D01*
X011670Y016137D01*
X011595Y016062D01*
X011670Y015987D01*
X011670Y015912D01*
X011595Y015837D01*
X011445Y015837D01*
X011370Y015912D01*
X011520Y016062D02*
X011595Y016062D01*
X011885Y016212D02*
X011960Y016288D01*
X012110Y016288D01*
X012186Y016212D01*
X012186Y016137D01*
X011885Y015837D01*
X012186Y015837D01*
X012401Y016062D02*
X012701Y016062D01*
X012626Y015837D02*
X012626Y016288D01*
X012401Y016062D01*
D16*
X008300Y020134D03*
X002461Y019544D03*
X002461Y024744D03*
X002461Y012933D03*
X002461Y007733D03*
X008300Y008323D03*
D17*
X009944Y008690D02*
X009944Y008705D01*
X009941Y008719D01*
X009935Y008733D01*
X009945Y008691D02*
X009941Y008642D01*
X010039Y008571D02*
X010086Y008596D01*
X010100Y008603D01*
X010115Y008606D01*
X010130Y008608D01*
X010145Y008607D01*
X015550Y009933D02*
X015550Y010083D01*
X015550Y010583D02*
X015550Y010733D01*
X010145Y020418D02*
X010130Y020419D01*
X010115Y020417D01*
X010100Y020414D01*
X010086Y020407D01*
X010039Y020382D01*
X009941Y020453D02*
X009945Y020502D01*
X009944Y020501D02*
X009944Y020516D01*
X009941Y020530D01*
X009935Y020544D01*
X015550Y021744D02*
X015550Y021894D01*
X015550Y022394D02*
X015550Y022544D01*
D18*
X013828Y022449D02*
X013830Y022461D01*
X013835Y022472D01*
X013844Y022481D01*
X013855Y022486D01*
X013867Y022488D01*
X013879Y022486D01*
X013890Y022481D01*
X013899Y022472D01*
X013904Y022461D01*
X013906Y022449D01*
X013904Y022437D01*
X013899Y022426D01*
X013890Y022417D01*
X013879Y022412D01*
X013867Y022410D01*
X013855Y022412D01*
X013844Y022417D01*
X013835Y022426D01*
X013830Y022437D01*
X013828Y022449D01*
X013828Y010638D02*
X013830Y010650D01*
X013835Y010661D01*
X013844Y010670D01*
X013855Y010675D01*
X013867Y010677D01*
X013879Y010675D01*
X013890Y010670D01*
X013899Y010661D01*
X013904Y010650D01*
X013906Y010638D01*
X013904Y010626D01*
X013899Y010615D01*
X013890Y010606D01*
X013879Y010601D01*
X013867Y010599D01*
X013855Y010601D01*
X013844Y010606D01*
X013835Y010615D01*
X013830Y010626D01*
X013828Y010638D01*
D19*
X010115Y007628D02*
X010022Y007628D01*
X010022Y007627D02*
X010113Y007627D01*
X010111Y007626D02*
X010022Y007626D01*
X010022Y007625D02*
X010109Y007625D01*
X010107Y007624D02*
X010022Y007624D01*
X010022Y007623D02*
X010105Y007623D01*
X010103Y007622D02*
X010022Y007622D01*
X010022Y007621D02*
X010101Y007621D01*
X010099Y007620D02*
X010022Y007620D01*
X010022Y007619D02*
X010097Y007619D01*
X010095Y007618D02*
X010022Y007618D01*
X010022Y007617D02*
X010093Y007617D01*
X010091Y007616D02*
X010022Y007616D01*
X010022Y007615D02*
X010089Y007615D01*
X010087Y007614D02*
X010022Y007614D01*
X010022Y007613D02*
X010085Y007613D01*
X010083Y007612D02*
X010022Y007612D01*
X010022Y007611D02*
X010081Y007611D01*
X010079Y007610D02*
X010022Y007610D01*
X010022Y007609D02*
X010077Y007609D01*
X010075Y007608D02*
X010022Y007608D01*
X010022Y007607D02*
X010073Y007607D01*
X010071Y007606D02*
X010022Y007606D01*
X010022Y007605D02*
X010069Y007605D01*
X010067Y007604D02*
X010022Y007604D01*
X010022Y007603D02*
X010065Y007603D01*
X010063Y007602D02*
X010022Y007602D01*
X010022Y007601D02*
X010061Y007601D01*
X010059Y007600D02*
X010022Y007600D01*
X010022Y007599D02*
X010057Y007599D01*
X010055Y007598D02*
X010022Y007598D01*
X010022Y007597D02*
X010053Y007597D01*
X010051Y007596D02*
X010022Y007596D01*
X010022Y007595D02*
X010049Y007595D01*
X010047Y007594D02*
X010022Y007594D01*
X010022Y007593D02*
X010045Y007593D01*
X010043Y007592D02*
X010022Y007592D01*
X010022Y007591D02*
X010041Y007591D01*
X010039Y007590D02*
X010022Y007590D01*
X010022Y007589D02*
X010038Y007589D01*
X010036Y007588D02*
X010022Y007588D01*
X010022Y007587D02*
X010034Y007587D01*
X010032Y007586D02*
X010022Y007586D01*
X010022Y007585D02*
X010030Y007585D01*
X010028Y007584D02*
X010022Y007584D01*
X010022Y007583D02*
X010026Y007583D01*
X010024Y007582D02*
X010022Y007582D01*
X010022Y007629D02*
X010113Y007629D01*
X010111Y007630D02*
X010022Y007630D01*
X010022Y007631D02*
X010109Y007631D01*
X010107Y007632D02*
X010022Y007632D01*
X010022Y007633D02*
X010105Y007633D01*
X010103Y007634D02*
X010022Y007634D01*
X010022Y007635D02*
X010101Y007635D01*
X010099Y007636D02*
X010022Y007636D01*
X010022Y007637D02*
X010097Y007637D01*
X010095Y007638D02*
X010022Y007638D01*
X010022Y007639D02*
X010093Y007639D01*
X010091Y007640D02*
X010022Y007640D01*
X010022Y007641D02*
X010089Y007641D01*
X010087Y007642D02*
X010022Y007642D01*
X010022Y007643D02*
X010085Y007643D01*
X010083Y007644D02*
X010022Y007644D01*
X010022Y007645D02*
X010081Y007645D01*
X010079Y007646D02*
X010022Y007646D01*
X010022Y007647D02*
X010077Y007647D01*
X010075Y007648D02*
X010022Y007648D01*
X010022Y007649D02*
X010073Y007649D01*
X010071Y007650D02*
X010022Y007650D01*
X010022Y007651D02*
X010069Y007651D01*
X010067Y007652D02*
X010022Y007652D01*
X010022Y007653D02*
X010065Y007653D01*
X010063Y007654D02*
X010022Y007654D01*
X010022Y007655D02*
X010061Y007655D01*
X010059Y007656D02*
X010022Y007656D01*
X010022Y007657D02*
X010057Y007657D01*
X010054Y007658D02*
X010022Y007658D01*
X010022Y007659D02*
X010052Y007659D01*
X010050Y007660D02*
X010022Y007660D01*
X010022Y007661D02*
X010048Y007661D01*
X010046Y007662D02*
X010022Y007662D01*
X010022Y007663D02*
X010044Y007663D01*
X010042Y007664D02*
X010022Y007664D01*
X010022Y007665D02*
X010040Y007665D01*
X010038Y007666D02*
X010022Y007666D01*
X010022Y007667D02*
X010036Y007667D01*
X010034Y007668D02*
X010022Y007668D01*
X010022Y007669D02*
X010032Y007669D01*
X010030Y007670D02*
X010022Y007670D01*
X010022Y007671D02*
X010028Y007671D01*
X010026Y007672D02*
X010022Y007672D01*
X010022Y007673D02*
X010024Y007673D01*
X009843Y008005D02*
X009512Y008005D01*
X009511Y008006D02*
X009845Y008006D01*
X009847Y008007D02*
X009510Y008007D01*
X009509Y008008D02*
X009848Y008008D01*
X009850Y008009D02*
X009507Y008009D01*
X009506Y008010D02*
X009852Y008010D01*
X009854Y008011D02*
X009505Y008011D01*
X009504Y008012D02*
X009856Y008012D01*
X009857Y008013D02*
X009504Y008013D01*
X009505Y008014D02*
X009859Y008014D01*
X009861Y008015D02*
X009505Y008015D01*
X009505Y008016D02*
X009863Y008016D01*
X009864Y008017D02*
X009505Y008017D01*
X009505Y008018D02*
X009866Y008018D01*
X009867Y008019D02*
X009506Y008019D01*
X009506Y008020D02*
X009868Y008020D01*
X009870Y008021D02*
X009506Y008021D01*
X009506Y008022D02*
X009871Y008022D01*
X009872Y008023D02*
X009506Y008023D01*
X009506Y008024D02*
X009874Y008024D01*
X009875Y008025D02*
X009506Y008025D01*
X009506Y008026D02*
X009876Y008026D01*
X009878Y008027D02*
X009506Y008027D01*
X009506Y008028D02*
X009879Y008028D01*
X009880Y008029D02*
X009506Y008029D01*
X009506Y008030D02*
X009882Y008030D01*
X009883Y008031D02*
X009506Y008031D01*
X009506Y008032D02*
X009884Y008032D01*
X009886Y008033D02*
X009506Y008033D01*
X009506Y008034D02*
X009887Y008034D01*
X009888Y008035D02*
X009506Y008035D01*
X009506Y008036D02*
X009890Y008036D01*
X009891Y008037D02*
X009506Y008037D01*
X009506Y008038D02*
X009893Y008038D01*
X009894Y008039D02*
X009506Y008039D01*
X009506Y008040D02*
X009895Y008040D01*
X009897Y008041D02*
X009506Y008041D01*
X009506Y008042D02*
X009898Y008042D01*
X009899Y008043D02*
X009507Y008043D01*
X009507Y008044D02*
X009901Y008044D01*
X009902Y008045D02*
X009507Y008045D01*
X009507Y008046D02*
X009903Y008046D01*
X009905Y008047D02*
X009507Y008047D01*
X009507Y008048D02*
X009906Y008048D01*
X009907Y008049D02*
X009507Y008049D01*
X009507Y008050D02*
X009909Y008050D01*
X009910Y008051D02*
X009507Y008051D01*
X009507Y008052D02*
X009911Y008052D01*
X009912Y008053D02*
X009507Y008053D01*
X009507Y008054D02*
X009913Y008054D01*
X009914Y008055D02*
X009507Y008055D01*
X009507Y008056D02*
X009914Y008056D01*
X009915Y008057D02*
X009507Y008057D01*
X009507Y008058D02*
X009916Y008058D01*
X009917Y008059D02*
X009507Y008059D01*
X009507Y008060D02*
X009918Y008060D01*
X009919Y008061D02*
X009508Y008061D01*
X009508Y008062D02*
X009919Y008062D01*
X009920Y008063D02*
X009508Y008063D01*
X009508Y008064D02*
X009921Y008064D01*
X009922Y008065D02*
X009508Y008065D01*
X009508Y008066D02*
X009923Y008066D01*
X009924Y008067D02*
X009508Y008067D01*
X009508Y008068D02*
X009924Y008068D01*
X009925Y008069D02*
X009508Y008069D01*
X009508Y008070D02*
X009926Y008070D01*
X009927Y008071D02*
X009509Y008071D01*
X009509Y008072D02*
X009928Y008072D01*
X009929Y008073D02*
X009509Y008073D01*
X009509Y008074D02*
X009929Y008074D01*
X009930Y008075D02*
X009509Y008075D01*
X009509Y008076D02*
X009931Y008076D01*
X009932Y008077D02*
X009509Y008077D01*
X009509Y008078D02*
X009933Y008078D01*
X009934Y008079D02*
X009509Y008079D01*
X009509Y008080D02*
X009934Y008080D01*
X009935Y008081D02*
X009510Y008081D01*
X009510Y008082D02*
X009936Y008082D01*
X009937Y008083D02*
X009510Y008083D01*
X009510Y008084D02*
X009938Y008084D01*
X009939Y008085D02*
X009510Y008085D01*
X009510Y008086D02*
X009939Y008086D01*
X009940Y008087D02*
X009510Y008087D01*
X009510Y008088D02*
X009941Y008088D01*
X009942Y008089D02*
X009510Y008089D01*
X009511Y008090D02*
X009943Y008090D01*
X009944Y008091D02*
X009511Y008091D01*
X009511Y008092D02*
X009944Y008092D01*
X009945Y008093D02*
X009511Y008093D01*
X009511Y008094D02*
X009946Y008094D01*
X009947Y008095D02*
X009511Y008095D01*
X009511Y008096D02*
X009948Y008096D01*
X009949Y008097D02*
X009511Y008097D01*
X009511Y008098D02*
X009949Y008098D01*
X009950Y008099D02*
X009511Y008099D01*
X009512Y008100D02*
X009951Y008100D01*
X009952Y008101D02*
X009512Y008101D01*
X009512Y008102D02*
X009953Y008102D01*
X009954Y008103D02*
X009512Y008103D01*
X009512Y008104D02*
X009954Y008104D01*
X009955Y008105D02*
X009512Y008105D01*
X009512Y008106D02*
X009956Y008106D01*
X009957Y008107D02*
X009512Y008107D01*
X009512Y008108D02*
X009957Y008108D01*
X009958Y008109D02*
X009513Y008109D01*
X009513Y008110D02*
X009958Y008110D01*
X009959Y008111D02*
X009513Y008111D01*
X009513Y008112D02*
X009960Y008112D01*
X009960Y008113D02*
X009513Y008113D01*
X009513Y008114D02*
X009961Y008114D01*
X009962Y008115D02*
X009514Y008115D01*
X009514Y008116D02*
X009962Y008116D01*
X009963Y008117D02*
X009514Y008117D01*
X009514Y008118D02*
X009964Y008118D01*
X009964Y008119D02*
X009514Y008119D01*
X009515Y008120D02*
X009965Y008120D01*
X009965Y008121D02*
X009515Y008121D01*
X009515Y008122D02*
X009966Y008122D01*
X009967Y008123D02*
X009515Y008123D01*
X009515Y008124D02*
X009967Y008124D01*
X009968Y008125D02*
X009516Y008125D01*
X009516Y008126D02*
X009969Y008126D01*
X009969Y008127D02*
X009516Y008127D01*
X009516Y008128D02*
X009970Y008128D01*
X009971Y008129D02*
X009516Y008129D01*
X009517Y008130D02*
X009971Y008130D01*
X009972Y008131D02*
X009517Y008131D01*
X009517Y008132D02*
X009972Y008132D01*
X009973Y008133D02*
X009517Y008133D01*
X009517Y008134D02*
X009974Y008134D01*
X009974Y008135D02*
X009518Y008135D01*
X009518Y008136D02*
X009975Y008136D01*
X009976Y008137D02*
X009518Y008137D01*
X009518Y008138D02*
X009976Y008138D01*
X009977Y008139D02*
X009518Y008139D01*
X009519Y008140D02*
X009977Y008140D01*
X009978Y008141D02*
X009519Y008141D01*
X009519Y008142D02*
X009979Y008142D01*
X009979Y008143D02*
X009519Y008143D01*
X009519Y008144D02*
X009980Y008144D01*
X009981Y008145D02*
X009519Y008145D01*
X009520Y008146D02*
X009981Y008146D01*
X009982Y008147D02*
X009520Y008147D01*
X009520Y008148D02*
X009983Y008148D01*
X009983Y008149D02*
X009520Y008149D01*
X009520Y008150D02*
X009984Y008150D01*
X009984Y008151D02*
X009521Y008151D01*
X009521Y008152D02*
X009985Y008152D01*
X009986Y008153D02*
X009521Y008153D01*
X009521Y008154D02*
X009986Y008154D01*
X009987Y008155D02*
X009521Y008155D01*
X009522Y008156D02*
X009988Y008156D01*
X009988Y008157D02*
X009522Y008157D01*
X009522Y008158D02*
X009989Y008158D01*
X009990Y008159D02*
X009522Y008159D01*
X009522Y008160D02*
X009990Y008160D01*
X009991Y008161D02*
X009523Y008161D01*
X009523Y008162D02*
X009991Y008162D01*
X009992Y008163D02*
X009523Y008163D01*
X009523Y008164D02*
X009993Y008164D01*
X009993Y008165D02*
X009523Y008165D01*
X009524Y008166D02*
X009994Y008166D01*
X009995Y008167D02*
X009524Y008167D01*
X009524Y008168D02*
X009995Y008168D01*
X009996Y008169D02*
X009525Y008169D01*
X009525Y008170D02*
X009996Y008170D01*
X009997Y008171D02*
X009525Y008171D01*
X009526Y008172D02*
X009998Y008172D01*
X009998Y008173D02*
X009526Y008173D01*
X009526Y008174D02*
X009999Y008174D01*
X010000Y008175D02*
X009527Y008175D01*
X009527Y008176D02*
X010000Y008176D01*
X010001Y008177D02*
X009527Y008177D01*
X009527Y008178D02*
X010002Y008178D01*
X010002Y008179D02*
X009528Y008179D01*
X009528Y008180D02*
X010002Y008180D01*
X010003Y008181D02*
X009528Y008181D01*
X009529Y008182D02*
X010003Y008182D01*
X010003Y008183D02*
X009529Y008183D01*
X009529Y008184D02*
X010004Y008184D01*
X010004Y008185D02*
X009530Y008185D01*
X009530Y008186D02*
X010004Y008186D01*
X010005Y008187D02*
X009530Y008187D01*
X009531Y008188D02*
X010005Y008188D01*
X010006Y008189D02*
X009531Y008189D01*
X009531Y008190D02*
X010006Y008190D01*
X010006Y008191D02*
X009532Y008191D01*
X009532Y008192D02*
X010007Y008192D01*
X010007Y008193D02*
X009532Y008193D01*
X009532Y008194D02*
X010007Y008194D01*
X010008Y008194D02*
X009533Y008194D01*
X009533Y008195D02*
X010008Y008195D01*
X010008Y008196D02*
X009533Y008196D01*
X009534Y008197D02*
X010009Y008197D01*
X010009Y008198D02*
X009534Y008198D01*
X009534Y008199D02*
X010009Y008199D01*
X010010Y008200D02*
X009535Y008200D01*
X009535Y008201D02*
X010010Y008201D01*
X010010Y008202D02*
X009535Y008202D01*
X009536Y008203D02*
X010011Y008203D01*
X010011Y008204D02*
X009536Y008204D01*
X009536Y008205D02*
X010011Y008205D01*
X010012Y008206D02*
X009536Y008206D01*
X009537Y008207D02*
X010012Y008207D01*
X010012Y008208D02*
X009537Y008208D01*
X009537Y008209D02*
X010013Y008209D01*
X010013Y008210D02*
X009538Y008210D01*
X009538Y008211D02*
X010014Y008211D01*
X010014Y008212D02*
X009538Y008212D01*
X009539Y008213D02*
X010014Y008213D01*
X010015Y008214D02*
X009539Y008214D01*
X009539Y008215D02*
X010015Y008215D01*
X010015Y008216D02*
X009540Y008216D01*
X009540Y008217D02*
X010016Y008217D01*
X010016Y008218D02*
X009540Y008218D01*
X009541Y008219D02*
X010016Y008219D01*
X010017Y008220D02*
X009541Y008220D01*
X009541Y008221D02*
X010017Y008221D01*
X010017Y008222D02*
X009541Y008222D01*
X009542Y008223D02*
X010018Y008223D01*
X010018Y008224D02*
X009542Y008224D01*
X009542Y008225D02*
X010018Y008225D01*
X010019Y008226D02*
X009543Y008226D01*
X009543Y008227D02*
X010019Y008227D01*
X010019Y008228D02*
X009543Y008228D01*
X009544Y008229D02*
X010020Y008229D01*
X010020Y008230D02*
X009544Y008230D01*
X009544Y008231D02*
X010020Y008231D01*
X010021Y008232D02*
X009545Y008232D01*
X009545Y008233D02*
X010021Y008233D01*
X010022Y008234D02*
X009545Y008234D01*
X009546Y008235D02*
X010022Y008235D01*
X010022Y008236D02*
X009546Y008236D01*
X009546Y008237D02*
X010023Y008237D01*
X010023Y008238D02*
X009546Y008238D01*
X009547Y008239D02*
X010023Y008239D01*
X010024Y008240D02*
X009547Y008240D01*
X009547Y008241D02*
X010024Y008241D01*
X010024Y008242D02*
X009548Y008242D01*
X009548Y008243D02*
X010025Y008243D01*
X010025Y008244D02*
X009548Y008244D01*
X009549Y008245D02*
X010025Y008245D01*
X010026Y008246D02*
X009549Y008246D01*
X009550Y008247D02*
X010026Y008247D01*
X010026Y008248D02*
X009550Y008248D01*
X009551Y008249D02*
X010027Y008249D01*
X010027Y008250D02*
X009551Y008250D01*
X009552Y008251D02*
X010027Y008251D01*
X010028Y008252D02*
X009552Y008252D01*
X009553Y008253D02*
X010028Y008253D01*
X010029Y008254D02*
X009553Y008254D01*
X009554Y008255D02*
X010029Y008255D01*
X010029Y008256D02*
X009554Y008256D01*
X009555Y008257D02*
X010029Y008257D01*
X010029Y008258D02*
X009555Y008258D01*
X009556Y008259D02*
X010029Y008259D01*
X010029Y008260D02*
X009556Y008260D01*
X009557Y008261D02*
X010029Y008261D01*
X010029Y008262D02*
X009557Y008262D01*
X009558Y008263D02*
X010029Y008263D01*
X010029Y008264D02*
X009558Y008264D01*
X009559Y008265D02*
X010029Y008265D01*
X010029Y008266D02*
X009559Y008266D01*
X009560Y008267D02*
X010029Y008267D01*
X010029Y008268D02*
X009560Y008268D01*
X009561Y008269D02*
X010030Y008269D01*
X010030Y008270D02*
X009561Y008270D01*
X009562Y008271D02*
X010030Y008271D01*
X010030Y008272D02*
X009562Y008272D01*
X009563Y008273D02*
X010030Y008273D01*
X010030Y008274D02*
X009563Y008274D01*
X009564Y008275D02*
X010030Y008275D01*
X010030Y008276D02*
X009564Y008276D01*
X009565Y008277D02*
X010030Y008277D01*
X010030Y008278D02*
X009565Y008278D01*
X009566Y008279D02*
X010030Y008279D01*
X010030Y008280D02*
X009566Y008280D01*
X009567Y008281D02*
X010030Y008281D01*
X010030Y008282D02*
X009567Y008282D01*
X009568Y008283D02*
X010030Y008283D01*
X010030Y008284D02*
X009568Y008284D01*
X009569Y008285D02*
X010031Y008285D01*
X010031Y008286D02*
X009569Y008286D01*
X009570Y008287D02*
X010031Y008287D01*
X010031Y008288D02*
X009570Y008288D01*
X009571Y008289D02*
X010031Y008289D01*
X010031Y008290D02*
X009571Y008290D01*
X009572Y008291D02*
X010031Y008291D01*
X010031Y008292D02*
X009572Y008292D01*
X009573Y008293D02*
X010031Y008293D01*
X010031Y008294D02*
X009573Y008294D01*
X009574Y008295D02*
X010031Y008295D01*
X010031Y008296D02*
X009574Y008296D01*
X009575Y008297D02*
X010031Y008297D01*
X010031Y008298D02*
X009575Y008298D01*
X009576Y008299D02*
X010031Y008299D01*
X010031Y008300D02*
X009576Y008300D01*
X009577Y008301D02*
X010032Y008301D01*
X010032Y008302D02*
X009577Y008302D01*
X009578Y008303D02*
X010032Y008303D01*
X010032Y008304D02*
X009578Y008304D01*
X009579Y008305D02*
X010032Y008305D01*
X010032Y008306D02*
X009579Y008306D01*
X009580Y008307D02*
X010032Y008307D01*
X010032Y008308D02*
X009580Y008308D01*
X009581Y008309D02*
X010032Y008309D01*
X010032Y008310D02*
X009581Y008310D01*
X009582Y008311D02*
X010032Y008311D01*
X010032Y008312D02*
X009582Y008312D01*
X009583Y008313D02*
X010032Y008313D01*
X010032Y008314D02*
X009583Y008314D01*
X009584Y008315D02*
X010032Y008315D01*
X010032Y008316D02*
X009585Y008316D01*
X009585Y008317D02*
X010033Y008317D01*
X010033Y008318D02*
X009586Y008318D01*
X009587Y008319D02*
X010033Y008319D01*
X010033Y008320D02*
X009587Y008320D01*
X009588Y008321D02*
X010033Y008321D01*
X010033Y008322D02*
X009589Y008322D01*
X009589Y008323D02*
X010033Y008323D01*
X010033Y008324D02*
X009590Y008324D01*
X009590Y008325D02*
X010033Y008325D01*
X010033Y008326D02*
X009591Y008326D01*
X009592Y008327D02*
X010033Y008327D01*
X010033Y008328D02*
X009592Y008328D01*
X009593Y008329D02*
X010033Y008329D01*
X010033Y008330D02*
X009594Y008330D01*
X009594Y008331D02*
X010033Y008331D01*
X010033Y008332D02*
X009595Y008332D01*
X009596Y008333D02*
X010034Y008333D01*
X010034Y008334D02*
X009596Y008334D01*
X009597Y008335D02*
X010034Y008335D01*
X010034Y008336D02*
X009598Y008336D01*
X009598Y008337D02*
X010034Y008337D01*
X010034Y008338D02*
X009599Y008338D01*
X009600Y008339D02*
X010034Y008339D01*
X010034Y008340D02*
X009600Y008340D01*
X009601Y008341D02*
X010034Y008341D01*
X010034Y008342D02*
X009602Y008342D01*
X009602Y008343D02*
X010033Y008343D01*
X010033Y008344D02*
X009603Y008344D01*
X009604Y008345D02*
X010033Y008345D01*
X010033Y008346D02*
X009604Y008346D01*
X009605Y008347D02*
X010033Y008347D01*
X010033Y008348D02*
X009606Y008348D01*
X009606Y008349D02*
X010032Y008349D01*
X010032Y008350D02*
X009607Y008350D01*
X009608Y008351D02*
X010032Y008351D01*
X010032Y008352D02*
X009608Y008352D01*
X009609Y008353D02*
X010032Y008353D01*
X010031Y008354D02*
X009610Y008354D01*
X009610Y008355D02*
X010031Y008355D01*
X010031Y008356D02*
X009611Y008356D01*
X009612Y008357D02*
X010031Y008357D01*
X010031Y008358D02*
X009612Y008358D01*
X009613Y008359D02*
X010031Y008359D01*
X010030Y008360D02*
X009614Y008360D01*
X009614Y008361D02*
X010030Y008361D01*
X010030Y008362D02*
X009615Y008362D01*
X009616Y008363D02*
X010030Y008363D01*
X010030Y008364D02*
X009616Y008364D01*
X009617Y008365D02*
X010029Y008365D01*
X010029Y008366D02*
X009618Y008366D01*
X009618Y008367D02*
X010029Y008367D01*
X010029Y008368D02*
X009619Y008368D01*
X009620Y008369D02*
X010029Y008369D01*
X010029Y008370D02*
X009620Y008370D01*
X009621Y008371D02*
X010028Y008371D01*
X010028Y008372D02*
X009622Y008372D01*
X009622Y008373D02*
X010028Y008373D01*
X010028Y008374D02*
X009623Y008374D01*
X009624Y008375D02*
X010028Y008375D01*
X010027Y008376D02*
X009624Y008376D01*
X009625Y008377D02*
X010027Y008377D01*
X010027Y008378D02*
X009626Y008378D01*
X009626Y008379D02*
X010027Y008379D01*
X010027Y008380D02*
X009627Y008380D01*
X009628Y008381D02*
X010027Y008381D01*
X010026Y008382D02*
X009629Y008382D01*
X009630Y008383D02*
X010026Y008383D01*
X010026Y008384D02*
X009631Y008384D01*
X009632Y008385D02*
X010026Y008385D01*
X010026Y008386D02*
X009632Y008386D01*
X009633Y008387D02*
X010025Y008387D01*
X010025Y008388D02*
X009634Y008388D01*
X009635Y008389D02*
X010025Y008389D01*
X010025Y008390D02*
X009636Y008390D01*
X009637Y008391D02*
X010025Y008391D01*
X010025Y008392D02*
X009638Y008392D01*
X009638Y008393D02*
X010024Y008393D01*
X010024Y008394D02*
X009639Y008394D01*
X009640Y008395D02*
X010024Y008395D01*
X010024Y008396D02*
X009641Y008396D01*
X009642Y008397D02*
X010024Y008397D01*
X010023Y008398D02*
X009643Y008398D01*
X009644Y008399D02*
X010023Y008399D01*
X010023Y008400D02*
X009645Y008400D01*
X009645Y008401D02*
X010023Y008401D01*
X010023Y008402D02*
X009646Y008402D01*
X009647Y008403D02*
X010023Y008403D01*
X010022Y008404D02*
X009648Y008404D01*
X009649Y008405D02*
X010022Y008405D01*
X010022Y008406D02*
X009650Y008406D01*
X009651Y008407D02*
X010022Y008407D01*
X010022Y008408D02*
X009651Y008408D01*
X009652Y008409D02*
X010021Y008409D01*
X010021Y008410D02*
X009653Y008410D01*
X009654Y008411D02*
X010021Y008411D01*
X010021Y008412D02*
X009655Y008412D01*
X009656Y008413D02*
X010021Y008413D01*
X010021Y008414D02*
X009657Y008414D01*
X009658Y008415D02*
X010020Y008415D01*
X010020Y008416D02*
X009658Y008416D01*
X009659Y008417D02*
X010020Y008417D01*
X010020Y008418D02*
X009660Y008418D01*
X009661Y008419D02*
X010020Y008419D01*
X010019Y008420D02*
X009662Y008420D01*
X009663Y008421D02*
X010019Y008421D01*
X010018Y008422D02*
X009664Y008422D01*
X009664Y008423D02*
X010018Y008423D01*
X010017Y008424D02*
X009665Y008424D01*
X009666Y008425D02*
X010017Y008425D01*
X010016Y008426D02*
X009667Y008426D01*
X009668Y008427D02*
X010016Y008427D01*
X010015Y008428D02*
X009669Y008428D01*
X009670Y008429D02*
X010015Y008429D01*
X010014Y008430D02*
X009671Y008430D01*
X009671Y008431D02*
X010014Y008431D01*
X010013Y008432D02*
X009672Y008432D01*
X009673Y008433D02*
X010013Y008433D01*
X010012Y008434D02*
X009674Y008434D01*
X009675Y008435D02*
X010012Y008435D01*
X010011Y008435D02*
X010015Y008435D01*
X010018Y008436D02*
X010010Y008436D01*
X010011Y008436D02*
X009676Y008436D01*
X009678Y008437D02*
X010011Y008437D01*
X010010Y008437D02*
X010022Y008437D01*
X010025Y008438D02*
X010009Y008438D01*
X010010Y008438D02*
X009679Y008438D01*
X009680Y008439D02*
X010010Y008439D01*
X010008Y008439D02*
X010029Y008439D01*
X010032Y008440D02*
X010008Y008440D01*
X010009Y008440D02*
X009681Y008440D01*
X009682Y008441D02*
X010009Y008441D01*
X010008Y008442D02*
X009683Y008442D01*
X009684Y008443D02*
X010008Y008443D01*
X010007Y008442D02*
X010039Y008442D01*
X010040Y008443D02*
X010006Y008443D01*
X010006Y008444D02*
X010042Y008444D01*
X010043Y008445D02*
X010005Y008445D01*
X010005Y008446D02*
X010044Y008446D01*
X010045Y008447D02*
X010004Y008447D01*
X010004Y008448D02*
X010046Y008448D01*
X010047Y008449D02*
X010003Y008449D01*
X010002Y008450D02*
X010049Y008450D01*
X010050Y008451D02*
X010002Y008451D01*
X010001Y008452D02*
X010051Y008452D01*
X010052Y008453D02*
X010001Y008453D01*
X010000Y008454D02*
X010053Y008454D01*
X010054Y008455D02*
X010000Y008455D01*
X009999Y008456D02*
X010055Y008456D01*
X010057Y008457D02*
X009999Y008457D01*
X009998Y008458D02*
X010058Y008458D01*
X010059Y008459D02*
X009998Y008459D01*
X009997Y008460D02*
X010060Y008460D01*
X010061Y008461D02*
X009996Y008461D01*
X009996Y008462D02*
X010062Y008462D01*
X010064Y008463D02*
X009995Y008463D01*
X009995Y008464D02*
X010065Y008464D01*
X010066Y008465D02*
X009994Y008465D01*
X009994Y008466D02*
X010066Y008466D01*
X010066Y008467D02*
X009993Y008467D01*
X009993Y008468D02*
X010066Y008468D01*
X010066Y008469D02*
X009992Y008469D01*
X009993Y008469D02*
X009714Y008469D01*
X009715Y008470D02*
X009992Y008470D01*
X009991Y008470D02*
X010066Y008470D01*
X010067Y008471D02*
X009991Y008471D01*
X009716Y008471D01*
X009717Y008472D02*
X009990Y008472D01*
X010067Y008472D01*
X010067Y008473D02*
X009989Y008473D01*
X009718Y008473D01*
X009719Y008474D02*
X009988Y008474D01*
X010067Y008474D01*
X010067Y008475D02*
X009987Y008475D01*
X009721Y008475D01*
X009723Y008476D02*
X009987Y008476D01*
X009986Y008476D02*
X010067Y008476D01*
X010067Y008477D02*
X009985Y008477D01*
X009986Y008477D02*
X009725Y008477D01*
X009726Y008478D02*
X009985Y008478D01*
X009984Y008478D02*
X010067Y008478D01*
X010067Y008479D02*
X009983Y008479D01*
X009984Y008479D02*
X009728Y008479D01*
X009730Y008480D02*
X009983Y008480D01*
X010067Y008480D01*
X010067Y008481D02*
X009982Y008481D01*
X009732Y008481D01*
X009734Y008482D02*
X009981Y008482D01*
X010067Y008482D01*
X010067Y008483D02*
X009980Y008483D01*
X009735Y008483D01*
X009737Y008484D02*
X009979Y008484D01*
X010068Y008484D01*
X010068Y008485D02*
X009978Y008485D01*
X009739Y008485D01*
X009741Y008486D02*
X009977Y008486D01*
X010068Y008486D01*
X010068Y008487D02*
X009976Y008487D01*
X009743Y008487D01*
X009744Y008488D02*
X009976Y008488D01*
X009975Y008488D02*
X010068Y008488D01*
X010068Y008489D02*
X009974Y008489D01*
X009975Y008489D02*
X009746Y008489D01*
X009748Y008490D02*
X009974Y008490D01*
X009973Y008490D02*
X010068Y008490D01*
X010068Y008491D02*
X009972Y008491D01*
X009973Y008491D02*
X009750Y008491D01*
X009752Y008492D02*
X009972Y008492D01*
X010068Y008492D01*
X010068Y008493D02*
X009971Y008493D01*
X009753Y008493D01*
X009755Y008494D02*
X009970Y008494D01*
X010068Y008494D01*
X010068Y008495D02*
X009969Y008495D01*
X009757Y008495D01*
X009759Y008496D02*
X009968Y008496D01*
X010068Y008496D01*
X010069Y008497D02*
X009967Y008497D01*
X009761Y008497D01*
X009762Y008498D02*
X009966Y008498D01*
X010069Y008498D01*
X010069Y008499D02*
X009965Y008499D01*
X009764Y008499D01*
X009766Y008500D02*
X009964Y008500D01*
X010069Y008500D01*
X010069Y008501D02*
X009963Y008501D01*
X009964Y008501D02*
X009768Y008501D01*
X009770Y008502D02*
X009963Y008502D01*
X009962Y008502D02*
X010069Y008502D01*
X010069Y008503D02*
X009961Y008503D01*
X009962Y008503D02*
X009771Y008503D01*
X009773Y008504D02*
X009961Y008504D01*
X009960Y008504D02*
X010069Y008504D01*
X010069Y008505D02*
X009959Y008505D01*
X009960Y008505D02*
X009775Y008505D01*
X009777Y008506D02*
X009959Y008506D01*
X009958Y008506D02*
X010069Y008506D01*
X010069Y008507D02*
X009957Y008507D01*
X009958Y008507D02*
X009779Y008507D01*
X009780Y008508D02*
X009957Y008508D01*
X009956Y008508D02*
X010069Y008508D01*
X010069Y008509D02*
X009955Y008509D01*
X009956Y008509D02*
X009782Y008509D01*
X009784Y008510D02*
X009955Y008510D01*
X009954Y008511D02*
X009789Y008511D01*
X009794Y008512D02*
X009953Y008512D01*
X009953Y008511D02*
X010070Y008511D01*
X010070Y008510D02*
X009954Y008510D01*
X009952Y008512D02*
X010070Y008512D01*
X010069Y008513D02*
X009951Y008513D01*
X009952Y008513D02*
X009799Y008513D01*
X009803Y008514D02*
X009951Y008514D01*
X009950Y008514D02*
X010069Y008514D01*
X010068Y008515D02*
X009949Y008515D01*
X009808Y008515D01*
X009813Y008516D02*
X009948Y008516D01*
X010068Y008516D01*
X010067Y008517D02*
X009947Y008517D01*
X009818Y008517D01*
X009822Y008518D02*
X009945Y008518D01*
X009946Y008518D02*
X010067Y008518D01*
X010066Y008519D02*
X009945Y008519D01*
X009944Y008519D02*
X009827Y008519D01*
X009832Y008520D02*
X009943Y008520D01*
X009944Y008520D02*
X010066Y008520D01*
X010065Y008521D02*
X009942Y008521D01*
X009837Y008521D01*
X009842Y008522D02*
X009940Y008522D01*
X009940Y008523D02*
X010064Y008523D01*
X010064Y008524D02*
X009939Y008524D01*
X009939Y008523D02*
X009846Y008523D01*
X009851Y008524D02*
X009938Y008524D01*
X009937Y008525D02*
X010064Y008525D01*
X010063Y008526D02*
X009936Y008526D01*
X009936Y008525D02*
X009856Y008525D01*
X009861Y008526D02*
X009935Y008526D01*
X009935Y008527D02*
X010063Y008527D01*
X010062Y008528D02*
X009933Y008528D01*
X009875Y008528D01*
X009866Y008527D02*
X009934Y008527D01*
X009932Y008529D02*
X010062Y008529D01*
X010061Y008530D02*
X009931Y008530D01*
X009931Y008529D02*
X009909Y008529D01*
X009926Y008535D02*
X010059Y008535D01*
X010059Y008534D02*
X009927Y008534D01*
X009927Y008533D02*
X010060Y008533D01*
X010060Y008532D02*
X009928Y008532D01*
X009930Y008531D02*
X010061Y008531D01*
X010058Y008536D02*
X009926Y008536D01*
X009926Y008537D02*
X010058Y008537D01*
X010058Y008538D02*
X009925Y008538D01*
X009925Y008539D02*
X010057Y008539D01*
X010057Y008540D02*
X009925Y008540D01*
X009924Y008541D02*
X010056Y008541D01*
X010056Y008542D02*
X009924Y008542D01*
X009924Y008543D02*
X010055Y008543D01*
X010055Y008544D02*
X009923Y008544D01*
X009923Y008545D02*
X010054Y008545D01*
X010054Y008546D02*
X009923Y008546D01*
X009922Y008547D02*
X010053Y008547D01*
X010053Y008548D02*
X009922Y008548D01*
X009922Y008549D02*
X010052Y008549D01*
X010052Y008550D02*
X009920Y008550D01*
X009919Y008551D02*
X010051Y008551D01*
X010051Y008552D02*
X009917Y008552D01*
X009916Y008553D02*
X010051Y008553D01*
X010050Y008554D02*
X009914Y008554D01*
X009913Y008555D02*
X010050Y008555D01*
X010049Y008556D02*
X009911Y008556D01*
X009909Y008557D02*
X010049Y008557D01*
X010048Y008558D02*
X009906Y008558D01*
X009905Y008559D02*
X009617Y008559D01*
X009616Y008558D02*
X009896Y008558D01*
X009898Y008561D02*
X010047Y008561D01*
X010047Y008560D02*
X009901Y008560D01*
X009900Y008561D02*
X009620Y008561D01*
X009619Y008560D02*
X009903Y008560D01*
X009904Y008559D02*
X010048Y008559D01*
X010046Y008562D02*
X009895Y008562D01*
X009895Y008563D02*
X009625Y008563D01*
X009622Y008562D02*
X009898Y008562D01*
X009893Y008564D02*
X009628Y008564D01*
X009631Y008565D02*
X009890Y008565D01*
X009890Y008564D02*
X010044Y008564D01*
X010043Y008565D02*
X009887Y008565D01*
X009888Y008566D02*
X009635Y008566D01*
X009638Y008567D02*
X009885Y008567D01*
X009884Y008566D02*
X010043Y008566D01*
X010042Y008567D02*
X009881Y008567D01*
X009883Y008568D02*
X009641Y008568D01*
X009644Y008569D02*
X009880Y008569D01*
X009878Y008568D02*
X010041Y008568D01*
X010040Y008569D02*
X009876Y008569D01*
X009877Y008570D02*
X009647Y008570D01*
X009650Y008571D02*
X009874Y008571D01*
X009873Y008570D02*
X010039Y008570D01*
X010038Y008571D02*
X009870Y008571D01*
X009871Y008572D02*
X009654Y008572D01*
X009657Y008573D02*
X009868Y008573D01*
X009867Y008572D02*
X010037Y008572D01*
X010036Y008573D02*
X009864Y008573D01*
X009864Y008574D02*
X009660Y008574D01*
X009663Y008575D02*
X009861Y008575D01*
X009862Y008574D02*
X010035Y008574D01*
X010034Y008575D02*
X009859Y008575D01*
X009858Y008576D02*
X009666Y008576D01*
X009669Y008577D02*
X009855Y008577D01*
X009856Y008576D02*
X010033Y008576D01*
X010032Y008577D02*
X009853Y008577D01*
X009852Y008578D02*
X009672Y008578D01*
X009676Y008579D02*
X009849Y008579D01*
X009850Y008578D02*
X010031Y008578D01*
X010030Y008579D02*
X009847Y008579D01*
X009845Y008580D02*
X009679Y008580D01*
X009682Y008581D02*
X009842Y008581D01*
X010028Y008581D01*
X010027Y008582D02*
X009839Y008582D01*
X009685Y008582D01*
X009688Y008583D02*
X009836Y008583D01*
X010027Y008583D01*
X010026Y008584D02*
X009833Y008584D01*
X009691Y008584D01*
X009694Y008585D02*
X009830Y008585D01*
X010025Y008585D01*
X010024Y008586D02*
X009827Y008586D01*
X009826Y008586D02*
X009705Y008586D01*
X009715Y008587D02*
X009823Y008587D01*
X009824Y008587D02*
X010023Y008587D01*
X010022Y008588D02*
X009820Y008588D01*
X009726Y008588D01*
X009736Y008589D02*
X009817Y008589D01*
X009816Y008589D02*
X010021Y008589D01*
X010020Y008590D02*
X009812Y008590D01*
X009811Y008590D02*
X009811Y008590D01*
X009811Y008589D02*
X009811Y008589D01*
X009811Y008591D02*
X010019Y008591D01*
X010018Y008592D02*
X009811Y008592D01*
X009811Y008593D02*
X010017Y008593D01*
X010016Y008594D02*
X009811Y008594D01*
X009811Y008595D02*
X010014Y008595D01*
X010013Y008596D02*
X009811Y008596D01*
X009812Y008597D02*
X010012Y008597D01*
X010010Y008598D02*
X009812Y008598D01*
X009812Y008599D02*
X010009Y008599D01*
X010008Y008600D02*
X009812Y008600D01*
X009812Y008601D02*
X010007Y008601D01*
X010005Y008602D02*
X009812Y008602D01*
X009812Y008603D02*
X010004Y008603D01*
X010003Y008604D02*
X009812Y008604D01*
X009812Y008605D02*
X010001Y008605D01*
X010000Y008606D02*
X009813Y008606D01*
X009813Y008607D02*
X009999Y008607D01*
X009998Y008608D02*
X009813Y008608D01*
X009813Y008609D02*
X009996Y008609D01*
X009995Y008610D02*
X009813Y008610D01*
X009813Y008611D02*
X009994Y008611D01*
X009992Y008612D02*
X009813Y008612D01*
X009813Y008613D02*
X009991Y008613D01*
X009990Y008614D02*
X009813Y008614D01*
X009813Y008615D02*
X009989Y008615D01*
X009987Y008616D02*
X009814Y008616D01*
X009814Y008617D02*
X009986Y008617D01*
X009984Y008618D02*
X009814Y008618D01*
X009814Y008619D02*
X009983Y008619D01*
X009981Y008620D02*
X009814Y008620D01*
X009814Y008621D02*
X009979Y008621D01*
X009978Y008622D02*
X009814Y008622D01*
X009815Y008623D02*
X009976Y008623D01*
X009974Y008624D02*
X009816Y008624D01*
X009817Y008625D02*
X009973Y008625D01*
X009971Y008626D02*
X009818Y008626D01*
X009819Y008627D02*
X009969Y008627D01*
X009968Y008628D02*
X009820Y008628D01*
X009821Y008629D02*
X009966Y008629D01*
X009964Y008630D02*
X009822Y008630D01*
X009823Y008631D02*
X009962Y008631D01*
X009961Y008632D02*
X009825Y008632D01*
X009826Y008633D02*
X009959Y008633D01*
X009957Y008634D02*
X009827Y008634D01*
X009828Y008635D02*
X009956Y008635D01*
X009954Y008636D02*
X009829Y008636D01*
X009830Y008637D02*
X009952Y008637D01*
X009951Y008638D02*
X009831Y008638D01*
X009832Y008639D02*
X009949Y008639D01*
X009947Y008640D02*
X009833Y008640D01*
X009834Y008641D02*
X009944Y008641D01*
X009941Y008642D02*
X009835Y008642D01*
X009839Y008643D02*
X009937Y008643D01*
X009933Y008644D02*
X009842Y008644D01*
X009846Y008645D02*
X009929Y008645D01*
X009925Y008646D02*
X009850Y008646D01*
X009854Y008647D02*
X009922Y008647D01*
X009918Y008648D02*
X009858Y008648D01*
X009861Y008649D02*
X009914Y008649D01*
X009898Y008650D02*
X009865Y008650D01*
X009869Y008651D02*
X009874Y008651D01*
X009845Y008580D02*
X010029Y008580D01*
X010045Y008563D02*
X009892Y008563D01*
X009849Y008557D02*
X009614Y008557D01*
X009613Y008556D02*
X009822Y008556D01*
X009820Y008555D02*
X009611Y008555D01*
X009609Y008554D02*
X009817Y008554D01*
X009815Y008553D02*
X009608Y008553D01*
X009606Y008552D02*
X009813Y008552D01*
X009810Y008551D02*
X009605Y008551D01*
X009603Y008550D02*
X009808Y008550D01*
X009805Y008549D02*
X009602Y008549D01*
X009600Y008548D02*
X009803Y008548D01*
X009800Y008547D02*
X009599Y008547D01*
X009597Y008546D02*
X009798Y008546D01*
X009796Y008545D02*
X009596Y008545D01*
X009594Y008544D02*
X009793Y008544D01*
X009791Y008543D02*
X009593Y008543D01*
X009591Y008542D02*
X009788Y008542D01*
X009786Y008541D02*
X009590Y008541D01*
X009588Y008540D02*
X009784Y008540D01*
X009781Y008539D02*
X009587Y008539D01*
X009585Y008538D02*
X009779Y008538D01*
X009776Y008537D02*
X009584Y008537D01*
X009582Y008536D02*
X009774Y008536D01*
X009772Y008535D02*
X009580Y008535D01*
X009579Y008534D02*
X009769Y008534D01*
X009767Y008533D02*
X009577Y008533D01*
X009576Y008532D02*
X009764Y008532D01*
X009762Y008531D02*
X009574Y008531D01*
X009573Y008530D02*
X009760Y008530D01*
X009757Y008529D02*
X009571Y008529D01*
X009570Y008528D02*
X009755Y008528D01*
X009752Y008527D02*
X009568Y008527D01*
X009567Y008526D02*
X009750Y008526D01*
X009748Y008525D02*
X009565Y008525D01*
X009564Y008524D02*
X009747Y008524D01*
X009745Y008523D02*
X009562Y008523D01*
X009561Y008522D02*
X009743Y008522D01*
X009742Y008521D02*
X009559Y008521D01*
X009558Y008520D02*
X009740Y008520D01*
X009738Y008519D02*
X009556Y008519D01*
X009554Y008518D02*
X009737Y008518D01*
X009735Y008517D02*
X009553Y008517D01*
X009551Y008516D02*
X009733Y008516D01*
X009732Y008515D02*
X009550Y008515D01*
X009548Y008514D02*
X009730Y008514D01*
X009728Y008513D02*
X009547Y008513D01*
X009545Y008512D02*
X009727Y008512D01*
X009725Y008511D02*
X009544Y008511D01*
X009542Y008510D02*
X009724Y008510D01*
X009722Y008509D02*
X009541Y008509D01*
X009539Y008508D02*
X009720Y008508D01*
X009719Y008507D02*
X009538Y008507D01*
X009536Y008506D02*
X009717Y008506D01*
X009715Y008505D02*
X009535Y008505D01*
X009533Y008504D02*
X009714Y008504D01*
X009712Y008503D02*
X009532Y008503D01*
X009530Y008502D02*
X009710Y008502D01*
X009709Y008501D02*
X009529Y008501D01*
X009528Y008500D02*
X009707Y008500D01*
X009705Y008499D02*
X009527Y008499D01*
X009526Y008498D02*
X009704Y008498D01*
X009702Y008497D02*
X009525Y008497D01*
X009524Y008496D02*
X009700Y008496D01*
X009699Y008495D02*
X009524Y008495D01*
X009523Y008494D02*
X009697Y008494D01*
X009695Y008493D02*
X009522Y008493D01*
X009521Y008492D02*
X009694Y008492D01*
X009692Y008491D02*
X009520Y008491D01*
X009520Y008490D02*
X009690Y008490D01*
X009689Y008489D02*
X009519Y008489D01*
X009518Y008488D02*
X009687Y008488D01*
X009686Y008487D02*
X009517Y008487D01*
X009516Y008486D02*
X009684Y008486D01*
X009682Y008485D02*
X009515Y008485D01*
X009515Y008484D02*
X009681Y008484D01*
X009680Y008483D02*
X009514Y008483D01*
X009513Y008482D02*
X009679Y008482D01*
X009678Y008481D02*
X009512Y008481D01*
X009511Y008480D02*
X009677Y008480D01*
X009676Y008479D02*
X009511Y008479D01*
X009510Y008478D02*
X009675Y008478D01*
X009674Y008477D02*
X009509Y008477D01*
X009508Y008476D02*
X009673Y008476D01*
X009672Y008475D02*
X009507Y008475D01*
X009506Y008474D02*
X009671Y008474D01*
X009670Y008473D02*
X009506Y008473D01*
X009505Y008472D02*
X009669Y008472D01*
X009668Y008471D02*
X009504Y008471D01*
X009503Y008470D02*
X009667Y008470D01*
X009666Y008469D02*
X009502Y008469D01*
X009502Y008468D02*
X009665Y008468D01*
X009663Y008467D02*
X009501Y008467D01*
X009500Y008466D02*
X009662Y008466D01*
X009661Y008465D02*
X009499Y008465D01*
X009498Y008464D02*
X009660Y008464D01*
X009659Y008463D02*
X009498Y008463D01*
X009497Y008462D02*
X009658Y008462D01*
X009657Y008461D02*
X009496Y008461D01*
X009495Y008460D02*
X009656Y008460D01*
X009655Y008459D02*
X009494Y008459D01*
X009493Y008458D02*
X009654Y008458D01*
X009653Y008457D02*
X009493Y008457D01*
X009492Y008456D02*
X009652Y008456D01*
X009651Y008455D02*
X009491Y008455D01*
X009490Y008454D02*
X009650Y008454D01*
X009649Y008453D02*
X009489Y008453D01*
X009489Y008452D02*
X009648Y008452D01*
X009647Y008451D02*
X009488Y008451D01*
X009487Y008450D02*
X009646Y008450D01*
X009645Y008449D02*
X009486Y008449D01*
X009485Y008448D02*
X009644Y008448D01*
X009643Y008447D02*
X009484Y008447D01*
X009484Y008446D02*
X009642Y008446D01*
X009641Y008445D02*
X009483Y008445D01*
X009482Y008444D02*
X009640Y008444D01*
X009638Y008443D02*
X009481Y008443D01*
X009480Y008442D02*
X009637Y008442D01*
X009637Y008441D02*
X009480Y008441D01*
X009479Y008440D02*
X009636Y008440D01*
X009635Y008439D02*
X009478Y008439D01*
X009477Y008438D02*
X009634Y008438D01*
X009634Y008437D02*
X009476Y008437D01*
X009476Y008436D02*
X009633Y008436D01*
X009632Y008435D02*
X009475Y008435D01*
X009474Y008434D02*
X009631Y008434D01*
X009630Y008433D02*
X009473Y008433D01*
X009472Y008432D02*
X009630Y008432D01*
X009629Y008431D02*
X009471Y008431D01*
X009471Y008430D02*
X009628Y008430D01*
X009627Y008429D02*
X009470Y008429D01*
X009469Y008428D02*
X009627Y008428D01*
X009626Y008427D02*
X009468Y008427D01*
X009467Y008426D02*
X009625Y008426D01*
X009624Y008425D02*
X009467Y008425D01*
X009466Y008424D02*
X009623Y008424D01*
X009623Y008423D02*
X009465Y008423D01*
X009464Y008422D02*
X009622Y008422D01*
X009621Y008421D02*
X009463Y008421D01*
X009462Y008420D02*
X009620Y008420D01*
X009620Y008419D02*
X009462Y008419D01*
X009461Y008418D02*
X009619Y008418D01*
X009618Y008417D02*
X009460Y008417D01*
X009459Y008416D02*
X009617Y008416D01*
X009616Y008415D02*
X009458Y008415D01*
X009458Y008414D02*
X009616Y008414D01*
X009615Y008413D02*
X009457Y008413D01*
X009456Y008412D02*
X009614Y008412D01*
X009613Y008411D02*
X009456Y008411D01*
X009456Y008410D02*
X009612Y008410D01*
X009612Y008409D02*
X009455Y008409D01*
X009455Y008408D02*
X009611Y008408D01*
X009610Y008407D02*
X009454Y008407D01*
X009454Y008406D02*
X009609Y008406D01*
X009609Y008405D02*
X009453Y008405D01*
X009453Y008404D02*
X009608Y008404D01*
X009607Y008403D02*
X009452Y008403D01*
X009452Y008402D02*
X009606Y008402D01*
X009605Y008401D02*
X009451Y008401D01*
X009451Y008400D02*
X009605Y008400D01*
X009604Y008399D02*
X009451Y008399D01*
X009450Y008398D02*
X009603Y008398D01*
X009602Y008397D02*
X009450Y008397D01*
X009449Y008396D02*
X009602Y008396D01*
X009601Y008395D02*
X009449Y008395D01*
X009448Y008394D02*
X009600Y008394D01*
X009599Y008393D02*
X009448Y008393D01*
X009447Y008392D02*
X009598Y008392D01*
X009598Y008391D02*
X009447Y008391D01*
X009446Y008390D02*
X009597Y008390D01*
X009596Y008389D02*
X009446Y008389D01*
X009446Y008388D02*
X009595Y008388D01*
X009595Y008387D02*
X009445Y008387D01*
X009445Y008386D02*
X009594Y008386D01*
X009593Y008385D02*
X009444Y008385D01*
X009444Y008384D02*
X009592Y008384D01*
X009592Y008383D02*
X009443Y008383D01*
X009443Y008382D02*
X009591Y008382D01*
X009591Y008381D02*
X009442Y008381D01*
X009442Y008380D02*
X009590Y008380D01*
X009589Y008379D02*
X009441Y008379D01*
X009441Y008378D02*
X009589Y008378D01*
X009588Y008377D02*
X009441Y008377D01*
X009440Y008376D02*
X009588Y008376D01*
X009587Y008375D02*
X009440Y008375D01*
X009439Y008374D02*
X009586Y008374D01*
X009586Y008373D02*
X009439Y008373D01*
X009438Y008372D02*
X009585Y008372D01*
X009585Y008371D02*
X009438Y008371D01*
X009437Y008370D02*
X009584Y008370D01*
X009584Y008369D02*
X009437Y008369D01*
X009436Y008368D02*
X009583Y008368D01*
X009582Y008367D02*
X009436Y008367D01*
X009436Y008366D02*
X009582Y008366D01*
X009581Y008365D02*
X009435Y008365D01*
X009435Y008364D02*
X009581Y008364D01*
X009580Y008363D02*
X009434Y008363D01*
X009434Y008362D02*
X009579Y008362D01*
X009579Y008361D02*
X009433Y008361D01*
X009433Y008360D02*
X009578Y008360D01*
X009578Y008359D02*
X009432Y008359D01*
X009432Y008358D02*
X009577Y008358D01*
X009577Y008357D02*
X009431Y008357D01*
X009431Y008356D02*
X009576Y008356D01*
X009575Y008355D02*
X009431Y008355D01*
X009430Y008354D02*
X009575Y008354D01*
X009574Y008353D02*
X009430Y008353D01*
X009429Y008352D02*
X009574Y008352D01*
X009573Y008351D02*
X009429Y008351D01*
X009428Y008350D02*
X009572Y008350D01*
X009572Y008349D02*
X009428Y008349D01*
X009427Y008348D02*
X009571Y008348D01*
X009571Y008347D02*
X009427Y008347D01*
X009426Y008346D02*
X009570Y008346D01*
X009569Y008345D02*
X009426Y008345D01*
X009426Y008344D02*
X009569Y008344D01*
X009568Y008343D02*
X009425Y008343D01*
X009425Y008342D02*
X009568Y008342D01*
X009567Y008341D02*
X009424Y008341D01*
X009424Y008340D02*
X009567Y008340D01*
X009566Y008339D02*
X009423Y008339D01*
X009423Y008338D02*
X009565Y008338D01*
X009565Y008337D02*
X009422Y008337D01*
X009422Y008336D02*
X009564Y008336D01*
X009564Y008335D02*
X009421Y008335D01*
X009421Y008334D02*
X009563Y008334D01*
X009562Y008333D02*
X009421Y008333D01*
X009420Y008332D02*
X009562Y008332D01*
X009561Y008331D02*
X009420Y008331D01*
X009419Y008330D02*
X009561Y008330D01*
X009560Y008329D02*
X009419Y008329D01*
X009418Y008328D02*
X009560Y008328D01*
X009559Y008327D02*
X009418Y008327D01*
X009417Y008326D02*
X009558Y008326D01*
X009558Y008325D02*
X009417Y008325D01*
X009416Y008324D02*
X009557Y008324D01*
X009557Y008323D02*
X009416Y008323D01*
X009416Y008322D02*
X009556Y008322D01*
X009555Y008321D02*
X009415Y008321D01*
X009415Y008320D02*
X009555Y008320D01*
X009554Y008319D02*
X009414Y008319D01*
X009414Y008318D02*
X009554Y008318D01*
X009553Y008317D02*
X009413Y008317D01*
X009413Y008316D02*
X009552Y008316D01*
X009552Y008315D02*
X009412Y008315D01*
X009412Y008314D02*
X009551Y008314D01*
X009551Y008313D02*
X009412Y008313D01*
X009412Y008312D02*
X009550Y008312D01*
X009550Y008311D02*
X009412Y008311D01*
X009412Y008310D02*
X009549Y008310D01*
X009548Y008309D02*
X009412Y008309D01*
X009411Y008308D02*
X009548Y008308D01*
X009547Y008307D02*
X009411Y008307D01*
X009411Y008306D02*
X009547Y008306D01*
X009546Y008305D02*
X009411Y008305D01*
X009411Y008304D02*
X009545Y008304D01*
X009545Y008303D02*
X009411Y008303D01*
X009411Y008302D02*
X009544Y008302D01*
X009544Y008301D02*
X009411Y008301D01*
X009410Y008300D02*
X009544Y008300D01*
X009543Y008299D02*
X009410Y008299D01*
X009410Y008298D02*
X009543Y008298D01*
X009542Y008297D02*
X009410Y008297D01*
X009410Y008296D02*
X009542Y008296D01*
X009541Y008295D02*
X009410Y008295D01*
X009410Y008294D02*
X009541Y008294D01*
X009541Y008293D02*
X009409Y008293D01*
X009409Y008292D02*
X009540Y008292D01*
X009540Y008291D02*
X009409Y008291D01*
X009409Y008290D02*
X009539Y008290D01*
X009539Y008289D02*
X009409Y008289D01*
X009409Y008288D02*
X009538Y008288D01*
X009538Y008287D02*
X009409Y008287D01*
X009409Y008286D02*
X009538Y008286D01*
X009537Y008285D02*
X009408Y008285D01*
X009408Y008284D02*
X009537Y008284D01*
X009536Y008283D02*
X009408Y008283D01*
X009408Y008282D02*
X009536Y008282D01*
X009535Y008281D02*
X009408Y008281D01*
X009408Y008280D02*
X009535Y008280D01*
X009535Y008279D02*
X009408Y008279D01*
X009407Y008278D02*
X009534Y008278D01*
X009534Y008277D02*
X009407Y008277D01*
X009407Y008276D02*
X009533Y008276D01*
X009533Y008275D02*
X009407Y008275D01*
X009407Y008274D02*
X009532Y008274D01*
X009532Y008273D02*
X009407Y008273D01*
X009407Y008272D02*
X009532Y008272D01*
X009531Y008271D02*
X009407Y008271D01*
X009406Y008270D02*
X009531Y008270D01*
X009530Y008269D02*
X009406Y008269D01*
X009406Y008268D02*
X009530Y008268D01*
X009529Y008267D02*
X009406Y008267D01*
X009406Y008266D02*
X009529Y008266D01*
X009529Y008265D02*
X009406Y008265D01*
X009406Y008264D02*
X009528Y008264D01*
X009528Y008263D02*
X009405Y008263D01*
X009405Y008262D02*
X009527Y008262D01*
X009527Y008261D02*
X009405Y008261D01*
X009405Y008260D02*
X009527Y008260D01*
X009526Y008259D02*
X009405Y008259D01*
X009405Y008258D02*
X009526Y008258D01*
X009525Y008257D02*
X009405Y008257D01*
X009404Y008256D02*
X009525Y008256D01*
X009524Y008255D02*
X009404Y008255D01*
X009404Y008254D02*
X009524Y008254D01*
X009524Y008253D02*
X009404Y008253D01*
X009404Y008252D02*
X009523Y008252D01*
X009523Y008251D02*
X009404Y008251D01*
X009404Y008250D02*
X009522Y008250D01*
X009522Y008249D02*
X009404Y008249D01*
X009403Y008248D02*
X009521Y008248D01*
X009521Y008247D02*
X009403Y008247D01*
X009403Y008246D02*
X009521Y008246D01*
X009520Y008245D02*
X009403Y008245D01*
X009403Y008244D02*
X009520Y008244D01*
X009519Y008243D02*
X009403Y008243D01*
X009403Y008242D02*
X009519Y008242D01*
X009518Y008241D02*
X009402Y008241D01*
X009402Y008240D02*
X009518Y008240D01*
X009518Y008239D02*
X009402Y008239D01*
X009402Y008238D02*
X009517Y008238D01*
X009517Y008237D02*
X009402Y008237D01*
X009402Y008236D02*
X009516Y008236D01*
X009516Y008235D02*
X009402Y008235D01*
X009402Y008234D02*
X009515Y008234D01*
X009515Y008233D02*
X009401Y008233D01*
X009401Y008232D02*
X009515Y008232D01*
X009514Y008231D02*
X009401Y008231D01*
X009401Y008230D02*
X009514Y008230D01*
X009513Y008229D02*
X009401Y008229D01*
X009401Y008228D02*
X009513Y008228D01*
X009512Y008227D02*
X009401Y008227D01*
X009400Y008226D02*
X009512Y008226D01*
X009512Y008225D02*
X009400Y008225D01*
X009400Y008224D02*
X009511Y008224D01*
X009511Y008223D02*
X009400Y008223D01*
X009400Y008222D02*
X009510Y008222D01*
X009510Y008221D02*
X009400Y008221D01*
X009400Y008220D02*
X009510Y008220D01*
X009509Y008219D02*
X009401Y008219D01*
X009401Y008218D02*
X009509Y008218D01*
X009509Y008217D02*
X009401Y008217D01*
X009401Y008216D02*
X009508Y008216D01*
X009508Y008215D02*
X009401Y008215D01*
X009402Y008214D02*
X009508Y008214D01*
X009508Y008213D02*
X009402Y008213D01*
X009402Y008212D02*
X009508Y008212D01*
X009507Y008211D02*
X009402Y008211D01*
X009402Y008210D02*
X009507Y008210D01*
X009507Y008209D02*
X009403Y008209D01*
X009403Y008208D02*
X009507Y008208D01*
X009506Y008207D02*
X009403Y008207D01*
X009403Y008206D02*
X009506Y008206D01*
X009506Y008205D02*
X009403Y008205D01*
X009404Y008204D02*
X009506Y008204D01*
X009506Y008203D02*
X009404Y008203D01*
X009404Y008202D02*
X009505Y008202D01*
X009505Y008201D02*
X009404Y008201D01*
X009404Y008200D02*
X009505Y008200D01*
X009505Y008199D02*
X009405Y008199D01*
X009405Y008198D02*
X009505Y008198D01*
X009504Y008197D02*
X009405Y008197D01*
X009405Y008196D02*
X009504Y008196D01*
X009504Y008195D02*
X009405Y008195D01*
X009406Y008194D02*
X009504Y008194D01*
X009406Y008194D01*
X009406Y008193D02*
X009503Y008193D01*
X009503Y008192D02*
X009406Y008192D01*
X009406Y008191D02*
X009503Y008191D01*
X009503Y008190D02*
X009407Y008190D01*
X009407Y008189D02*
X009502Y008189D01*
X009502Y008188D02*
X009407Y008188D01*
X009407Y008187D02*
X009502Y008187D01*
X009502Y008186D02*
X009407Y008186D01*
X009408Y008185D02*
X009502Y008185D01*
X009501Y008184D02*
X009408Y008184D01*
X009408Y008183D02*
X009501Y008183D01*
X009501Y008182D02*
X009408Y008182D01*
X009408Y008181D02*
X009501Y008181D01*
X009501Y008180D02*
X009409Y008180D01*
X009409Y008179D02*
X009500Y008179D01*
X009500Y008178D02*
X009409Y008178D01*
X009409Y008177D02*
X009500Y008177D01*
X009500Y008176D02*
X009409Y008176D01*
X009410Y008175D02*
X009500Y008175D01*
X009499Y008174D02*
X009410Y008174D01*
X009410Y008173D02*
X009499Y008173D01*
X009499Y008172D02*
X009410Y008172D01*
X009410Y008171D02*
X009499Y008171D01*
X009499Y008170D02*
X009411Y008170D01*
X009411Y008169D02*
X009498Y008169D01*
X009498Y008168D02*
X009411Y008168D01*
X009411Y008167D02*
X009498Y008167D01*
X009498Y008166D02*
X009411Y008166D01*
X009412Y008165D02*
X009497Y008165D01*
X009497Y008164D02*
X009412Y008164D01*
X009412Y008163D02*
X009497Y008163D01*
X009497Y008162D02*
X009412Y008162D01*
X009412Y008161D02*
X009497Y008161D01*
X009496Y008160D02*
X009413Y008160D01*
X009413Y008159D02*
X009496Y008159D01*
X009496Y008158D02*
X009413Y008158D01*
X009413Y008157D02*
X009496Y008157D01*
X009496Y008156D02*
X009413Y008156D01*
X009414Y008155D02*
X009495Y008155D01*
X009495Y008154D02*
X009414Y008154D01*
X009414Y008153D02*
X009495Y008153D01*
X009495Y008152D02*
X009414Y008152D01*
X009414Y008151D02*
X009495Y008151D01*
X009494Y008150D02*
X009415Y008150D01*
X009415Y008149D02*
X009494Y008149D01*
X009494Y008148D02*
X009415Y008148D01*
X009415Y008147D02*
X009494Y008147D01*
X009494Y008146D02*
X009415Y008146D01*
X009416Y008145D02*
X009493Y008145D01*
X009493Y008144D02*
X009416Y008144D01*
X009416Y008143D02*
X009493Y008143D01*
X009493Y008142D02*
X009416Y008142D01*
X009416Y008141D02*
X009493Y008141D01*
X009493Y008140D02*
X009417Y008140D01*
X009417Y008139D02*
X009492Y008139D01*
X009492Y008138D02*
X009417Y008138D01*
X009417Y008137D02*
X009492Y008137D01*
X009492Y008136D02*
X009417Y008136D01*
X009418Y008135D02*
X009492Y008135D01*
X009492Y008134D02*
X009418Y008134D01*
X009418Y008133D02*
X009492Y008133D01*
X009492Y008132D02*
X009418Y008132D01*
X009418Y008131D02*
X009492Y008131D01*
X009492Y008130D02*
X009419Y008130D01*
X009419Y008129D02*
X009492Y008129D01*
X009491Y008128D02*
X009419Y008128D01*
X009419Y008127D02*
X009491Y008127D01*
X009491Y008126D02*
X009419Y008126D01*
X009420Y008125D02*
X009491Y008125D01*
X009491Y008124D02*
X009420Y008124D01*
X009420Y008123D02*
X009491Y008123D01*
X009491Y008122D02*
X009420Y008122D01*
X009420Y008121D02*
X009491Y008121D01*
X009491Y008120D02*
X009421Y008120D01*
X009421Y008119D02*
X009491Y008119D01*
X009491Y008118D02*
X009421Y008118D01*
X009421Y008117D02*
X009490Y008117D01*
X009490Y008116D02*
X009421Y008116D01*
X009422Y008115D02*
X009490Y008115D01*
X009490Y008114D02*
X009423Y008114D01*
X009423Y008113D02*
X009490Y008113D01*
X009490Y008112D02*
X009424Y008112D01*
X009425Y008111D02*
X009490Y008111D01*
X009490Y008110D02*
X009425Y008110D01*
X009426Y008109D02*
X009490Y008109D01*
X009490Y008108D02*
X009427Y008108D01*
X009427Y008107D02*
X009489Y008107D01*
X009489Y008106D02*
X009428Y008106D01*
X009429Y008105D02*
X009489Y008105D01*
X009489Y008104D02*
X009429Y008104D01*
X009430Y008103D02*
X009489Y008103D01*
X009489Y008102D02*
X009431Y008102D01*
X009431Y008101D02*
X009489Y008101D01*
X009489Y008100D02*
X009432Y008100D01*
X009433Y008099D02*
X009489Y008099D01*
X009489Y008098D02*
X009433Y008098D01*
X009434Y008097D02*
X009489Y008097D01*
X009488Y008096D02*
X009435Y008096D01*
X009435Y008095D02*
X009488Y008095D01*
X009488Y008094D02*
X009436Y008094D01*
X009437Y008093D02*
X009488Y008093D01*
X009488Y008092D02*
X009437Y008092D01*
X009438Y008091D02*
X009488Y008091D01*
X009488Y008090D02*
X009439Y008090D01*
X009439Y008089D02*
X009488Y008089D01*
X009488Y008088D02*
X009440Y008088D01*
X009441Y008087D02*
X009488Y008087D01*
X009488Y008086D02*
X009441Y008086D01*
X009442Y008085D02*
X009487Y008085D01*
X009487Y008084D02*
X009443Y008084D01*
X009443Y008083D02*
X009487Y008083D01*
X009487Y008082D02*
X009444Y008082D01*
X009445Y008081D02*
X009487Y008081D01*
X009487Y008080D02*
X009446Y008080D01*
X009446Y008079D02*
X009487Y008079D01*
X009487Y008078D02*
X009447Y008078D01*
X009448Y008077D02*
X009487Y008077D01*
X009487Y008076D02*
X009448Y008076D01*
X009449Y008075D02*
X009487Y008075D01*
X009486Y008074D02*
X009450Y008074D01*
X009450Y008073D02*
X009486Y008073D01*
X009486Y008072D02*
X009451Y008072D01*
X009452Y008071D02*
X009486Y008071D01*
X009486Y008070D02*
X009452Y008070D01*
X009453Y008069D02*
X009486Y008069D01*
X009486Y008068D02*
X009454Y008068D01*
X009454Y008067D02*
X009486Y008067D01*
X009486Y008066D02*
X009455Y008066D01*
X009456Y008065D02*
X009486Y008065D01*
X009485Y008064D02*
X009456Y008064D01*
X009457Y008063D02*
X009485Y008063D01*
X009485Y008062D02*
X009458Y008062D01*
X009458Y008061D02*
X009485Y008061D01*
X009485Y008060D02*
X009459Y008060D01*
X009460Y008059D02*
X009485Y008059D01*
X009485Y008058D02*
X009460Y008058D01*
X009461Y008057D02*
X009485Y008057D01*
X009485Y008056D02*
X009462Y008056D01*
X009462Y008055D02*
X009484Y008055D01*
X009484Y008054D02*
X009463Y008054D01*
X009464Y008053D02*
X009484Y008053D01*
X009484Y008052D02*
X009464Y008052D01*
X009465Y008051D02*
X009484Y008051D01*
X009484Y008050D02*
X009466Y008050D01*
X009466Y008049D02*
X009484Y008049D01*
X009484Y008048D02*
X009467Y008048D01*
X009468Y008047D02*
X009483Y008047D01*
X009483Y008046D02*
X009468Y008046D01*
X009469Y008045D02*
X009483Y008045D01*
X009483Y008044D02*
X009470Y008044D01*
X009470Y008043D02*
X009483Y008043D01*
X009483Y008042D02*
X009471Y008042D01*
X009472Y008041D02*
X009483Y008041D01*
X009483Y008040D02*
X009472Y008040D01*
X009473Y008039D02*
X009483Y008039D01*
X009482Y008038D02*
X009474Y008038D01*
X009474Y008037D02*
X009482Y008037D01*
X009482Y008036D02*
X009475Y008036D01*
X009476Y008035D02*
X009481Y008035D01*
X009478Y008034D02*
X009476Y008034D01*
X009514Y008004D02*
X009841Y008004D01*
X009839Y008003D02*
X009515Y008003D01*
X009516Y008002D02*
X009837Y008002D01*
X009836Y008001D02*
X009517Y008001D01*
X009518Y008000D02*
X009834Y008000D01*
X009832Y007999D02*
X009520Y007999D01*
X009521Y007998D02*
X009830Y007998D01*
X009828Y007997D02*
X009522Y007997D01*
X009523Y007996D02*
X009826Y007996D01*
X009825Y007995D02*
X009525Y007995D01*
X009526Y007994D02*
X009823Y007994D01*
X009821Y007993D02*
X009527Y007993D01*
X009528Y007992D02*
X009819Y007992D01*
X009817Y007991D02*
X009530Y007991D01*
X009531Y007990D02*
X009815Y007990D01*
X009814Y007989D02*
X009532Y007989D01*
X009534Y007988D02*
X009812Y007988D01*
X009810Y007987D02*
X009536Y007987D01*
X009538Y007986D02*
X009808Y007986D01*
X009806Y007985D02*
X009540Y007985D01*
X009541Y007984D02*
X009804Y007984D01*
X009802Y007983D02*
X009543Y007983D01*
X009545Y007982D02*
X009799Y007982D01*
X009796Y007981D02*
X009547Y007981D01*
X009549Y007980D02*
X009793Y007980D01*
X009791Y007979D02*
X009551Y007979D01*
X009553Y007978D02*
X009788Y007978D01*
X009785Y007977D02*
X009555Y007977D01*
X009557Y007976D02*
X009782Y007976D01*
X009779Y007975D02*
X009559Y007975D01*
X009560Y007974D02*
X009777Y007974D01*
X009774Y007973D02*
X009562Y007973D01*
X009564Y007972D02*
X009771Y007972D01*
X009768Y007971D02*
X009566Y007971D01*
X009570Y007970D02*
X009765Y007970D01*
X009762Y007969D02*
X009573Y007969D01*
X009577Y007968D02*
X009760Y007968D01*
X009757Y007967D02*
X009581Y007967D01*
X009584Y007966D02*
X009754Y007966D01*
X009751Y007965D02*
X009588Y007965D01*
X009592Y007964D02*
X009748Y007964D01*
X009745Y007963D02*
X009595Y007963D01*
X009599Y007962D02*
X009742Y007962D01*
X009734Y007961D02*
X009602Y007961D01*
X009606Y007960D02*
X009727Y007960D01*
X009719Y007959D02*
X009610Y007959D01*
X009613Y007958D02*
X009711Y007958D01*
X009703Y007957D02*
X009617Y007957D01*
X009647Y007956D02*
X009696Y007956D01*
X009688Y007955D02*
X009686Y007955D01*
X009686Y008444D02*
X010007Y008444D01*
X010007Y008445D02*
X009687Y008445D01*
X009688Y008446D02*
X010006Y008446D01*
X010006Y008447D02*
X009689Y008447D01*
X009690Y008448D02*
X010005Y008448D01*
X010005Y008449D02*
X009691Y008449D01*
X009692Y008450D02*
X010004Y008450D01*
X010004Y008451D02*
X009693Y008451D01*
X009695Y008452D02*
X010003Y008452D01*
X010003Y008453D02*
X009696Y008453D01*
X009697Y008454D02*
X010002Y008454D01*
X010002Y008455D02*
X009698Y008455D01*
X009699Y008456D02*
X010001Y008456D01*
X010001Y008457D02*
X009700Y008457D01*
X009701Y008458D02*
X010000Y008458D01*
X010000Y008459D02*
X009702Y008459D01*
X009704Y008460D02*
X009999Y008460D01*
X009999Y008461D02*
X009705Y008461D01*
X009706Y008462D02*
X009998Y008462D01*
X009998Y008463D02*
X009707Y008463D01*
X009708Y008464D02*
X009997Y008464D01*
X009997Y008465D02*
X009709Y008465D01*
X009710Y008466D02*
X009996Y008466D01*
X009995Y008467D02*
X009712Y008467D01*
X009713Y008468D02*
X009994Y008468D01*
X010007Y008441D02*
X010036Y008441D01*
X010065Y008522D02*
X009941Y008522D01*
X009814Y008590D02*
X009747Y008590D01*
X009757Y008591D02*
X009798Y008591D01*
X009774Y008592D02*
X009768Y008592D01*
X010022Y019392D02*
X010022Y019392D01*
X010022Y019393D02*
X010024Y019393D01*
X010022Y019394D02*
X010026Y019394D01*
X010028Y019395D02*
X010022Y019395D01*
X010022Y019396D02*
X010030Y019396D01*
X010032Y019397D02*
X010022Y019397D01*
X010022Y019398D02*
X010034Y019398D01*
X010036Y019399D02*
X010022Y019399D01*
X010022Y019400D02*
X010038Y019400D01*
X010040Y019401D02*
X010022Y019401D01*
X010022Y019402D02*
X010042Y019402D01*
X010044Y019403D02*
X010022Y019403D01*
X010022Y019404D02*
X010046Y019404D01*
X010048Y019405D02*
X010022Y019405D01*
X010022Y019406D02*
X010050Y019406D01*
X010052Y019407D02*
X010022Y019407D01*
X010022Y019408D02*
X010054Y019408D01*
X010056Y019409D02*
X010022Y019409D01*
X010022Y019410D02*
X010058Y019410D01*
X010060Y019411D02*
X010022Y019411D01*
X010022Y019412D02*
X010062Y019412D01*
X010064Y019413D02*
X010022Y019413D01*
X010022Y019414D02*
X010066Y019414D01*
X010068Y019415D02*
X010022Y019415D01*
X010022Y019416D02*
X010070Y019416D01*
X010072Y019417D02*
X010022Y019417D01*
X010022Y019418D02*
X010074Y019418D01*
X010076Y019419D02*
X010022Y019419D01*
X010022Y019420D02*
X010078Y019420D01*
X010080Y019421D02*
X010022Y019421D01*
X010022Y019422D02*
X010082Y019422D01*
X010084Y019423D02*
X010022Y019423D01*
X010022Y019424D02*
X010086Y019424D01*
X010088Y019425D02*
X010022Y019425D01*
X010022Y019426D02*
X010090Y019426D01*
X010092Y019427D02*
X010022Y019427D01*
X010022Y019428D02*
X010094Y019428D01*
X010096Y019429D02*
X010022Y019429D01*
X010022Y019430D02*
X010098Y019430D01*
X010100Y019431D02*
X010022Y019431D01*
X010022Y019432D02*
X010102Y019432D01*
X010104Y019433D02*
X010022Y019433D01*
X010022Y019434D02*
X010106Y019434D01*
X010108Y019435D02*
X010022Y019435D01*
X010022Y019436D02*
X010110Y019436D01*
X010112Y019437D02*
X010022Y019437D01*
X010022Y019438D02*
X010114Y019438D01*
X010115Y019439D02*
X010022Y019439D01*
X010022Y019440D02*
X010113Y019440D01*
X010110Y019441D02*
X010022Y019441D01*
X010022Y019442D02*
X010108Y019442D01*
X010106Y019443D02*
X010022Y019443D01*
X010022Y019444D02*
X010104Y019444D01*
X010102Y019445D02*
X010022Y019445D01*
X010022Y019446D02*
X010100Y019446D01*
X010098Y019447D02*
X010022Y019447D01*
X010022Y019448D02*
X010096Y019448D01*
X010094Y019449D02*
X010022Y019449D01*
X010022Y019450D02*
X010092Y019450D01*
X010090Y019451D02*
X010022Y019451D01*
X010022Y019452D02*
X010088Y019452D01*
X010086Y019453D02*
X010022Y019453D01*
X010022Y019454D02*
X010084Y019454D01*
X010082Y019455D02*
X010022Y019455D01*
X010022Y019456D02*
X010080Y019456D01*
X010078Y019457D02*
X010022Y019457D01*
X010022Y019458D02*
X010076Y019458D01*
X010074Y019459D02*
X010022Y019459D01*
X010022Y019460D02*
X010072Y019460D01*
X010070Y019461D02*
X010022Y019461D01*
X010022Y019462D02*
X010068Y019462D01*
X010066Y019463D02*
X010022Y019463D01*
X010022Y019464D02*
X010064Y019464D01*
X010062Y019465D02*
X010022Y019465D01*
X010022Y019466D02*
X010060Y019466D01*
X010058Y019467D02*
X010022Y019467D01*
X010022Y019468D02*
X010056Y019468D01*
X010054Y019469D02*
X010022Y019469D01*
X010022Y019470D02*
X010052Y019470D01*
X010050Y019471D02*
X010022Y019471D01*
X010022Y019472D02*
X010048Y019472D01*
X010046Y019473D02*
X010022Y019473D01*
X010022Y019474D02*
X010044Y019474D01*
X010042Y019475D02*
X010022Y019475D01*
X010022Y019476D02*
X010040Y019476D01*
X010038Y019477D02*
X010022Y019477D01*
X010022Y019478D02*
X010036Y019478D01*
X010034Y019479D02*
X010022Y019479D01*
X010022Y019480D02*
X010032Y019480D01*
X010030Y019481D02*
X010022Y019481D01*
X010022Y019482D02*
X010027Y019482D01*
X010025Y019483D02*
X010022Y019483D01*
X010022Y019484D02*
X010023Y019484D01*
X009842Y019815D02*
X009513Y019815D01*
X009512Y019816D02*
X009843Y019816D01*
X009845Y019817D02*
X009511Y019817D01*
X009509Y019818D02*
X009847Y019818D01*
X009849Y019819D02*
X009508Y019819D01*
X009507Y019820D02*
X009851Y019820D01*
X009853Y019821D02*
X009506Y019821D01*
X009505Y019822D02*
X009854Y019822D01*
X009856Y019823D02*
X009504Y019823D01*
X009505Y019824D02*
X009858Y019824D01*
X009860Y019825D02*
X009505Y019825D01*
X009505Y019826D02*
X009862Y019826D01*
X009863Y019827D02*
X009505Y019827D01*
X009505Y019828D02*
X009865Y019828D01*
X009866Y019829D02*
X009505Y019829D01*
X009506Y019830D02*
X009867Y019830D01*
X009869Y019831D02*
X009506Y019831D01*
X009506Y019832D02*
X009870Y019832D01*
X009871Y019833D02*
X009506Y019833D01*
X009506Y019834D02*
X009873Y019834D01*
X009874Y019835D02*
X009506Y019835D01*
X009506Y019836D02*
X009875Y019836D01*
X009877Y019837D02*
X009506Y019837D01*
X009506Y019838D02*
X009878Y019838D01*
X009880Y019839D02*
X009506Y019839D01*
X009506Y019840D02*
X009881Y019840D01*
X009882Y019841D02*
X009506Y019841D01*
X009506Y019842D02*
X009884Y019842D01*
X009885Y019843D02*
X009506Y019843D01*
X009506Y019844D02*
X009886Y019844D01*
X009888Y019845D02*
X009506Y019845D01*
X009506Y019846D02*
X009889Y019846D01*
X009890Y019847D02*
X009506Y019847D01*
X009506Y019848D02*
X009892Y019848D01*
X009893Y019849D02*
X009506Y019849D01*
X009506Y019850D02*
X009894Y019850D01*
X009896Y019851D02*
X009506Y019851D01*
X009506Y019852D02*
X009897Y019852D01*
X009898Y019853D02*
X009506Y019853D01*
X009507Y019854D02*
X009900Y019854D01*
X009901Y019855D02*
X009507Y019855D01*
X009507Y019856D02*
X009902Y019856D01*
X009904Y019857D02*
X009507Y019857D01*
X009507Y019858D02*
X009905Y019858D01*
X009906Y019859D02*
X009507Y019859D01*
X009507Y019860D02*
X009908Y019860D01*
X009909Y019861D02*
X009507Y019861D01*
X009507Y019862D02*
X009911Y019862D01*
X009911Y019863D02*
X009507Y019863D01*
X009507Y019864D02*
X009912Y019864D01*
X009913Y019865D02*
X009507Y019865D01*
X009507Y019866D02*
X009914Y019866D01*
X009915Y019867D02*
X009507Y019867D01*
X009507Y019868D02*
X009916Y019868D01*
X009916Y019869D02*
X009507Y019869D01*
X009507Y019870D02*
X009917Y019870D01*
X009918Y019871D02*
X009507Y019871D01*
X009508Y019872D02*
X009919Y019872D01*
X009920Y019873D02*
X009508Y019873D01*
X009508Y019874D02*
X009921Y019874D01*
X009921Y019875D02*
X009508Y019875D01*
X009508Y019876D02*
X009922Y019876D01*
X009923Y019877D02*
X009508Y019877D01*
X009508Y019878D02*
X009924Y019878D01*
X009925Y019879D02*
X009508Y019879D01*
X009508Y019880D02*
X009926Y019880D01*
X009926Y019881D02*
X009508Y019881D01*
X009509Y019882D02*
X009927Y019882D01*
X009928Y019883D02*
X009509Y019883D01*
X009509Y019884D02*
X009929Y019884D01*
X009930Y019885D02*
X009509Y019885D01*
X009509Y019886D02*
X009931Y019886D01*
X009931Y019887D02*
X009509Y019887D01*
X009509Y019888D02*
X009932Y019888D01*
X009933Y019889D02*
X009509Y019889D01*
X009509Y019890D02*
X009934Y019890D01*
X009935Y019891D02*
X009510Y019891D01*
X009510Y019892D02*
X009936Y019892D01*
X009936Y019893D02*
X009510Y019893D01*
X009510Y019894D02*
X009937Y019894D01*
X009938Y019895D02*
X009510Y019895D01*
X009510Y019896D02*
X009939Y019896D01*
X009940Y019897D02*
X009510Y019897D01*
X009510Y019898D02*
X009941Y019898D01*
X009941Y019899D02*
X009510Y019899D01*
X009510Y019900D02*
X009942Y019900D01*
X009943Y019901D02*
X009511Y019901D01*
X009511Y019902D02*
X009944Y019902D01*
X009945Y019903D02*
X009511Y019903D01*
X009511Y019904D02*
X009946Y019904D01*
X009946Y019905D02*
X009511Y019905D01*
X009511Y019906D02*
X009947Y019906D01*
X009948Y019907D02*
X009511Y019907D01*
X009511Y019908D02*
X009949Y019908D01*
X009950Y019909D02*
X009511Y019909D01*
X009511Y019910D02*
X009951Y019910D01*
X009951Y019911D02*
X009512Y019911D01*
X009512Y019912D02*
X009952Y019912D01*
X009953Y019913D02*
X009512Y019913D01*
X009512Y019914D02*
X009954Y019914D01*
X009955Y019915D02*
X009512Y019915D01*
X009512Y019916D02*
X009956Y019916D01*
X009956Y019917D02*
X009512Y019917D01*
X009512Y019918D02*
X009957Y019918D01*
X009957Y019919D02*
X009512Y019919D01*
X009513Y019920D02*
X009958Y019920D01*
X009959Y019921D02*
X009513Y019921D01*
X009513Y019922D02*
X009959Y019922D01*
X009960Y019923D02*
X009513Y019923D01*
X009513Y019924D02*
X009961Y019924D01*
X009961Y019925D02*
X009514Y019925D01*
X009514Y019926D02*
X009962Y019926D01*
X009962Y019927D02*
X009514Y019927D01*
X009514Y019928D02*
X009963Y019928D01*
X009964Y019929D02*
X009514Y019929D01*
X009515Y019930D02*
X009964Y019930D01*
X009965Y019931D02*
X009515Y019931D01*
X009515Y019932D02*
X009966Y019932D01*
X009966Y019933D02*
X009515Y019933D01*
X009515Y019934D02*
X009967Y019934D01*
X009968Y019935D02*
X009515Y019935D01*
X009516Y019936D02*
X009968Y019936D01*
X009969Y019937D02*
X009516Y019937D01*
X009516Y019938D02*
X009969Y019938D01*
X009970Y019939D02*
X009516Y019939D01*
X009516Y019940D02*
X009971Y019940D01*
X009971Y019941D02*
X009517Y019941D01*
X009517Y019942D02*
X009972Y019942D01*
X009973Y019943D02*
X009517Y019943D01*
X009517Y019944D02*
X009973Y019944D01*
X009974Y019945D02*
X009517Y019945D01*
X009518Y019946D02*
X009975Y019946D01*
X009975Y019947D02*
X009518Y019947D01*
X009518Y019948D02*
X009976Y019948D01*
X009976Y019949D02*
X009518Y019949D01*
X009518Y019950D02*
X009977Y019950D01*
X009978Y019951D02*
X009519Y019951D01*
X009519Y019952D02*
X009978Y019952D01*
X009979Y019953D02*
X009519Y019953D01*
X009519Y019954D02*
X009980Y019954D01*
X009980Y019955D02*
X009519Y019955D01*
X009520Y019956D02*
X009981Y019956D01*
X009981Y019957D02*
X009520Y019957D01*
X009520Y019958D02*
X009982Y019958D01*
X009983Y019959D02*
X009520Y019959D01*
X009520Y019960D02*
X009983Y019960D01*
X009984Y019961D02*
X009521Y019961D01*
X009521Y019962D02*
X009985Y019962D01*
X009985Y019963D02*
X009521Y019963D01*
X009521Y019964D02*
X009986Y019964D01*
X009987Y019965D02*
X009521Y019965D01*
X009521Y019966D02*
X009987Y019966D01*
X009988Y019967D02*
X009522Y019967D01*
X009522Y019968D02*
X009988Y019968D01*
X009989Y019969D02*
X009522Y019969D01*
X009522Y019970D02*
X009990Y019970D01*
X009990Y019971D02*
X009522Y019971D01*
X009523Y019972D02*
X009991Y019972D01*
X009992Y019973D02*
X009523Y019973D01*
X009523Y019974D02*
X009992Y019974D01*
X009993Y019975D02*
X009523Y019975D01*
X009524Y019976D02*
X009994Y019976D01*
X009994Y019977D02*
X009524Y019977D01*
X009524Y019978D02*
X009995Y019978D01*
X009995Y019979D02*
X009524Y019979D01*
X009525Y019980D02*
X009996Y019980D01*
X009997Y019981D02*
X009525Y019981D01*
X009525Y019982D02*
X009997Y019982D01*
X009998Y019983D02*
X009526Y019983D01*
X009526Y019984D02*
X009999Y019984D01*
X009999Y019985D02*
X009526Y019985D01*
X009527Y019986D02*
X010000Y019986D01*
X010001Y019987D02*
X009527Y019987D01*
X009527Y019988D02*
X010001Y019988D01*
X010002Y019989D02*
X009528Y019989D01*
X009528Y019990D02*
X010002Y019990D01*
X010002Y019991D02*
X009528Y019991D01*
X009529Y019992D02*
X010003Y019992D01*
X010003Y019993D02*
X009529Y019993D01*
X009529Y019994D02*
X010004Y019994D01*
X010004Y019995D02*
X009529Y019995D01*
X009530Y019996D02*
X010004Y019996D01*
X010005Y019997D02*
X009530Y019997D01*
X009530Y019998D02*
X010005Y019998D01*
X010005Y019999D02*
X009531Y019999D01*
X009531Y020000D02*
X010006Y020000D01*
X010006Y020001D02*
X009531Y020001D01*
X009532Y020002D02*
X010006Y020002D01*
X010007Y020003D02*
X009532Y020003D01*
X009532Y020004D02*
X010007Y020004D01*
X010007Y020005D02*
X009533Y020005D01*
X009533Y020006D02*
X010008Y020006D01*
X010008Y020007D02*
X009533Y020007D01*
X009533Y020008D02*
X010008Y020008D01*
X010009Y020009D02*
X009534Y020009D01*
X009534Y020010D02*
X010009Y020010D01*
X010009Y020011D02*
X009534Y020011D01*
X009535Y020012D02*
X010010Y020012D01*
X010010Y020013D02*
X009535Y020013D01*
X009535Y020014D02*
X010011Y020014D01*
X010011Y020015D02*
X009536Y020015D01*
X009536Y020016D02*
X010011Y020016D01*
X010012Y020017D02*
X009536Y020017D01*
X009537Y020018D02*
X010012Y020018D01*
X010012Y020019D02*
X009537Y020019D01*
X009537Y020020D02*
X010013Y020020D01*
X010013Y020021D02*
X009538Y020021D01*
X009538Y020022D02*
X010013Y020022D01*
X010014Y020023D02*
X009538Y020023D01*
X009538Y020024D02*
X010014Y020024D01*
X010014Y020025D02*
X009539Y020025D01*
X009539Y020026D02*
X010015Y020026D01*
X010015Y020027D02*
X009539Y020027D01*
X009540Y020028D02*
X010015Y020028D01*
X010016Y020029D02*
X009540Y020029D01*
X009540Y020030D02*
X010016Y020030D01*
X010016Y020031D02*
X009541Y020031D01*
X009541Y020032D02*
X010017Y020032D01*
X010017Y020033D02*
X009541Y020033D01*
X009542Y020034D02*
X010017Y020034D01*
X010018Y020035D02*
X009542Y020035D01*
X009542Y020036D02*
X010018Y020036D01*
X010019Y020037D02*
X009543Y020037D01*
X009543Y020038D02*
X010019Y020038D01*
X010019Y020039D02*
X009543Y020039D01*
X009543Y020040D02*
X010020Y020040D01*
X010020Y020041D02*
X009544Y020041D01*
X009544Y020042D02*
X010020Y020042D01*
X010021Y020043D02*
X009544Y020043D01*
X009545Y020044D02*
X010021Y020044D01*
X010021Y020045D02*
X009545Y020045D01*
X009545Y020046D02*
X010022Y020046D01*
X010022Y020047D02*
X009546Y020047D01*
X009546Y020048D02*
X010022Y020048D01*
X010023Y020049D02*
X009546Y020049D01*
X009547Y020050D02*
X010023Y020050D01*
X010023Y020051D02*
X009547Y020051D01*
X009547Y020052D02*
X010024Y020052D01*
X010024Y020053D02*
X009547Y020053D01*
X009548Y020054D02*
X010024Y020054D01*
X010025Y020055D02*
X009548Y020055D01*
X009549Y020056D02*
X010025Y020056D01*
X010025Y020057D02*
X009549Y020057D01*
X009550Y020058D02*
X010026Y020058D01*
X010026Y020059D02*
X009550Y020059D01*
X009551Y020060D02*
X010027Y020060D01*
X010027Y020061D02*
X009551Y020061D01*
X009552Y020062D02*
X010027Y020062D01*
X010028Y020063D02*
X009552Y020063D01*
X009553Y020064D02*
X010028Y020064D01*
X010028Y020065D02*
X009553Y020065D01*
X009554Y020066D02*
X010029Y020066D01*
X010029Y020067D02*
X009554Y020067D01*
X009555Y020068D02*
X010029Y020068D01*
X010029Y020069D02*
X009555Y020069D01*
X009556Y020070D02*
X010029Y020070D01*
X010029Y020071D02*
X009556Y020071D01*
X009557Y020072D02*
X010029Y020072D01*
X010029Y020073D02*
X009557Y020073D01*
X009558Y020074D02*
X010029Y020074D01*
X010029Y020075D02*
X009558Y020075D01*
X009559Y020076D02*
X010029Y020076D01*
X010029Y020077D02*
X009559Y020077D01*
X009560Y020078D02*
X010029Y020078D01*
X010029Y020079D02*
X009560Y020079D01*
X009561Y020080D02*
X010029Y020080D01*
X010030Y020081D02*
X009561Y020081D01*
X009562Y020082D02*
X010030Y020082D01*
X010030Y020083D02*
X009562Y020083D01*
X009563Y020084D02*
X010030Y020084D01*
X010030Y020085D02*
X009563Y020085D01*
X009564Y020086D02*
X010030Y020086D01*
X010030Y020087D02*
X009564Y020087D01*
X009565Y020088D02*
X010030Y020088D01*
X010030Y020089D02*
X009565Y020089D01*
X009566Y020090D02*
X010030Y020090D01*
X010030Y020091D02*
X009566Y020091D01*
X009567Y020092D02*
X010030Y020092D01*
X010030Y020093D02*
X009567Y020093D01*
X009568Y020094D02*
X010030Y020094D01*
X010030Y020095D02*
X009568Y020095D01*
X009569Y020096D02*
X010030Y020096D01*
X010031Y020097D02*
X009569Y020097D01*
X009570Y020098D02*
X010031Y020098D01*
X010031Y020099D02*
X009570Y020099D01*
X009571Y020100D02*
X010031Y020100D01*
X010031Y020101D02*
X009571Y020101D01*
X009572Y020102D02*
X010031Y020102D01*
X010031Y020103D02*
X009572Y020103D01*
X009573Y020104D02*
X010031Y020104D01*
X010031Y020105D02*
X009573Y020105D01*
X009574Y020106D02*
X010031Y020106D01*
X010031Y020107D02*
X009574Y020107D01*
X009575Y020108D02*
X010031Y020108D01*
X010031Y020109D02*
X009575Y020109D01*
X009576Y020110D02*
X010031Y020110D01*
X010031Y020111D02*
X009576Y020111D01*
X009577Y020112D02*
X010031Y020112D01*
X010032Y020113D02*
X009577Y020113D01*
X009578Y020114D02*
X010032Y020114D01*
X010032Y020115D02*
X009578Y020115D01*
X009579Y020116D02*
X010032Y020116D01*
X010032Y020117D02*
X009579Y020117D01*
X009580Y020118D02*
X010032Y020118D01*
X010032Y020119D02*
X009580Y020119D01*
X009581Y020120D02*
X010032Y020120D01*
X010032Y020121D02*
X009581Y020121D01*
X009582Y020122D02*
X010032Y020122D01*
X010032Y020123D02*
X009582Y020123D01*
X009583Y020124D02*
X010032Y020124D01*
X010032Y020125D02*
X009583Y020125D01*
X009584Y020126D02*
X010032Y020126D01*
X010032Y020127D02*
X009584Y020127D01*
X009585Y020128D02*
X010032Y020128D01*
X010033Y020129D02*
X009585Y020129D01*
X009586Y020130D02*
X010033Y020130D01*
X010033Y020131D02*
X009587Y020131D01*
X009587Y020132D02*
X010033Y020132D01*
X010033Y020133D02*
X009588Y020133D01*
X009589Y020134D02*
X010033Y020134D01*
X010033Y020135D02*
X009589Y020135D01*
X009590Y020136D02*
X010033Y020136D01*
X010033Y020137D02*
X009591Y020137D01*
X009591Y020138D02*
X010033Y020138D01*
X010033Y020139D02*
X009592Y020139D01*
X009593Y020140D02*
X010033Y020140D01*
X010033Y020141D02*
X009593Y020141D01*
X009594Y020142D02*
X010033Y020142D01*
X010033Y020143D02*
X009595Y020143D01*
X009595Y020144D02*
X010033Y020144D01*
X010034Y020145D02*
X009596Y020145D01*
X009597Y020146D02*
X010034Y020146D01*
X010034Y020147D02*
X009597Y020147D01*
X009598Y020148D02*
X010034Y020148D01*
X010034Y020149D02*
X009599Y020149D01*
X009599Y020150D02*
X010034Y020150D01*
X010034Y020151D02*
X009600Y020151D01*
X009601Y020152D02*
X010034Y020152D01*
X010034Y020153D02*
X009601Y020153D01*
X009602Y020154D02*
X010034Y020154D01*
X010033Y020155D02*
X009603Y020155D01*
X009603Y020156D02*
X010033Y020156D01*
X010033Y020157D02*
X009604Y020157D01*
X009605Y020158D02*
X010033Y020158D01*
X010033Y020159D02*
X009605Y020159D01*
X009606Y020160D02*
X010032Y020160D01*
X010032Y020161D02*
X009607Y020161D01*
X009607Y020162D02*
X010032Y020162D01*
X010032Y020163D02*
X009608Y020163D01*
X009609Y020164D02*
X010032Y020164D01*
X010032Y020165D02*
X009609Y020165D01*
X009610Y020166D02*
X010031Y020166D01*
X010031Y020167D02*
X009611Y020167D01*
X009611Y020168D02*
X010031Y020168D01*
X010031Y020169D02*
X009612Y020169D01*
X009613Y020170D02*
X010031Y020170D01*
X010030Y020171D02*
X009613Y020171D01*
X009614Y020172D02*
X010030Y020172D01*
X010030Y020173D02*
X009615Y020173D01*
X009615Y020174D02*
X010030Y020174D01*
X010030Y020175D02*
X009616Y020175D01*
X009617Y020176D02*
X010030Y020176D01*
X010029Y020177D02*
X009617Y020177D01*
X009618Y020178D02*
X010029Y020178D01*
X010029Y020179D02*
X009619Y020179D01*
X009619Y020180D02*
X010029Y020180D01*
X010029Y020181D02*
X009620Y020181D01*
X009621Y020182D02*
X010028Y020182D01*
X010028Y020183D02*
X009621Y020183D01*
X009622Y020184D02*
X010028Y020184D01*
X010028Y020185D02*
X009623Y020185D01*
X009623Y020186D02*
X010028Y020186D01*
X010028Y020187D02*
X009624Y020187D01*
X009625Y020188D02*
X010027Y020188D01*
X010027Y020189D02*
X009625Y020189D01*
X009626Y020190D02*
X010027Y020190D01*
X010027Y020191D02*
X009627Y020191D01*
X009628Y020192D02*
X010027Y020192D01*
X010026Y020193D02*
X009628Y020193D01*
X009629Y020194D02*
X010026Y020194D01*
X010026Y020195D02*
X009630Y020195D01*
X009631Y020196D02*
X010026Y020196D01*
X010026Y020197D02*
X009632Y020197D01*
X009633Y020198D02*
X010026Y020198D01*
X010025Y020199D02*
X009634Y020199D01*
X009634Y020200D02*
X010025Y020200D01*
X010025Y020201D02*
X009635Y020201D01*
X009636Y020202D02*
X010025Y020202D01*
X010025Y020203D02*
X009637Y020203D01*
X009638Y020204D02*
X010024Y020204D01*
X010024Y020205D02*
X009639Y020205D01*
X009640Y020206D02*
X010024Y020206D01*
X010024Y020207D02*
X009641Y020207D01*
X009641Y020208D02*
X010024Y020208D01*
X010024Y020209D02*
X009642Y020209D01*
X009643Y020210D02*
X010023Y020210D01*
X010023Y020211D02*
X009644Y020211D01*
X009645Y020212D02*
X010023Y020212D01*
X010023Y020213D02*
X009646Y020213D01*
X009647Y020214D02*
X010023Y020214D01*
X010022Y020215D02*
X009647Y020215D01*
X009648Y020216D02*
X010022Y020216D01*
X010022Y020217D02*
X009649Y020217D01*
X009650Y020218D02*
X010022Y020218D01*
X010022Y020219D02*
X009651Y020219D01*
X009652Y020220D02*
X010022Y020220D01*
X010021Y020221D02*
X009653Y020221D01*
X009654Y020222D02*
X010021Y020222D01*
X010021Y020223D02*
X009654Y020223D01*
X009655Y020224D02*
X010021Y020224D01*
X010021Y020225D02*
X009656Y020225D01*
X009657Y020226D02*
X010020Y020226D01*
X010020Y020227D02*
X009658Y020227D01*
X009659Y020228D02*
X010020Y020228D01*
X010020Y020229D02*
X009660Y020229D01*
X009660Y020230D02*
X010020Y020230D01*
X010019Y020231D02*
X009661Y020231D01*
X009662Y020232D02*
X010019Y020232D01*
X010018Y020233D02*
X009663Y020233D01*
X009664Y020234D02*
X010018Y020234D01*
X010017Y020235D02*
X009665Y020235D01*
X009666Y020236D02*
X010017Y020236D01*
X010016Y020237D02*
X009666Y020237D01*
X009667Y020238D02*
X010016Y020238D01*
X010015Y020239D02*
X009668Y020239D01*
X009669Y020240D02*
X010015Y020240D01*
X010014Y020241D02*
X009670Y020241D01*
X009671Y020242D02*
X010014Y020242D01*
X010013Y020243D02*
X009672Y020243D01*
X009673Y020244D02*
X010013Y020244D01*
X010012Y020245D02*
X009673Y020245D01*
X009675Y020246D02*
X010012Y020246D01*
X010011Y020247D02*
X009676Y020247D01*
X009677Y020248D02*
X010011Y020248D01*
X010010Y020249D02*
X009678Y020249D01*
X009679Y020250D02*
X010010Y020250D01*
X010009Y020251D02*
X009680Y020251D01*
X009681Y020252D02*
X010009Y020252D01*
X010008Y020253D02*
X009683Y020253D01*
X009684Y020254D02*
X010008Y020254D01*
X010007Y020255D02*
X009685Y020255D01*
X009686Y020256D02*
X010007Y020256D01*
X010006Y020257D02*
X009687Y020257D01*
X009688Y020258D02*
X010006Y020258D01*
X010005Y020259D02*
X009689Y020259D01*
X009690Y020260D02*
X010005Y020260D01*
X010004Y020261D02*
X009692Y020261D01*
X009693Y020262D02*
X010004Y020262D01*
X010003Y020263D02*
X009694Y020263D01*
X009695Y020264D02*
X010003Y020264D01*
X010002Y020265D02*
X009696Y020265D01*
X009697Y020266D02*
X010002Y020266D01*
X010001Y020267D02*
X009698Y020267D01*
X009699Y020268D02*
X010001Y020268D01*
X010000Y020269D02*
X009701Y020269D01*
X009702Y020270D02*
X010000Y020270D01*
X009999Y020271D02*
X009703Y020271D01*
X009704Y020272D02*
X009999Y020272D01*
X009998Y020273D02*
X009705Y020273D01*
X009706Y020274D02*
X009998Y020274D01*
X009997Y020275D02*
X009707Y020275D01*
X009708Y020276D02*
X009997Y020276D01*
X009996Y020277D02*
X009710Y020277D01*
X009711Y020278D02*
X009995Y020278D01*
X009995Y020279D02*
X009712Y020279D01*
X009713Y020280D02*
X009994Y020280D01*
X009993Y020281D02*
X009714Y020281D01*
X009715Y020282D02*
X009992Y020282D01*
X009991Y020282D02*
X010067Y020282D01*
X010067Y020283D02*
X009990Y020283D01*
X009990Y020284D02*
X009718Y020284D01*
X009719Y020285D02*
X009989Y020285D01*
X010067Y020285D01*
X010067Y020286D02*
X009988Y020286D01*
X009720Y020286D01*
X009722Y020287D02*
X009987Y020287D01*
X010067Y020287D01*
X010067Y020288D02*
X009986Y020288D01*
X009723Y020288D01*
X009725Y020289D02*
X009985Y020289D01*
X010067Y020289D01*
X010067Y020290D02*
X009984Y020290D01*
X009727Y020290D01*
X009729Y020291D02*
X009983Y020291D01*
X010067Y020291D01*
X010067Y020292D02*
X009982Y020292D01*
X009982Y020293D02*
X009732Y020293D01*
X009731Y020292D02*
X009983Y020292D01*
X009981Y020293D02*
X010067Y020293D01*
X010067Y020294D02*
X009980Y020294D01*
X009980Y020295D02*
X009736Y020295D01*
X009738Y020296D02*
X009979Y020296D01*
X010068Y020296D01*
X010068Y020297D02*
X009978Y020297D01*
X009740Y020297D01*
X009741Y020298D02*
X009977Y020298D01*
X010068Y020298D01*
X010068Y020299D02*
X009976Y020299D01*
X009743Y020299D01*
X009745Y020300D02*
X009975Y020300D01*
X010068Y020300D01*
X010068Y020301D02*
X009974Y020301D01*
X009747Y020301D01*
X009749Y020302D02*
X009973Y020302D01*
X010068Y020302D01*
X010068Y020303D02*
X009972Y020303D01*
X009750Y020303D01*
X009752Y020304D02*
X009972Y020304D01*
X009971Y020304D02*
X010068Y020304D01*
X010068Y020305D02*
X009970Y020305D01*
X009970Y020306D02*
X009756Y020306D01*
X009758Y020307D02*
X009969Y020307D01*
X009968Y020307D02*
X010068Y020307D01*
X010069Y020308D02*
X009967Y020308D01*
X009967Y020309D02*
X009761Y020309D01*
X009763Y020310D02*
X009966Y020310D01*
X009965Y020310D02*
X010069Y020310D01*
X010069Y020311D02*
X009964Y020311D01*
X009964Y020312D02*
X009767Y020312D01*
X009768Y020313D02*
X009963Y020313D01*
X009962Y020313D02*
X010069Y020313D01*
X010069Y020314D02*
X009961Y020314D01*
X009961Y020315D02*
X009772Y020315D01*
X009774Y020316D02*
X009960Y020316D01*
X009960Y020317D02*
X009776Y020317D01*
X009777Y020318D02*
X009959Y020318D01*
X009958Y020319D02*
X009779Y020319D01*
X009781Y020320D02*
X009957Y020320D01*
X009956Y020321D02*
X009783Y020321D01*
X009786Y020322D02*
X009955Y020322D01*
X009954Y020323D02*
X009791Y020323D01*
X009795Y020324D02*
X009953Y020324D01*
X009952Y020325D02*
X009800Y020325D01*
X009805Y020326D02*
X009950Y020326D01*
X009949Y020326D02*
X010068Y020326D01*
X010068Y020327D02*
X009948Y020327D01*
X009948Y020328D02*
X009815Y020328D01*
X009819Y020329D02*
X009946Y020329D01*
X010067Y020329D01*
X010067Y020330D02*
X009945Y020330D01*
X009824Y020330D01*
X009829Y020331D02*
X009944Y020331D01*
X010066Y020331D01*
X010066Y020332D02*
X009943Y020332D01*
X009942Y020332D02*
X009834Y020332D01*
X009839Y020333D02*
X009941Y020333D01*
X009941Y020334D02*
X010065Y020334D01*
X010064Y020335D02*
X009939Y020335D01*
X009848Y020335D01*
X009853Y020336D02*
X009937Y020336D01*
X009937Y020337D02*
X010063Y020337D01*
X010063Y020338D02*
X009936Y020338D01*
X009935Y020338D02*
X009862Y020338D01*
X009858Y020337D02*
X009936Y020337D01*
X009934Y020339D02*
X010062Y020339D01*
X010062Y020340D02*
X009933Y020340D01*
X009932Y020340D02*
X009887Y020340D01*
X009867Y020339D02*
X009933Y020339D01*
X009932Y020341D02*
X010062Y020341D01*
X010061Y020342D02*
X009930Y020342D01*
X009929Y020343D02*
X010061Y020343D01*
X010060Y020344D02*
X009928Y020344D01*
X009927Y020345D02*
X010060Y020345D01*
X010059Y020346D02*
X009926Y020346D01*
X009926Y020347D02*
X010059Y020347D01*
X010058Y020348D02*
X009926Y020348D01*
X009925Y020349D02*
X010058Y020349D01*
X010057Y020350D02*
X009925Y020350D01*
X009925Y020351D02*
X010057Y020351D01*
X010056Y020352D02*
X009924Y020352D01*
X009924Y020353D02*
X010056Y020353D01*
X010056Y020354D02*
X009924Y020354D01*
X009923Y020355D02*
X010055Y020355D01*
X010055Y020356D02*
X009923Y020356D01*
X009923Y020357D02*
X010054Y020357D01*
X010054Y020358D02*
X009922Y020358D01*
X009922Y020359D02*
X010053Y020359D01*
X010053Y020360D02*
X009922Y020360D01*
X009921Y020361D02*
X010052Y020361D01*
X010052Y020362D02*
X009920Y020362D01*
X009918Y020363D02*
X010051Y020363D01*
X010051Y020364D02*
X009917Y020364D01*
X009915Y020365D02*
X010050Y020365D01*
X010050Y020366D02*
X009914Y020366D01*
X009912Y020367D02*
X010049Y020367D01*
X010049Y020368D02*
X009911Y020368D01*
X009908Y020369D02*
X010049Y020369D01*
X010048Y020370D02*
X009905Y020370D01*
X009904Y020371D02*
X009618Y020371D01*
X009619Y020372D02*
X009902Y020372D01*
X009903Y020371D02*
X010048Y020371D01*
X010047Y020372D02*
X009900Y020372D01*
X009899Y020373D02*
X009621Y020373D01*
X009623Y020374D02*
X009897Y020374D01*
X009897Y020373D02*
X010047Y020373D01*
X010046Y020374D02*
X009894Y020374D01*
X009626Y020374D01*
X009629Y020375D02*
X009892Y020375D01*
X009891Y020374D02*
X010045Y020374D01*
X010044Y020375D02*
X009889Y020375D01*
X009889Y020376D02*
X009633Y020376D01*
X009636Y020377D02*
X009887Y020377D01*
X009886Y020376D02*
X010043Y020376D01*
X010042Y020377D02*
X009883Y020377D01*
X009884Y020378D02*
X009639Y020378D01*
X009642Y020379D02*
X009882Y020379D01*
X009880Y020378D02*
X010041Y020378D01*
X010040Y020379D02*
X009877Y020379D01*
X009879Y020380D02*
X009645Y020380D01*
X009648Y020381D02*
X009876Y020381D01*
X009875Y020380D02*
X010039Y020380D01*
X010038Y020381D02*
X009872Y020381D01*
X009873Y020382D02*
X009651Y020382D01*
X009655Y020383D02*
X009870Y020383D01*
X009869Y020382D02*
X010038Y020382D01*
X010037Y020383D02*
X009866Y020383D01*
X009867Y020384D02*
X009658Y020384D01*
X009661Y020385D02*
X009863Y020385D01*
X009863Y020384D02*
X010036Y020384D01*
X010035Y020385D02*
X009861Y020385D01*
X009860Y020386D02*
X009664Y020386D01*
X009667Y020387D02*
X009857Y020387D01*
X009858Y020386D02*
X010034Y020386D01*
X010033Y020387D02*
X009855Y020387D01*
X009854Y020388D02*
X009670Y020388D01*
X009673Y020389D02*
X009851Y020389D01*
X009852Y020388D02*
X010032Y020388D01*
X010031Y020389D02*
X009849Y020389D01*
X009848Y020390D02*
X009677Y020390D01*
X009680Y020391D02*
X009844Y020391D01*
X010029Y020391D01*
X010030Y020390D02*
X009846Y020390D01*
X009841Y020392D02*
X009683Y020392D01*
X009686Y020393D02*
X009838Y020393D01*
X010027Y020393D01*
X010028Y020392D02*
X009841Y020392D01*
X009835Y020394D02*
X010026Y020394D01*
X010025Y020395D02*
X009832Y020395D01*
X009692Y020395D01*
X009689Y020394D02*
X009835Y020394D01*
X009829Y020396D02*
X010024Y020396D01*
X010023Y020397D02*
X009826Y020397D01*
X009825Y020397D02*
X009708Y020397D01*
X009698Y020396D02*
X009829Y020396D01*
X009823Y020398D02*
X010022Y020398D01*
X010022Y020399D02*
X009819Y020399D01*
X009729Y020399D01*
X009719Y020398D02*
X009822Y020398D01*
X009816Y020400D02*
X009740Y020400D01*
X009750Y020401D02*
X009813Y020401D01*
X009811Y020401D02*
X010020Y020401D01*
X010021Y020400D02*
X009815Y020400D01*
X009811Y020400D02*
X009811Y020400D01*
X009811Y020401D02*
X009811Y020401D01*
X009811Y020402D02*
X010019Y020402D01*
X010018Y020403D02*
X009811Y020403D01*
X009811Y020404D02*
X010016Y020404D01*
X010015Y020405D02*
X009811Y020405D01*
X009811Y020406D02*
X010014Y020406D01*
X010013Y020407D02*
X009812Y020407D01*
X009812Y020408D02*
X010011Y020408D01*
X010010Y020409D02*
X009812Y020409D01*
X009812Y020410D02*
X010009Y020410D01*
X010007Y020411D02*
X009812Y020411D01*
X009812Y020412D02*
X010006Y020412D01*
X010005Y020413D02*
X009812Y020413D01*
X009812Y020414D02*
X010004Y020414D01*
X010002Y020415D02*
X009812Y020415D01*
X009812Y020416D02*
X010001Y020416D01*
X010000Y020417D02*
X009813Y020417D01*
X009813Y020418D02*
X009998Y020418D01*
X009997Y020419D02*
X009813Y020419D01*
X009813Y020420D02*
X009996Y020420D01*
X009995Y020421D02*
X009813Y020421D01*
X009813Y020422D02*
X009993Y020422D01*
X009992Y020423D02*
X009813Y020423D01*
X009813Y020424D02*
X009991Y020424D01*
X009989Y020425D02*
X009813Y020425D01*
X009814Y020426D02*
X009988Y020426D01*
X009987Y020427D02*
X009814Y020427D01*
X009814Y020428D02*
X009986Y020428D01*
X009984Y020429D02*
X009814Y020429D01*
X009814Y020430D02*
X009982Y020430D01*
X009980Y020431D02*
X009814Y020431D01*
X009814Y020432D02*
X009979Y020432D01*
X009977Y020433D02*
X009814Y020433D01*
X009815Y020434D02*
X009975Y020434D01*
X009974Y020435D02*
X009816Y020435D01*
X009817Y020436D02*
X009972Y020436D01*
X009970Y020437D02*
X009818Y020437D01*
X009819Y020438D02*
X009969Y020438D01*
X009967Y020439D02*
X009821Y020439D01*
X009822Y020440D02*
X009965Y020440D01*
X009964Y020441D02*
X009823Y020441D01*
X009824Y020442D02*
X009962Y020442D01*
X009960Y020443D02*
X009825Y020443D01*
X009826Y020444D02*
X009959Y020444D01*
X009957Y020445D02*
X009827Y020445D01*
X009828Y020446D02*
X009955Y020446D01*
X009953Y020447D02*
X009829Y020447D01*
X009830Y020448D02*
X009952Y020448D01*
X009950Y020449D02*
X009831Y020449D01*
X009833Y020450D02*
X009948Y020450D01*
X009947Y020451D02*
X009834Y020451D01*
X009835Y020452D02*
X009943Y020452D01*
X009939Y020453D02*
X009836Y020453D01*
X009840Y020454D02*
X009936Y020454D01*
X009932Y020455D02*
X009844Y020455D01*
X009847Y020456D02*
X009928Y020456D01*
X009924Y020457D02*
X009851Y020457D01*
X009855Y020458D02*
X009920Y020458D01*
X009917Y020459D02*
X009859Y020459D01*
X009863Y020460D02*
X009913Y020460D01*
X009890Y020461D02*
X009866Y020461D01*
X009865Y020369D02*
X009615Y020369D01*
X009616Y020370D02*
X009907Y020370D01*
X009921Y020341D02*
X009931Y020341D01*
X009938Y020336D02*
X010064Y020336D01*
X010065Y020333D02*
X009942Y020333D01*
X009940Y020334D02*
X009843Y020334D01*
X009810Y020327D02*
X009949Y020327D01*
X009947Y020328D02*
X010068Y020328D01*
X010069Y020325D02*
X009950Y020325D01*
X009951Y020324D02*
X010069Y020324D01*
X010070Y020323D02*
X009952Y020323D01*
X009953Y020322D02*
X010070Y020322D01*
X010070Y020321D02*
X009954Y020321D01*
X009955Y020320D02*
X010069Y020320D01*
X010069Y020319D02*
X009956Y020319D01*
X009957Y020318D02*
X010069Y020318D01*
X010069Y020317D02*
X009958Y020317D01*
X009959Y020316D02*
X010069Y020316D01*
X010069Y020315D02*
X009960Y020315D01*
X009962Y020314D02*
X009770Y020314D01*
X009765Y020311D02*
X009965Y020311D01*
X009963Y020312D02*
X010069Y020312D01*
X010069Y020309D02*
X009966Y020309D01*
X009968Y020308D02*
X009759Y020308D01*
X009754Y020305D02*
X009971Y020305D01*
X009969Y020306D02*
X010068Y020306D01*
X010068Y020295D02*
X009979Y020295D01*
X009981Y020294D02*
X009734Y020294D01*
X009716Y020283D02*
X009991Y020283D01*
X009990Y020284D02*
X010067Y020284D01*
X010066Y020281D02*
X009992Y020281D01*
X009992Y020280D02*
X010066Y020280D01*
X010066Y020279D02*
X009993Y020279D01*
X009993Y020278D02*
X010066Y020278D01*
X010066Y020277D02*
X009994Y020277D01*
X009995Y020276D02*
X010065Y020276D01*
X010064Y020275D02*
X009995Y020275D01*
X009996Y020274D02*
X010063Y020274D01*
X010062Y020273D02*
X009996Y020273D01*
X009997Y020272D02*
X010060Y020272D01*
X010059Y020271D02*
X009997Y020271D01*
X009998Y020270D02*
X010058Y020270D01*
X010057Y020269D02*
X009998Y020269D01*
X009999Y020268D02*
X010056Y020268D01*
X010055Y020267D02*
X010000Y020267D01*
X010000Y020266D02*
X010054Y020266D01*
X010052Y020265D02*
X010001Y020265D01*
X010001Y020264D02*
X010051Y020264D01*
X010050Y020263D02*
X010002Y020263D01*
X010002Y020262D02*
X010049Y020262D01*
X010048Y020261D02*
X010003Y020261D01*
X010003Y020260D02*
X010047Y020260D01*
X010045Y020259D02*
X010004Y020259D01*
X010004Y020258D02*
X010044Y020258D01*
X010043Y020257D02*
X010005Y020257D01*
X010006Y020256D02*
X010042Y020256D01*
X010041Y020255D02*
X010006Y020255D01*
X010007Y020254D02*
X010040Y020254D01*
X010037Y020253D02*
X010007Y020253D01*
X010008Y020252D02*
X010033Y020252D01*
X010030Y020251D02*
X010008Y020251D01*
X010009Y020250D02*
X010026Y020250D01*
X010023Y020249D02*
X010009Y020249D01*
X010010Y020248D02*
X010019Y020248D01*
X010016Y020247D02*
X010011Y020247D01*
X009823Y020368D02*
X009613Y020368D01*
X009612Y020367D02*
X009821Y020367D01*
X009818Y020366D02*
X009610Y020366D01*
X009608Y020365D02*
X009816Y020365D01*
X009813Y020364D02*
X009607Y020364D01*
X009605Y020363D02*
X009811Y020363D01*
X009809Y020362D02*
X009604Y020362D01*
X009602Y020361D02*
X009806Y020361D01*
X009804Y020360D02*
X009601Y020360D01*
X009599Y020359D02*
X009801Y020359D01*
X009799Y020358D02*
X009598Y020358D01*
X009596Y020357D02*
X009796Y020357D01*
X009794Y020356D02*
X009595Y020356D01*
X009593Y020355D02*
X009792Y020355D01*
X009789Y020354D02*
X009592Y020354D01*
X009590Y020353D02*
X009787Y020353D01*
X009784Y020352D02*
X009589Y020352D01*
X009587Y020351D02*
X009782Y020351D01*
X009780Y020350D02*
X009586Y020350D01*
X009584Y020349D02*
X009777Y020349D01*
X009775Y020348D02*
X009582Y020348D01*
X009581Y020347D02*
X009772Y020347D01*
X009770Y020346D02*
X009579Y020346D01*
X009578Y020345D02*
X009768Y020345D01*
X009765Y020344D02*
X009576Y020344D01*
X009575Y020343D02*
X009763Y020343D01*
X009760Y020342D02*
X009573Y020342D01*
X009572Y020341D02*
X009758Y020341D01*
X009756Y020340D02*
X009570Y020340D01*
X009569Y020339D02*
X009753Y020339D01*
X009751Y020338D02*
X009567Y020338D01*
X009566Y020337D02*
X009749Y020337D01*
X009747Y020336D02*
X009564Y020336D01*
X009563Y020335D02*
X009746Y020335D01*
X009744Y020334D02*
X009561Y020334D01*
X009560Y020333D02*
X009742Y020333D01*
X009741Y020332D02*
X009558Y020332D01*
X009557Y020331D02*
X009739Y020331D01*
X009737Y020330D02*
X009555Y020330D01*
X009553Y020329D02*
X009736Y020329D01*
X009734Y020328D02*
X009552Y020328D01*
X009550Y020327D02*
X009732Y020327D01*
X009731Y020326D02*
X009549Y020326D01*
X009547Y020325D02*
X009729Y020325D01*
X009727Y020324D02*
X009546Y020324D01*
X009544Y020323D02*
X009726Y020323D01*
X009724Y020322D02*
X009543Y020322D01*
X009541Y020321D02*
X009722Y020321D01*
X009721Y020320D02*
X009540Y020320D01*
X009538Y020319D02*
X009719Y020319D01*
X009717Y020318D02*
X009537Y020318D01*
X009535Y020317D02*
X009716Y020317D01*
X009714Y020316D02*
X009534Y020316D01*
X009532Y020315D02*
X009713Y020315D01*
X009711Y020314D02*
X009531Y020314D01*
X009529Y020313D02*
X009709Y020313D01*
X009708Y020312D02*
X009528Y020312D01*
X009527Y020311D02*
X009706Y020311D01*
X009704Y020310D02*
X009526Y020310D01*
X009526Y020309D02*
X009703Y020309D01*
X009701Y020308D02*
X009525Y020308D01*
X009524Y020307D02*
X009699Y020307D01*
X009698Y020306D02*
X009523Y020306D01*
X009522Y020305D02*
X009696Y020305D01*
X009694Y020304D02*
X009521Y020304D01*
X009521Y020303D02*
X009693Y020303D01*
X009691Y020302D02*
X009520Y020302D01*
X009519Y020301D02*
X009689Y020301D01*
X009688Y020300D02*
X009518Y020300D01*
X009517Y020299D02*
X009686Y020299D01*
X009684Y020298D02*
X009517Y020298D01*
X009516Y020297D02*
X009683Y020297D01*
X009682Y020296D02*
X009515Y020296D01*
X009514Y020295D02*
X009680Y020295D01*
X009679Y020294D02*
X009513Y020294D01*
X009512Y020293D02*
X009678Y020293D01*
X009677Y020292D02*
X009512Y020292D01*
X009511Y020291D02*
X009676Y020291D01*
X009675Y020290D02*
X009510Y020290D01*
X009509Y020289D02*
X009674Y020289D01*
X009673Y020288D02*
X009508Y020288D01*
X009508Y020287D02*
X009672Y020287D01*
X009671Y020286D02*
X009507Y020286D01*
X009506Y020285D02*
X009670Y020285D01*
X009669Y020284D02*
X009505Y020284D01*
X009504Y020283D02*
X009668Y020283D01*
X009667Y020282D02*
X009504Y020282D01*
X009503Y020281D02*
X009666Y020281D01*
X009665Y020280D02*
X009502Y020280D01*
X009501Y020279D02*
X009664Y020279D01*
X009663Y020278D02*
X009500Y020278D01*
X009499Y020277D02*
X009662Y020277D01*
X009661Y020276D02*
X009499Y020276D01*
X009498Y020275D02*
X009660Y020275D01*
X009659Y020274D02*
X009497Y020274D01*
X009496Y020273D02*
X009658Y020273D01*
X009657Y020272D02*
X009495Y020272D01*
X009495Y020271D02*
X009655Y020271D01*
X009654Y020270D02*
X009494Y020270D01*
X009493Y020269D02*
X009653Y020269D01*
X009652Y020268D02*
X009492Y020268D01*
X009491Y020267D02*
X009651Y020267D01*
X009650Y020266D02*
X009490Y020266D01*
X009490Y020265D02*
X009649Y020265D01*
X009648Y020264D02*
X009489Y020264D01*
X009488Y020263D02*
X009647Y020263D01*
X009646Y020262D02*
X009487Y020262D01*
X009486Y020261D02*
X009645Y020261D01*
X009644Y020260D02*
X009486Y020260D01*
X009485Y020259D02*
X009643Y020259D01*
X009642Y020258D02*
X009484Y020258D01*
X009483Y020257D02*
X009641Y020257D01*
X009640Y020256D02*
X009482Y020256D01*
X009481Y020255D02*
X009639Y020255D01*
X009638Y020254D02*
X009481Y020254D01*
X009480Y020253D02*
X009637Y020253D01*
X009636Y020252D02*
X009479Y020252D01*
X009478Y020251D02*
X009635Y020251D01*
X009635Y020250D02*
X009477Y020250D01*
X009477Y020249D02*
X009634Y020249D01*
X009633Y020248D02*
X009476Y020248D01*
X009475Y020247D02*
X009632Y020247D01*
X009631Y020246D02*
X009474Y020246D01*
X009473Y020245D02*
X009631Y020245D01*
X009630Y020244D02*
X009473Y020244D01*
X009472Y020243D02*
X009629Y020243D01*
X009628Y020242D02*
X009471Y020242D01*
X009470Y020241D02*
X009628Y020241D01*
X009627Y020240D02*
X009469Y020240D01*
X009468Y020239D02*
X009626Y020239D01*
X009625Y020238D02*
X009468Y020238D01*
X009467Y020237D02*
X009624Y020237D01*
X009624Y020236D02*
X009466Y020236D01*
X009465Y020235D02*
X009623Y020235D01*
X009622Y020234D02*
X009464Y020234D01*
X009464Y020233D02*
X009621Y020233D01*
X009621Y020232D02*
X009463Y020232D01*
X009462Y020231D02*
X009620Y020231D01*
X009619Y020230D02*
X009461Y020230D01*
X009460Y020229D02*
X009618Y020229D01*
X009617Y020228D02*
X009459Y020228D01*
X009459Y020227D02*
X009617Y020227D01*
X009616Y020226D02*
X009458Y020226D01*
X009457Y020225D02*
X009615Y020225D01*
X009614Y020224D02*
X009457Y020224D01*
X009456Y020223D02*
X009614Y020223D01*
X009613Y020222D02*
X009456Y020222D01*
X009455Y020221D02*
X009612Y020221D01*
X009611Y020220D02*
X009455Y020220D01*
X009454Y020219D02*
X009610Y020219D01*
X009610Y020218D02*
X009454Y020218D01*
X009453Y020217D02*
X009609Y020217D01*
X009608Y020216D02*
X009453Y020216D01*
X009453Y020215D02*
X009607Y020215D01*
X009607Y020214D02*
X009452Y020214D01*
X009452Y020213D02*
X009606Y020213D01*
X009605Y020212D02*
X009451Y020212D01*
X009451Y020211D02*
X009604Y020211D01*
X009603Y020210D02*
X009450Y020210D01*
X009450Y020209D02*
X009603Y020209D01*
X009602Y020208D02*
X009449Y020208D01*
X009449Y020207D02*
X009601Y020207D01*
X009600Y020206D02*
X009448Y020206D01*
X009448Y020205D02*
X009599Y020205D01*
X009599Y020204D02*
X009448Y020204D01*
X009447Y020203D02*
X009598Y020203D01*
X009597Y020202D02*
X009447Y020202D01*
X009446Y020201D02*
X009596Y020201D01*
X009596Y020200D02*
X009446Y020200D01*
X009445Y020199D02*
X009595Y020199D01*
X009594Y020198D02*
X009445Y020198D01*
X009444Y020197D02*
X009593Y020197D01*
X009593Y020196D02*
X009444Y020196D01*
X009443Y020195D02*
X009592Y020195D01*
X009591Y020194D02*
X009443Y020194D01*
X009443Y020193D02*
X009591Y020193D01*
X009590Y020192D02*
X009442Y020192D01*
X009442Y020191D02*
X009590Y020191D01*
X009589Y020190D02*
X009441Y020190D01*
X009441Y020189D02*
X009588Y020189D01*
X009588Y020188D02*
X009440Y020188D01*
X009440Y020187D02*
X009587Y020187D01*
X009587Y020186D02*
X009439Y020186D01*
X009439Y020185D02*
X009586Y020185D01*
X009586Y020184D02*
X009438Y020184D01*
X009438Y020183D02*
X009585Y020183D01*
X009584Y020182D02*
X009438Y020182D01*
X009437Y020181D02*
X009584Y020181D01*
X009583Y020180D02*
X009437Y020180D01*
X009436Y020179D02*
X009583Y020179D01*
X009582Y020178D02*
X009436Y020178D01*
X009435Y020177D02*
X009581Y020177D01*
X009581Y020176D02*
X009435Y020176D01*
X009434Y020175D02*
X009580Y020175D01*
X009580Y020174D02*
X009434Y020174D01*
X009433Y020173D02*
X009579Y020173D01*
X009578Y020172D02*
X009433Y020172D01*
X009433Y020171D02*
X009578Y020171D01*
X009577Y020170D02*
X009432Y020170D01*
X009432Y020169D02*
X009577Y020169D01*
X009576Y020168D02*
X009431Y020168D01*
X009431Y020167D02*
X009576Y020167D01*
X009575Y020166D02*
X009430Y020166D01*
X009430Y020165D02*
X009574Y020165D01*
X009574Y020164D02*
X009429Y020164D01*
X009429Y020163D02*
X009573Y020163D01*
X009573Y020162D02*
X009428Y020162D01*
X009428Y020161D02*
X009572Y020161D01*
X009571Y020160D02*
X009428Y020160D01*
X009427Y020159D02*
X009571Y020159D01*
X009570Y020158D02*
X009427Y020158D01*
X009426Y020157D02*
X009570Y020157D01*
X009569Y020156D02*
X009426Y020156D01*
X009425Y020155D02*
X009569Y020155D01*
X009568Y020154D02*
X009425Y020154D01*
X009424Y020153D02*
X009567Y020153D01*
X009567Y020152D02*
X009424Y020152D01*
X009423Y020151D02*
X009566Y020151D01*
X009566Y020150D02*
X009423Y020150D01*
X009423Y020149D02*
X009565Y020149D01*
X009564Y020148D02*
X009422Y020148D01*
X009422Y020147D02*
X009564Y020147D01*
X009563Y020146D02*
X009421Y020146D01*
X009421Y020145D02*
X009563Y020145D01*
X009562Y020144D02*
X009420Y020144D01*
X009420Y020143D02*
X009561Y020143D01*
X009561Y020142D02*
X009419Y020142D01*
X009419Y020141D02*
X009560Y020141D01*
X009560Y020140D02*
X009418Y020140D01*
X009418Y020139D02*
X009559Y020139D01*
X009559Y020138D02*
X009418Y020138D01*
X009417Y020137D02*
X009558Y020137D01*
X009557Y020136D02*
X009417Y020136D01*
X009416Y020135D02*
X009557Y020135D01*
X009556Y020134D02*
X009416Y020134D01*
X009415Y020133D02*
X009556Y020133D01*
X009555Y020132D02*
X009415Y020132D01*
X009414Y020131D02*
X009554Y020131D01*
X009554Y020130D02*
X009414Y020130D01*
X009413Y020129D02*
X009553Y020129D01*
X009553Y020128D02*
X009413Y020128D01*
X009413Y020127D02*
X009552Y020127D01*
X009552Y020126D02*
X009412Y020126D01*
X009412Y020125D02*
X009551Y020125D01*
X009550Y020124D02*
X009412Y020124D01*
X009412Y020123D02*
X009550Y020123D01*
X009549Y020122D02*
X009412Y020122D01*
X009412Y020121D02*
X009549Y020121D01*
X009548Y020120D02*
X009412Y020120D01*
X009411Y020119D02*
X009547Y020119D01*
X009547Y020118D02*
X009411Y020118D01*
X009411Y020117D02*
X009546Y020117D01*
X009546Y020116D02*
X009411Y020116D01*
X009411Y020115D02*
X009545Y020115D01*
X009545Y020114D02*
X009411Y020114D01*
X009411Y020113D02*
X009544Y020113D01*
X009544Y020112D02*
X009410Y020112D01*
X009410Y020111D02*
X009543Y020111D01*
X009543Y020110D02*
X009410Y020110D01*
X009410Y020109D02*
X009542Y020109D01*
X009542Y020108D02*
X009410Y020108D01*
X009410Y020107D02*
X009542Y020107D01*
X009541Y020106D02*
X009410Y020106D01*
X009410Y020105D02*
X009541Y020105D01*
X009540Y020104D02*
X009409Y020104D01*
X009409Y020103D02*
X009540Y020103D01*
X009539Y020102D02*
X009409Y020102D01*
X009409Y020101D02*
X009539Y020101D01*
X009539Y020100D02*
X009409Y020100D01*
X009409Y020099D02*
X009538Y020099D01*
X009538Y020098D02*
X009409Y020098D01*
X009408Y020097D02*
X009537Y020097D01*
X009537Y020096D02*
X009408Y020096D01*
X009408Y020095D02*
X009536Y020095D01*
X009536Y020094D02*
X009408Y020094D01*
X009408Y020093D02*
X009536Y020093D01*
X009535Y020092D02*
X009408Y020092D01*
X009408Y020091D02*
X009535Y020091D01*
X009534Y020090D02*
X009407Y020090D01*
X009407Y020089D02*
X009534Y020089D01*
X009533Y020088D02*
X009407Y020088D01*
X009407Y020087D02*
X009533Y020087D01*
X009533Y020086D02*
X009407Y020086D01*
X009407Y020085D02*
X009532Y020085D01*
X009532Y020084D02*
X009407Y020084D01*
X009407Y020083D02*
X009531Y020083D01*
X009531Y020082D02*
X009406Y020082D01*
X009406Y020081D02*
X009530Y020081D01*
X009530Y020080D02*
X009406Y020080D01*
X009406Y020079D02*
X009530Y020079D01*
X009529Y020078D02*
X009406Y020078D01*
X009406Y020077D02*
X009529Y020077D01*
X009528Y020076D02*
X009406Y020076D01*
X009405Y020075D02*
X009528Y020075D01*
X009528Y020074D02*
X009405Y020074D01*
X009405Y020073D02*
X009527Y020073D01*
X009527Y020072D02*
X009405Y020072D01*
X009405Y020071D02*
X009526Y020071D01*
X009526Y020070D02*
X009405Y020070D01*
X009405Y020069D02*
X009525Y020069D01*
X009525Y020068D02*
X009405Y020068D01*
X009404Y020067D02*
X009525Y020067D01*
X009524Y020066D02*
X009404Y020066D01*
X009404Y020065D02*
X009524Y020065D01*
X009523Y020064D02*
X009404Y020064D01*
X009404Y020063D02*
X009523Y020063D01*
X009522Y020062D02*
X009404Y020062D01*
X009404Y020061D02*
X009522Y020061D01*
X009522Y020060D02*
X009403Y020060D01*
X009403Y020059D02*
X009521Y020059D01*
X009521Y020058D02*
X009403Y020058D01*
X009403Y020057D02*
X009520Y020057D01*
X009520Y020056D02*
X009403Y020056D01*
X009403Y020055D02*
X009519Y020055D01*
X009519Y020054D02*
X009403Y020054D01*
X009403Y020053D02*
X009519Y020053D01*
X009518Y020052D02*
X009402Y020052D01*
X009402Y020051D02*
X009518Y020051D01*
X009517Y020050D02*
X009402Y020050D01*
X009402Y020049D02*
X009517Y020049D01*
X009516Y020048D02*
X009402Y020048D01*
X009402Y020047D02*
X009516Y020047D01*
X009516Y020046D02*
X009402Y020046D01*
X009401Y020045D02*
X009515Y020045D01*
X009515Y020044D02*
X009401Y020044D01*
X009401Y020043D02*
X009514Y020043D01*
X009514Y020042D02*
X009401Y020042D01*
X009401Y020041D02*
X009513Y020041D01*
X009513Y020040D02*
X009401Y020040D01*
X009401Y020039D02*
X009513Y020039D01*
X009512Y020038D02*
X009401Y020038D01*
X009400Y020037D02*
X009512Y020037D01*
X009511Y020036D02*
X009400Y020036D01*
X009400Y020035D02*
X009511Y020035D01*
X009510Y020034D02*
X009400Y020034D01*
X009400Y020033D02*
X009510Y020033D01*
X009510Y020032D02*
X009400Y020032D01*
X009400Y020031D02*
X009509Y020031D01*
X009509Y020030D02*
X009401Y020030D01*
X009401Y020029D02*
X009509Y020029D01*
X009508Y020028D02*
X009401Y020028D01*
X009401Y020027D02*
X009508Y020027D01*
X009508Y020026D02*
X009401Y020026D01*
X009402Y020025D02*
X009508Y020025D01*
X009508Y020024D02*
X009402Y020024D01*
X009402Y020023D02*
X009507Y020023D01*
X009507Y020022D02*
X009402Y020022D01*
X009402Y020021D02*
X009507Y020021D01*
X009507Y020020D02*
X009403Y020020D01*
X009403Y020019D02*
X009507Y020019D01*
X009506Y020018D02*
X009403Y020018D01*
X009403Y020017D02*
X009506Y020017D01*
X009506Y020016D02*
X009403Y020016D01*
X009404Y020015D02*
X009506Y020015D01*
X009505Y020014D02*
X009404Y020014D01*
X009404Y020013D02*
X009505Y020013D01*
X009505Y020012D02*
X009404Y020012D01*
X009404Y020011D02*
X009505Y020011D01*
X009505Y020010D02*
X009405Y020010D01*
X009405Y020009D02*
X009504Y020009D01*
X009504Y020008D02*
X009405Y020008D01*
X009405Y020007D02*
X009504Y020007D01*
X009504Y020006D02*
X009405Y020006D01*
X009406Y020005D02*
X009504Y020005D01*
X009503Y020004D02*
X009406Y020004D01*
X009406Y020003D02*
X009503Y020003D01*
X009503Y020002D02*
X009406Y020002D01*
X009406Y020001D02*
X009503Y020001D01*
X009503Y020000D02*
X009407Y020000D01*
X009407Y019999D02*
X009502Y019999D01*
X009502Y019998D02*
X009407Y019998D01*
X009407Y019997D02*
X009502Y019997D01*
X009502Y019996D02*
X009407Y019996D01*
X009408Y019995D02*
X009502Y019995D01*
X009501Y019994D02*
X009408Y019994D01*
X009408Y019993D02*
X009501Y019993D01*
X009501Y019992D02*
X009408Y019992D01*
X009408Y019991D02*
X009501Y019991D01*
X009500Y019990D02*
X009409Y019990D01*
X009409Y019989D02*
X009500Y019989D01*
X009500Y019988D02*
X009409Y019988D01*
X009409Y019987D02*
X009500Y019987D01*
X009500Y019986D02*
X009409Y019986D01*
X009410Y019985D02*
X009499Y019985D01*
X009499Y019984D02*
X009410Y019984D01*
X009410Y019983D02*
X009499Y019983D01*
X009499Y019982D02*
X009410Y019982D01*
X009410Y019981D02*
X009499Y019981D01*
X009498Y019980D02*
X009411Y019980D01*
X009411Y019979D02*
X009498Y019979D01*
X009498Y019978D02*
X009411Y019978D01*
X009411Y019977D02*
X009498Y019977D01*
X009498Y019976D02*
X009411Y019976D01*
X009412Y019975D02*
X009497Y019975D01*
X009497Y019974D02*
X009412Y019974D01*
X009412Y019973D02*
X009497Y019973D01*
X009497Y019972D02*
X009412Y019972D01*
X009412Y019971D02*
X009497Y019971D01*
X009496Y019970D02*
X009413Y019970D01*
X009413Y019969D02*
X009496Y019969D01*
X009496Y019968D02*
X009413Y019968D01*
X009413Y019967D02*
X009496Y019967D01*
X009495Y019966D02*
X009413Y019966D01*
X009414Y019965D02*
X009495Y019965D01*
X009495Y019964D02*
X009414Y019964D01*
X009414Y019963D02*
X009495Y019963D01*
X009495Y019962D02*
X009414Y019962D01*
X009414Y019961D02*
X009494Y019961D01*
X009494Y019960D02*
X009415Y019960D01*
X009415Y019959D02*
X009494Y019959D01*
X009494Y019958D02*
X009415Y019958D01*
X009415Y019957D02*
X009494Y019957D01*
X009493Y019956D02*
X009415Y019956D01*
X009416Y019955D02*
X009493Y019955D01*
X009493Y019954D02*
X009416Y019954D01*
X009416Y019953D02*
X009493Y019953D01*
X009493Y019952D02*
X009416Y019952D01*
X009416Y019951D02*
X009493Y019951D01*
X009493Y019950D02*
X009417Y019950D01*
X009417Y019949D02*
X009492Y019949D01*
X009492Y019948D02*
X009417Y019948D01*
X009417Y019947D02*
X009492Y019947D01*
X009492Y019946D02*
X009417Y019946D01*
X009418Y019945D02*
X009492Y019945D01*
X009492Y019944D02*
X009418Y019944D01*
X009418Y019943D02*
X009492Y019943D01*
X009492Y019942D02*
X009418Y019942D01*
X009418Y019941D02*
X009492Y019941D01*
X009492Y019940D02*
X009419Y019940D01*
X009419Y019939D02*
X009491Y019939D01*
X009491Y019938D02*
X009419Y019938D01*
X009419Y019937D02*
X009491Y019937D01*
X009491Y019936D02*
X009419Y019936D01*
X009420Y019935D02*
X009491Y019935D01*
X009491Y019934D02*
X009420Y019934D01*
X009420Y019933D02*
X009491Y019933D01*
X009491Y019932D02*
X009420Y019932D01*
X009420Y019931D02*
X009491Y019931D01*
X009491Y019930D02*
X009421Y019930D01*
X009421Y019929D02*
X009491Y019929D01*
X009490Y019928D02*
X009421Y019928D01*
X009421Y019927D02*
X009490Y019927D01*
X009490Y019926D02*
X009422Y019926D01*
X009422Y019925D02*
X009490Y019925D01*
X009490Y019924D02*
X009423Y019924D01*
X009424Y019923D02*
X009490Y019923D01*
X009490Y019922D02*
X009424Y019922D01*
X009425Y019921D02*
X009490Y019921D01*
X009490Y019920D02*
X009426Y019920D01*
X009426Y019919D02*
X009490Y019919D01*
X009490Y019918D02*
X009427Y019918D01*
X009428Y019917D02*
X009489Y019917D01*
X009489Y019916D02*
X009428Y019916D01*
X009429Y019915D02*
X009489Y019915D01*
X009489Y019914D02*
X009430Y019914D01*
X009430Y019913D02*
X009489Y019913D01*
X009489Y019912D02*
X009431Y019912D01*
X009432Y019911D02*
X009489Y019911D01*
X009489Y019910D02*
X009432Y019910D01*
X009433Y019909D02*
X009489Y019909D01*
X009489Y019908D02*
X009434Y019908D01*
X009435Y019907D02*
X009489Y019907D01*
X009488Y019906D02*
X009435Y019906D01*
X009436Y019905D02*
X009488Y019905D01*
X009488Y019904D02*
X009437Y019904D01*
X009437Y019903D02*
X009488Y019903D01*
X009488Y019902D02*
X009438Y019902D01*
X009439Y019901D02*
X009488Y019901D01*
X009488Y019900D02*
X009439Y019900D01*
X009440Y019899D02*
X009488Y019899D01*
X009488Y019898D02*
X009441Y019898D01*
X009441Y019897D02*
X009488Y019897D01*
X009487Y019896D02*
X009442Y019896D01*
X009443Y019895D02*
X009487Y019895D01*
X009487Y019894D02*
X009443Y019894D01*
X009444Y019893D02*
X009487Y019893D01*
X009487Y019892D02*
X009445Y019892D01*
X009445Y019891D02*
X009487Y019891D01*
X009487Y019890D02*
X009446Y019890D01*
X009447Y019889D02*
X009487Y019889D01*
X009487Y019888D02*
X009447Y019888D01*
X009448Y019887D02*
X009487Y019887D01*
X009487Y019886D02*
X009449Y019886D01*
X009449Y019885D02*
X009486Y019885D01*
X009486Y019884D02*
X009450Y019884D01*
X009451Y019883D02*
X009486Y019883D01*
X009486Y019882D02*
X009451Y019882D01*
X009452Y019881D02*
X009486Y019881D01*
X009486Y019880D02*
X009453Y019880D01*
X009453Y019879D02*
X009486Y019879D01*
X009486Y019878D02*
X009454Y019878D01*
X009455Y019877D02*
X009486Y019877D01*
X009486Y019876D02*
X009455Y019876D01*
X009456Y019875D02*
X009485Y019875D01*
X009485Y019874D02*
X009457Y019874D01*
X009457Y019873D02*
X009485Y019873D01*
X009485Y019872D02*
X009458Y019872D01*
X009459Y019871D02*
X009485Y019871D01*
X009485Y019870D02*
X009459Y019870D01*
X009460Y019869D02*
X009485Y019869D01*
X009485Y019868D02*
X009461Y019868D01*
X009461Y019867D02*
X009485Y019867D01*
X009484Y019866D02*
X009462Y019866D01*
X009463Y019865D02*
X009484Y019865D01*
X009484Y019864D02*
X009463Y019864D01*
X009464Y019863D02*
X009484Y019863D01*
X009484Y019862D02*
X009465Y019862D01*
X009465Y019861D02*
X009484Y019861D01*
X009484Y019860D02*
X009466Y019860D01*
X009467Y019859D02*
X009484Y019859D01*
X009483Y019858D02*
X009468Y019858D01*
X009468Y019857D02*
X009483Y019857D01*
X009483Y019856D02*
X009469Y019856D01*
X009470Y019855D02*
X009483Y019855D01*
X009483Y019854D02*
X009470Y019854D01*
X009471Y019853D02*
X009483Y019853D01*
X009483Y019852D02*
X009472Y019852D01*
X009472Y019851D02*
X009483Y019851D01*
X009483Y019850D02*
X009473Y019850D01*
X009474Y019849D02*
X009482Y019849D01*
X009482Y019848D02*
X009474Y019848D01*
X009475Y019847D02*
X009482Y019847D01*
X009482Y019846D02*
X009476Y019846D01*
X009476Y019845D02*
X009479Y019845D01*
X009514Y019814D02*
X009840Y019814D01*
X009838Y019813D02*
X009516Y019813D01*
X009517Y019812D02*
X009836Y019812D01*
X009834Y019811D02*
X009518Y019811D01*
X009519Y019810D02*
X009832Y019810D01*
X009831Y019809D02*
X009521Y019809D01*
X009522Y019808D02*
X009829Y019808D01*
X009827Y019807D02*
X009523Y019807D01*
X009524Y019806D02*
X009825Y019806D01*
X009823Y019805D02*
X009525Y019805D01*
X009527Y019804D02*
X009821Y019804D01*
X009820Y019803D02*
X009528Y019803D01*
X009529Y019802D02*
X009818Y019802D01*
X009816Y019801D02*
X009530Y019801D01*
X009532Y019800D02*
X009814Y019800D01*
X009812Y019799D02*
X009533Y019799D01*
X009535Y019798D02*
X009810Y019798D01*
X009809Y019797D02*
X009537Y019797D01*
X009539Y019796D02*
X009807Y019796D01*
X009805Y019795D02*
X009541Y019795D01*
X009543Y019794D02*
X009803Y019794D01*
X009800Y019793D02*
X009545Y019793D01*
X009547Y019792D02*
X009797Y019792D01*
X009794Y019791D02*
X009548Y019791D01*
X009550Y019790D02*
X009792Y019790D01*
X009789Y019789D02*
X009552Y019789D01*
X009554Y019788D02*
X009786Y019788D01*
X009783Y019787D02*
X009556Y019787D01*
X009558Y019786D02*
X009780Y019786D01*
X009777Y019785D02*
X009560Y019785D01*
X009562Y019784D02*
X009775Y019784D01*
X009772Y019783D02*
X009564Y019783D01*
X009565Y019782D02*
X009769Y019782D01*
X009766Y019781D02*
X009569Y019781D01*
X009572Y019780D02*
X009763Y019780D01*
X009760Y019779D02*
X009576Y019779D01*
X009579Y019778D02*
X009758Y019778D01*
X009755Y019777D02*
X009583Y019777D01*
X009587Y019776D02*
X009752Y019776D01*
X009749Y019775D02*
X009590Y019775D01*
X009594Y019774D02*
X009746Y019774D01*
X009744Y019773D02*
X009598Y019773D01*
X009601Y019772D02*
X009737Y019772D01*
X009729Y019771D02*
X009605Y019771D01*
X009608Y019770D02*
X009721Y019770D01*
X009714Y019769D02*
X009612Y019769D01*
X009616Y019768D02*
X009706Y019768D01*
X009698Y019767D02*
X009634Y019767D01*
X009673Y019766D02*
X009690Y019766D01*
X009761Y020402D02*
X009790Y020402D01*
D20*
X009786Y019564D02*
X009693Y019564D01*
X009642Y019540D02*
X009577Y019474D01*
X009643Y019540D02*
X009653Y019549D01*
X009665Y019557D01*
X009679Y019561D01*
X009693Y019563D01*
X009685Y019403D02*
X009752Y019337D01*
X009800Y019312D02*
X009880Y019312D01*
X009800Y019312D02*
X009786Y019314D01*
X009773Y019319D01*
X009761Y019326D01*
X009752Y019337D01*
X009685Y019403D02*
X009671Y019416D01*
X009656Y019427D01*
X009640Y019437D01*
X009462Y019439D02*
X010036Y019439D01*
X009576Y019474D02*
X009563Y019462D01*
X009549Y019451D01*
X009533Y019442D01*
X009576Y007663D02*
X009563Y007651D01*
X009549Y007640D01*
X009533Y007631D01*
X009577Y007663D02*
X009642Y007729D01*
X009693Y007753D02*
X009786Y007753D01*
X009693Y007752D02*
X009679Y007750D01*
X009665Y007746D01*
X009653Y007738D01*
X009643Y007729D01*
X009685Y007592D02*
X009752Y007526D01*
X009800Y007501D02*
X009880Y007501D01*
X009800Y007501D02*
X009786Y007503D01*
X009773Y007508D01*
X009761Y007515D01*
X009752Y007526D01*
X009685Y007592D02*
X009671Y007605D01*
X009656Y007616D01*
X009640Y007626D01*
X009462Y007628D02*
X010036Y007628D01*
D21*
X009389Y007627D02*
X009391Y007635D01*
X009396Y007642D01*
X009403Y007646D01*
X009411Y007647D01*
X009419Y007644D01*
X009425Y007639D01*
X009429Y007631D01*
X009429Y007623D01*
X009425Y007615D01*
X009419Y007610D01*
X009411Y007607D01*
X009403Y007608D01*
X009396Y007612D01*
X009391Y007619D01*
X009389Y007627D01*
X009389Y019438D02*
X009391Y019446D01*
X009396Y019453D01*
X009403Y019457D01*
X009411Y019458D01*
X009419Y019455D01*
X009425Y019450D01*
X009429Y019442D01*
X009429Y019434D01*
X009425Y019426D01*
X009419Y019421D01*
X009411Y019418D01*
X009403Y019419D01*
X009396Y019423D01*
X009391Y019430D01*
X009389Y019438D01*
D22*
X009908Y019313D03*
X009908Y007502D03*
M02*
