%
M48
M72
T01C0.0150
T02C0.0354
T03C0.0400
%
T01
X8200Y9233
X8900Y9633
X9200Y9333
X9900Y10333
X10600Y10233
X10600Y9733
X11100Y9333
X11600Y9333
X11600Y8833
X11300Y8133
X12700Y8433
X12800Y8033
X13800Y9433
X14200Y9433
X14600Y9433
X15000Y10033
X15800Y10533
X16300Y11533
X15200Y13033
X15600Y13333
X13300Y12333
X13800Y11233
X13800Y10633
X13800Y10033
X12900Y10533
X12600Y10733
X12400Y11033
X12000Y11233
X11500Y11333
X11400Y11733
X10800Y11233
X10500Y10833
X11600Y10033
X12000Y10033
X10000Y12133
X11000Y13033
X11900Y13033
X9200Y10433
X6800Y9433
X5600Y9833
X6500Y12333
X5800Y12633
X8200Y13233
X11300Y19944
X11600Y20644
X11600Y21144
X11100Y21144
X10600Y21544
X10600Y22044
X10500Y22644
X10800Y23044
X11400Y23544
X11500Y23144
X12000Y23044
X12400Y22844
X12600Y22544
X12900Y22344
X13800Y22444
X13800Y21844
X13800Y21244
X14200Y21244
X14600Y21244
X15000Y21844
X15800Y22344
X16300Y23344
X15200Y24844
X15600Y25144
X13800Y23044
X13300Y24144
X11900Y24844
X11000Y24844
X10000Y23944
X9900Y22144
X9200Y22244
X8900Y21444
X9200Y21144
X8200Y21044
X6800Y21244
X5600Y21644
X6500Y24144
X5800Y24444
X8200Y25044
X11600Y21844
X12000Y21844
X12700Y20244
X12800Y19844
X17800Y21644
X17800Y22144
X18000Y23644
X19500Y24444
X19500Y12633
X18000Y11833
X17800Y10333
X17800Y9833
T02
X3500Y9644
X3500Y11022
X3500Y21455
X3500Y22833
T03
X2000Y6883
X3000Y6783
X4000Y6883
X5000Y6783
X6000Y6883
X7000Y6783
X8000Y6883
X9000Y6783
X10000Y6883
X11000Y6783
X12000Y6883
X13000Y6783
X14000Y6883
X15000Y6783
X16000Y6883
X17000Y6783
X18000Y6883
X19000Y6783
X20000Y6883
X21000Y6783
X21000Y13783
X20000Y13883
X19000Y13783
X18000Y13883
X17000Y13783
X16000Y13883
X15000Y13783
X14000Y13883
X13000Y13783
X12000Y13883
X11000Y13783
X10000Y13883
X9000Y13783
X8000Y13883
X7000Y13783
X6000Y13883
X5000Y13783
X4000Y13883
X3000Y13783
X2000Y13883
X2000Y18694
X3000Y18594
X4000Y18694
X5000Y18594
X6000Y18694
X7000Y18594
X8000Y18694
X9000Y18594
X10000Y18694
X11000Y18594
X12000Y18694
X13000Y18594
X14000Y18694
X15000Y18594
X16000Y18694
X17000Y18594
X18000Y18694
X19000Y18594
X20000Y18694
X21000Y18594
X21000Y25594
X20000Y25694
X19000Y25594
X18000Y25694
X17000Y25594
X16000Y25694
X15000Y25594
X14000Y25694
X13000Y25594
X12000Y25694
X11000Y25594
X10000Y25694
X9000Y25594
X8000Y25694
X7000Y25594
X6000Y25694
X5000Y25594
X4000Y25694
X3000Y25594
X2000Y25694
M30
