G75*
G70*
%OFA0B0*%
%FSLAX24Y24*%
%IPPOS*%
%LPD*%
%AMOC8*
5,1,8,0,0,1.08239X$1,22.5*
%
%ADD10C,0.0000*%
%ADD11R,0.0472X0.0472*%
%ADD12R,0.0433X0.0394*%
%ADD13R,0.0394X0.0433*%
%ADD14R,0.0787X0.0945*%
%ADD15R,0.0787X0.0197*%
%ADD16R,0.0866X0.0984*%
%ADD17R,0.0630X0.0710*%
%ADD18R,0.0354X0.0236*%
%ADD19R,0.0197X0.0236*%
%ADD20R,0.0394X0.0276*%
%ADD21R,0.0236X0.0276*%
%ADD22R,0.0787X0.0630*%
%ADD23R,0.0217X0.0472*%
%ADD24R,0.0591X0.0512*%
%ADD25R,0.0700X0.0300*%
%ADD26R,0.0591X0.0098*%
%ADD27R,0.0098X0.0591*%
%ADD28R,0.0276X0.0236*%
D10*
X001657Y006396D02*
X001657Y026081D01*
X021343Y026081D01*
X021343Y006396D01*
X001657Y006396D01*
X003323Y009644D02*
X003325Y009670D01*
X003331Y009696D01*
X003341Y009721D01*
X003354Y009744D01*
X003370Y009764D01*
X003390Y009782D01*
X003412Y009797D01*
X003435Y009809D01*
X003461Y009817D01*
X003487Y009821D01*
X003513Y009821D01*
X003539Y009817D01*
X003565Y009809D01*
X003589Y009797D01*
X003610Y009782D01*
X003630Y009764D01*
X003646Y009744D01*
X003659Y009721D01*
X003669Y009696D01*
X003675Y009670D01*
X003677Y009644D01*
X003675Y009618D01*
X003669Y009592D01*
X003659Y009567D01*
X003646Y009544D01*
X003630Y009524D01*
X003610Y009506D01*
X003588Y009491D01*
X003565Y009479D01*
X003539Y009471D01*
X003513Y009467D01*
X003487Y009467D01*
X003461Y009471D01*
X003435Y009479D01*
X003411Y009491D01*
X003390Y009506D01*
X003370Y009524D01*
X003354Y009544D01*
X003341Y009567D01*
X003331Y009592D01*
X003325Y009618D01*
X003323Y009644D01*
X003323Y011022D02*
X003325Y011048D01*
X003331Y011074D01*
X003341Y011099D01*
X003354Y011122D01*
X003370Y011142D01*
X003390Y011160D01*
X003412Y011175D01*
X003435Y011187D01*
X003461Y011195D01*
X003487Y011199D01*
X003513Y011199D01*
X003539Y011195D01*
X003565Y011187D01*
X003589Y011175D01*
X003610Y011160D01*
X003630Y011142D01*
X003646Y011122D01*
X003659Y011099D01*
X003669Y011074D01*
X003675Y011048D01*
X003677Y011022D01*
X003675Y010996D01*
X003669Y010970D01*
X003659Y010945D01*
X003646Y010922D01*
X003630Y010902D01*
X003610Y010884D01*
X003588Y010869D01*
X003565Y010857D01*
X003539Y010849D01*
X003513Y010845D01*
X003487Y010845D01*
X003461Y010849D01*
X003435Y010857D01*
X003411Y010869D01*
X003390Y010884D01*
X003370Y010902D01*
X003354Y010922D01*
X003341Y010945D01*
X003331Y010970D01*
X003325Y010996D01*
X003323Y011022D01*
X003323Y021455D02*
X003325Y021481D01*
X003331Y021507D01*
X003341Y021532D01*
X003354Y021555D01*
X003370Y021575D01*
X003390Y021593D01*
X003412Y021608D01*
X003435Y021620D01*
X003461Y021628D01*
X003487Y021632D01*
X003513Y021632D01*
X003539Y021628D01*
X003565Y021620D01*
X003589Y021608D01*
X003610Y021593D01*
X003630Y021575D01*
X003646Y021555D01*
X003659Y021532D01*
X003669Y021507D01*
X003675Y021481D01*
X003677Y021455D01*
X003675Y021429D01*
X003669Y021403D01*
X003659Y021378D01*
X003646Y021355D01*
X003630Y021335D01*
X003610Y021317D01*
X003588Y021302D01*
X003565Y021290D01*
X003539Y021282D01*
X003513Y021278D01*
X003487Y021278D01*
X003461Y021282D01*
X003435Y021290D01*
X003411Y021302D01*
X003390Y021317D01*
X003370Y021335D01*
X003354Y021355D01*
X003341Y021378D01*
X003331Y021403D01*
X003325Y021429D01*
X003323Y021455D01*
X003323Y022833D02*
X003325Y022859D01*
X003331Y022885D01*
X003341Y022910D01*
X003354Y022933D01*
X003370Y022953D01*
X003390Y022971D01*
X003412Y022986D01*
X003435Y022998D01*
X003461Y023006D01*
X003487Y023010D01*
X003513Y023010D01*
X003539Y023006D01*
X003565Y022998D01*
X003589Y022986D01*
X003610Y022971D01*
X003630Y022953D01*
X003646Y022933D01*
X003659Y022910D01*
X003669Y022885D01*
X003675Y022859D01*
X003677Y022833D01*
X003675Y022807D01*
X003669Y022781D01*
X003659Y022756D01*
X003646Y022733D01*
X003630Y022713D01*
X003610Y022695D01*
X003588Y022680D01*
X003565Y022668D01*
X003539Y022660D01*
X003513Y022656D01*
X003487Y022656D01*
X003461Y022660D01*
X003435Y022668D01*
X003411Y022680D01*
X003390Y022695D01*
X003370Y022713D01*
X003354Y022733D01*
X003341Y022756D01*
X003331Y022781D01*
X003325Y022807D01*
X003323Y022833D01*
D11*
X002913Y024744D03*
X002087Y024744D03*
X002087Y019544D03*
X002913Y019544D03*
X008300Y019681D03*
X008300Y020508D03*
X002913Y012933D03*
X002087Y012933D03*
X002087Y007733D03*
X002913Y007733D03*
X008300Y007870D03*
X008300Y008697D03*
D12*
X008900Y008668D03*
X008900Y007999D03*
X005900Y008699D03*
X005900Y009368D03*
X005300Y009368D03*
X005300Y008699D03*
X008615Y013033D03*
X009285Y013033D03*
X013365Y008433D03*
X013365Y007883D03*
X014035Y007883D03*
X014035Y008433D03*
X015165Y008333D03*
X015835Y008333D03*
X016765Y011033D03*
X017435Y011033D03*
X015835Y012333D03*
X015165Y012333D03*
X014535Y012333D03*
X014535Y012983D03*
X013865Y012983D03*
X013865Y012333D03*
X014035Y019694D03*
X014035Y020244D03*
X013365Y020244D03*
X013365Y019694D03*
X015165Y020144D03*
X015835Y020144D03*
X016765Y022844D03*
X017435Y022844D03*
X015835Y024144D03*
X015165Y024144D03*
X014535Y024144D03*
X014535Y024794D03*
X013865Y024794D03*
X013865Y024144D03*
X009285Y024844D03*
X008615Y024844D03*
X005900Y021179D03*
X005300Y021179D03*
X005300Y020510D03*
X005900Y020510D03*
X008900Y020479D03*
X008900Y019810D03*
D13*
X007285Y021894D03*
X006615Y021894D03*
X006615Y022694D03*
X006050Y023310D03*
X006050Y023979D03*
X007285Y022694D03*
X007965Y023644D03*
X007965Y024244D03*
X008635Y024244D03*
X008635Y023644D03*
X004185Y024744D03*
X003515Y024744D03*
X003515Y019544D03*
X004185Y019544D03*
X004185Y012933D03*
X003515Y012933D03*
X006050Y012168D03*
X006050Y011499D03*
X006615Y010883D03*
X007285Y010883D03*
X007285Y010083D03*
X006615Y010083D03*
X007965Y011833D03*
X007965Y012433D03*
X008635Y012433D03*
X008635Y011833D03*
X004185Y007733D03*
X003515Y007733D03*
X016765Y011633D03*
X016765Y012233D03*
X016765Y012833D03*
X017435Y012833D03*
X017435Y012233D03*
X017435Y011633D03*
X017435Y023444D03*
X017435Y024044D03*
X017435Y024644D03*
X016765Y024644D03*
X016765Y024044D03*
X016765Y023444D03*
D14*
X015550Y023325D03*
X015550Y020963D03*
X015550Y011514D03*
X015550Y009152D03*
D15*
X004386Y009703D03*
X004386Y010018D03*
X004386Y010333D03*
X004386Y010648D03*
X004386Y010963D03*
X004386Y021514D03*
X004386Y021829D03*
X004386Y022144D03*
X004386Y022459D03*
X004386Y022774D03*
D16*
X004287Y023798D03*
X002201Y023798D03*
X002201Y020491D03*
X004287Y020491D03*
X004287Y011987D03*
X002201Y011987D03*
X002201Y008680D03*
X004287Y008680D03*
D17*
X005440Y007833D03*
X006560Y007833D03*
X006560Y019644D03*
X005440Y019644D03*
D18*
X005305Y021901D03*
X005305Y010090D03*
D19*
X005974Y010090D03*
X005974Y010877D03*
X005226Y010877D03*
X005974Y021901D03*
X005974Y022688D03*
X005226Y022688D03*
D20*
X005305Y021901D03*
X005305Y010090D03*
D21*
X005974Y010090D03*
X005974Y010877D03*
X005226Y010877D03*
X005974Y021901D03*
X005974Y022688D03*
X005226Y022688D03*
X016626Y022338D03*
X017374Y022338D03*
X017000Y021551D03*
X016626Y010527D03*
X017374Y010527D03*
X017000Y009740D03*
D22*
X018437Y008033D03*
X020563Y008033D03*
X020563Y012633D03*
X018437Y012633D03*
X018437Y019844D03*
X020563Y019844D03*
X020563Y024444D03*
X018437Y024444D03*
D23*
X007474Y024556D03*
X006726Y024556D03*
X006726Y023533D03*
X007100Y023533D03*
X007474Y023533D03*
X007474Y012745D03*
X006726Y012745D03*
X006726Y011721D03*
X007100Y011721D03*
X007474Y011721D03*
D24*
X005350Y011549D03*
X005350Y012218D03*
X005350Y023360D03*
X005350Y024029D03*
D25*
X018500Y023144D03*
X018500Y022644D03*
X018500Y022144D03*
X018500Y021644D03*
X018500Y021144D03*
X019500Y021144D03*
X019500Y021644D03*
X019500Y022144D03*
X019500Y022644D03*
X019500Y023144D03*
X019500Y011333D03*
X019500Y010833D03*
X019500Y010333D03*
X019500Y009833D03*
X019500Y009333D03*
X018500Y009333D03*
X018500Y009833D03*
X018500Y010333D03*
X018500Y010833D03*
X018500Y011333D03*
D26*
G36*
X013220Y010592D02*
X013636Y011008D01*
X013706Y010938D01*
X013290Y010522D01*
X013220Y010592D01*
G37*
G36*
X013080Y010731D02*
X013496Y011147D01*
X013566Y011077D01*
X013150Y010661D01*
X013080Y010731D01*
G37*
G36*
X012941Y010870D02*
X013357Y011286D01*
X013427Y011216D01*
X013011Y010800D01*
X012941Y010870D01*
G37*
G36*
X012802Y011009D02*
X013218Y011425D01*
X013288Y011355D01*
X012872Y010939D01*
X012802Y011009D01*
G37*
G36*
X012663Y011149D02*
X013079Y011565D01*
X013149Y011495D01*
X012733Y011079D01*
X012663Y011149D01*
G37*
G36*
X012524Y011288D02*
X012940Y011704D01*
X013010Y011634D01*
X012594Y011218D01*
X012524Y011288D01*
G37*
G36*
X012384Y011427D02*
X012800Y011843D01*
X012870Y011773D01*
X012454Y011357D01*
X012384Y011427D01*
G37*
G36*
X012245Y011566D02*
X012661Y011982D01*
X012731Y011912D01*
X012315Y011496D01*
X012245Y011566D01*
G37*
G36*
X012106Y011705D02*
X012522Y012121D01*
X012592Y012051D01*
X012176Y011635D01*
X012106Y011705D01*
G37*
G36*
X011967Y011845D02*
X012383Y012261D01*
X012453Y012191D01*
X012037Y011775D01*
X011967Y011845D01*
G37*
G36*
X011828Y011984D02*
X012244Y012400D01*
X012314Y012330D01*
X011898Y011914D01*
X011828Y011984D01*
G37*
G36*
X011689Y012123D02*
X012105Y012539D01*
X012175Y012469D01*
X011759Y012053D01*
X011689Y012123D01*
G37*
G36*
X009294Y009729D02*
X009710Y010145D01*
X009780Y010075D01*
X009364Y009659D01*
X009294Y009729D01*
G37*
G36*
X009434Y009590D02*
X009850Y010006D01*
X009920Y009936D01*
X009504Y009520D01*
X009434Y009590D01*
G37*
G36*
X009573Y009450D02*
X009989Y009866D01*
X010059Y009796D01*
X009643Y009380D01*
X009573Y009450D01*
G37*
G36*
X009712Y009311D02*
X010128Y009727D01*
X010198Y009657D01*
X009782Y009241D01*
X009712Y009311D01*
G37*
G36*
X009851Y009172D02*
X010267Y009588D01*
X010337Y009518D01*
X009921Y009102D01*
X009851Y009172D01*
G37*
G36*
X009990Y009033D02*
X010406Y009449D01*
X010476Y009379D01*
X010060Y008963D01*
X009990Y009033D01*
G37*
G36*
X010130Y008894D02*
X010546Y009310D01*
X010616Y009240D01*
X010200Y008824D01*
X010130Y008894D01*
G37*
G36*
X010269Y008754D02*
X010685Y009170D01*
X010755Y009100D01*
X010339Y008684D01*
X010269Y008754D01*
G37*
G36*
X010408Y008615D02*
X010824Y009031D01*
X010894Y008961D01*
X010478Y008545D01*
X010408Y008615D01*
G37*
G36*
X010547Y008476D02*
X010963Y008892D01*
X011033Y008822D01*
X010617Y008406D01*
X010547Y008476D01*
G37*
G36*
X010686Y008337D02*
X011102Y008753D01*
X011172Y008683D01*
X010756Y008267D01*
X010686Y008337D01*
G37*
G36*
X010825Y008198D02*
X011241Y008614D01*
X011311Y008544D01*
X010895Y008128D01*
X010825Y008198D01*
G37*
G36*
X010825Y020009D02*
X011241Y020425D01*
X011311Y020355D01*
X010895Y019939D01*
X010825Y020009D01*
G37*
G36*
X010686Y020148D02*
X011102Y020564D01*
X011172Y020494D01*
X010756Y020078D01*
X010686Y020148D01*
G37*
G36*
X010547Y020287D02*
X010963Y020703D01*
X011033Y020633D01*
X010617Y020217D01*
X010547Y020287D01*
G37*
G36*
X010408Y020426D02*
X010824Y020842D01*
X010894Y020772D01*
X010478Y020356D01*
X010408Y020426D01*
G37*
G36*
X010269Y020565D02*
X010685Y020981D01*
X010755Y020911D01*
X010339Y020495D01*
X010269Y020565D01*
G37*
G36*
X010130Y020705D02*
X010546Y021121D01*
X010616Y021051D01*
X010200Y020635D01*
X010130Y020705D01*
G37*
G36*
X009990Y020844D02*
X010406Y021260D01*
X010476Y021190D01*
X010060Y020774D01*
X009990Y020844D01*
G37*
G36*
X009851Y020983D02*
X010267Y021399D01*
X010337Y021329D01*
X009921Y020913D01*
X009851Y020983D01*
G37*
G36*
X009712Y021122D02*
X010128Y021538D01*
X010198Y021468D01*
X009782Y021052D01*
X009712Y021122D01*
G37*
G36*
X009573Y021261D02*
X009989Y021677D01*
X010059Y021607D01*
X009643Y021191D01*
X009573Y021261D01*
G37*
G36*
X009434Y021401D02*
X009850Y021817D01*
X009920Y021747D01*
X009504Y021331D01*
X009434Y021401D01*
G37*
G36*
X009294Y021540D02*
X009710Y021956D01*
X009780Y021886D01*
X009364Y021470D01*
X009294Y021540D01*
G37*
G36*
X011689Y023934D02*
X012105Y024350D01*
X012175Y024280D01*
X011759Y023864D01*
X011689Y023934D01*
G37*
G36*
X011828Y023795D02*
X012244Y024211D01*
X012314Y024141D01*
X011898Y023725D01*
X011828Y023795D01*
G37*
G36*
X011967Y023656D02*
X012383Y024072D01*
X012453Y024002D01*
X012037Y023586D01*
X011967Y023656D01*
G37*
G36*
X012106Y023516D02*
X012522Y023932D01*
X012592Y023862D01*
X012176Y023446D01*
X012106Y023516D01*
G37*
G36*
X012245Y023377D02*
X012661Y023793D01*
X012731Y023723D01*
X012315Y023307D01*
X012245Y023377D01*
G37*
G36*
X012384Y023238D02*
X012800Y023654D01*
X012870Y023584D01*
X012454Y023168D01*
X012384Y023238D01*
G37*
G36*
X012524Y023099D02*
X012940Y023515D01*
X013010Y023445D01*
X012594Y023029D01*
X012524Y023099D01*
G37*
G36*
X012663Y022960D02*
X013079Y023376D01*
X013149Y023306D01*
X012733Y022890D01*
X012663Y022960D01*
G37*
G36*
X012802Y022820D02*
X013218Y023236D01*
X013288Y023166D01*
X012872Y022750D01*
X012802Y022820D01*
G37*
G36*
X012941Y022681D02*
X013357Y023097D01*
X013427Y023027D01*
X013011Y022611D01*
X012941Y022681D01*
G37*
G36*
X013080Y022542D02*
X013496Y022958D01*
X013566Y022888D01*
X013150Y022472D01*
X013080Y022542D01*
G37*
G36*
X013220Y022403D02*
X013636Y022819D01*
X013706Y022749D01*
X013290Y022333D01*
X013220Y022403D01*
G37*
D27*
G36*
X013220Y021886D02*
X013290Y021956D01*
X013706Y021540D01*
X013636Y021470D01*
X013220Y021886D01*
G37*
G36*
X013080Y021747D02*
X013150Y021817D01*
X013566Y021401D01*
X013496Y021331D01*
X013080Y021747D01*
G37*
G36*
X012941Y021607D02*
X013011Y021677D01*
X013427Y021261D01*
X013357Y021191D01*
X012941Y021607D01*
G37*
G36*
X012802Y021468D02*
X012872Y021538D01*
X013288Y021122D01*
X013218Y021052D01*
X012802Y021468D01*
G37*
G36*
X012663Y021329D02*
X012733Y021399D01*
X013149Y020983D01*
X013079Y020913D01*
X012663Y021329D01*
G37*
G36*
X012524Y021190D02*
X012594Y021260D01*
X013010Y020844D01*
X012940Y020774D01*
X012524Y021190D01*
G37*
G36*
X012384Y021051D02*
X012454Y021121D01*
X012870Y020705D01*
X012800Y020635D01*
X012384Y021051D01*
G37*
G36*
X012245Y020911D02*
X012315Y020981D01*
X012731Y020565D01*
X012661Y020495D01*
X012245Y020911D01*
G37*
G36*
X012106Y020772D02*
X012176Y020842D01*
X012592Y020426D01*
X012522Y020356D01*
X012106Y020772D01*
G37*
G36*
X011967Y020633D02*
X012037Y020703D01*
X012453Y020287D01*
X012383Y020217D01*
X011967Y020633D01*
G37*
G36*
X011828Y020494D02*
X011898Y020564D01*
X012314Y020148D01*
X012244Y020078D01*
X011828Y020494D01*
G37*
G36*
X011689Y020355D02*
X011759Y020425D01*
X012175Y020009D01*
X012105Y019939D01*
X011689Y020355D01*
G37*
G36*
X009294Y022749D02*
X009364Y022819D01*
X009780Y022403D01*
X009710Y022333D01*
X009294Y022749D01*
G37*
G36*
X009434Y022888D02*
X009504Y022958D01*
X009920Y022542D01*
X009850Y022472D01*
X009434Y022888D01*
G37*
G36*
X009573Y023027D02*
X009643Y023097D01*
X010059Y022681D01*
X009989Y022611D01*
X009573Y023027D01*
G37*
G36*
X009712Y023166D02*
X009782Y023236D01*
X010198Y022820D01*
X010128Y022750D01*
X009712Y023166D01*
G37*
G36*
X009851Y023306D02*
X009921Y023376D01*
X010337Y022960D01*
X010267Y022890D01*
X009851Y023306D01*
G37*
G36*
X009990Y023445D02*
X010060Y023515D01*
X010476Y023099D01*
X010406Y023029D01*
X009990Y023445D01*
G37*
G36*
X010130Y023584D02*
X010200Y023654D01*
X010616Y023238D01*
X010546Y023168D01*
X010130Y023584D01*
G37*
G36*
X010269Y023723D02*
X010339Y023793D01*
X010755Y023377D01*
X010685Y023307D01*
X010269Y023723D01*
G37*
G36*
X010408Y023862D02*
X010478Y023932D01*
X010894Y023516D01*
X010824Y023446D01*
X010408Y023862D01*
G37*
G36*
X010547Y024002D02*
X010617Y024072D01*
X011033Y023656D01*
X010963Y023586D01*
X010547Y024002D01*
G37*
G36*
X010686Y024141D02*
X010756Y024211D01*
X011172Y023795D01*
X011102Y023725D01*
X010686Y024141D01*
G37*
G36*
X010825Y024280D02*
X010895Y024350D01*
X011311Y023934D01*
X011241Y023864D01*
X010825Y024280D01*
G37*
G36*
X010825Y012469D02*
X010895Y012539D01*
X011311Y012123D01*
X011241Y012053D01*
X010825Y012469D01*
G37*
G36*
X010686Y012330D02*
X010756Y012400D01*
X011172Y011984D01*
X011102Y011914D01*
X010686Y012330D01*
G37*
G36*
X010547Y012191D02*
X010617Y012261D01*
X011033Y011845D01*
X010963Y011775D01*
X010547Y012191D01*
G37*
G36*
X010408Y012051D02*
X010478Y012121D01*
X010894Y011705D01*
X010824Y011635D01*
X010408Y012051D01*
G37*
G36*
X010269Y011912D02*
X010339Y011982D01*
X010755Y011566D01*
X010685Y011496D01*
X010269Y011912D01*
G37*
G36*
X010130Y011773D02*
X010200Y011843D01*
X010616Y011427D01*
X010546Y011357D01*
X010130Y011773D01*
G37*
G36*
X009990Y011634D02*
X010060Y011704D01*
X010476Y011288D01*
X010406Y011218D01*
X009990Y011634D01*
G37*
G36*
X009851Y011495D02*
X009921Y011565D01*
X010337Y011149D01*
X010267Y011079D01*
X009851Y011495D01*
G37*
G36*
X009712Y011355D02*
X009782Y011425D01*
X010198Y011009D01*
X010128Y010939D01*
X009712Y011355D01*
G37*
G36*
X009573Y011216D02*
X009643Y011286D01*
X010059Y010870D01*
X009989Y010800D01*
X009573Y011216D01*
G37*
G36*
X009434Y011077D02*
X009504Y011147D01*
X009920Y010731D01*
X009850Y010661D01*
X009434Y011077D01*
G37*
G36*
X009294Y010938D02*
X009364Y011008D01*
X009780Y010592D01*
X009710Y010522D01*
X009294Y010938D01*
G37*
G36*
X011689Y008544D02*
X011759Y008614D01*
X012175Y008198D01*
X012105Y008128D01*
X011689Y008544D01*
G37*
G36*
X011828Y008683D02*
X011898Y008753D01*
X012314Y008337D01*
X012244Y008267D01*
X011828Y008683D01*
G37*
G36*
X011967Y008822D02*
X012037Y008892D01*
X012453Y008476D01*
X012383Y008406D01*
X011967Y008822D01*
G37*
G36*
X012106Y008961D02*
X012176Y009031D01*
X012592Y008615D01*
X012522Y008545D01*
X012106Y008961D01*
G37*
G36*
X012245Y009100D02*
X012315Y009170D01*
X012731Y008754D01*
X012661Y008684D01*
X012245Y009100D01*
G37*
G36*
X012384Y009240D02*
X012454Y009310D01*
X012870Y008894D01*
X012800Y008824D01*
X012384Y009240D01*
G37*
G36*
X012524Y009379D02*
X012594Y009449D01*
X013010Y009033D01*
X012940Y008963D01*
X012524Y009379D01*
G37*
G36*
X012663Y009518D02*
X012733Y009588D01*
X013149Y009172D01*
X013079Y009102D01*
X012663Y009518D01*
G37*
G36*
X012802Y009657D02*
X012872Y009727D01*
X013288Y009311D01*
X013218Y009241D01*
X012802Y009657D01*
G37*
G36*
X012941Y009796D02*
X013011Y009866D01*
X013427Y009450D01*
X013357Y009380D01*
X012941Y009796D01*
G37*
G36*
X013080Y009936D02*
X013150Y010006D01*
X013566Y009590D01*
X013496Y009520D01*
X013080Y009936D01*
G37*
G36*
X013220Y010075D02*
X013290Y010145D01*
X013706Y009729D01*
X013636Y009659D01*
X013220Y010075D01*
G37*
D28*
X007294Y009407D03*
X007294Y008659D03*
X006506Y009033D03*
X007294Y020470D03*
X007294Y021218D03*
X006506Y020844D03*
M02*
