G75*
G70*
%OFA0B0*%
%FSLAX24Y24*%
%IPPOS*%
%LPD*%
%AMOC8*
5,1,8,0,0,1.08239X$1,22.5*
%
%ADD10C,0.0000*%
%ADD11C,0.0394*%
%ADD12R,0.0780X0.0780*%
%ADD13C,0.0780*%
%ADD14C,0.2000*%
D10*
X001657Y006396D02*
X001657Y026081D01*
X021343Y026081D01*
X021343Y006396D01*
X001657Y006396D01*
X003323Y009644D02*
X003325Y009670D01*
X003331Y009696D01*
X003341Y009721D01*
X003354Y009744D01*
X003370Y009764D01*
X003390Y009782D01*
X003412Y009797D01*
X003435Y009809D01*
X003461Y009817D01*
X003487Y009821D01*
X003513Y009821D01*
X003539Y009817D01*
X003565Y009809D01*
X003589Y009797D01*
X003610Y009782D01*
X003630Y009764D01*
X003646Y009744D01*
X003659Y009721D01*
X003669Y009696D01*
X003675Y009670D01*
X003677Y009644D01*
X003675Y009618D01*
X003669Y009592D01*
X003659Y009567D01*
X003646Y009544D01*
X003630Y009524D01*
X003610Y009506D01*
X003588Y009491D01*
X003565Y009479D01*
X003539Y009471D01*
X003513Y009467D01*
X003487Y009467D01*
X003461Y009471D01*
X003435Y009479D01*
X003411Y009491D01*
X003390Y009506D01*
X003370Y009524D01*
X003354Y009544D01*
X003341Y009567D01*
X003331Y009592D01*
X003325Y009618D01*
X003323Y009644D01*
X003323Y011022D02*
X003325Y011048D01*
X003331Y011074D01*
X003341Y011099D01*
X003354Y011122D01*
X003370Y011142D01*
X003390Y011160D01*
X003412Y011175D01*
X003435Y011187D01*
X003461Y011195D01*
X003487Y011199D01*
X003513Y011199D01*
X003539Y011195D01*
X003565Y011187D01*
X003589Y011175D01*
X003610Y011160D01*
X003630Y011142D01*
X003646Y011122D01*
X003659Y011099D01*
X003669Y011074D01*
X003675Y011048D01*
X003677Y011022D01*
X003675Y010996D01*
X003669Y010970D01*
X003659Y010945D01*
X003646Y010922D01*
X003630Y010902D01*
X003610Y010884D01*
X003588Y010869D01*
X003565Y010857D01*
X003539Y010849D01*
X003513Y010845D01*
X003487Y010845D01*
X003461Y010849D01*
X003435Y010857D01*
X003411Y010869D01*
X003390Y010884D01*
X003370Y010902D01*
X003354Y010922D01*
X003341Y010945D01*
X003331Y010970D01*
X003325Y010996D01*
X003323Y011022D01*
X003323Y021455D02*
X003325Y021481D01*
X003331Y021507D01*
X003341Y021532D01*
X003354Y021555D01*
X003370Y021575D01*
X003390Y021593D01*
X003412Y021608D01*
X003435Y021620D01*
X003461Y021628D01*
X003487Y021632D01*
X003513Y021632D01*
X003539Y021628D01*
X003565Y021620D01*
X003589Y021608D01*
X003610Y021593D01*
X003630Y021575D01*
X003646Y021555D01*
X003659Y021532D01*
X003669Y021507D01*
X003675Y021481D01*
X003677Y021455D01*
X003675Y021429D01*
X003669Y021403D01*
X003659Y021378D01*
X003646Y021355D01*
X003630Y021335D01*
X003610Y021317D01*
X003588Y021302D01*
X003565Y021290D01*
X003539Y021282D01*
X003513Y021278D01*
X003487Y021278D01*
X003461Y021282D01*
X003435Y021290D01*
X003411Y021302D01*
X003390Y021317D01*
X003370Y021335D01*
X003354Y021355D01*
X003341Y021378D01*
X003331Y021403D01*
X003325Y021429D01*
X003323Y021455D01*
X003323Y022833D02*
X003325Y022859D01*
X003331Y022885D01*
X003341Y022910D01*
X003354Y022933D01*
X003370Y022953D01*
X003390Y022971D01*
X003412Y022986D01*
X003435Y022998D01*
X003461Y023006D01*
X003487Y023010D01*
X003513Y023010D01*
X003539Y023006D01*
X003565Y022998D01*
X003589Y022986D01*
X003610Y022971D01*
X003630Y022953D01*
X003646Y022933D01*
X003659Y022910D01*
X003669Y022885D01*
X003675Y022859D01*
X003677Y022833D01*
X003675Y022807D01*
X003669Y022781D01*
X003659Y022756D01*
X003646Y022733D01*
X003630Y022713D01*
X003610Y022695D01*
X003588Y022680D01*
X003565Y022668D01*
X003539Y022660D01*
X003513Y022656D01*
X003487Y022656D01*
X003461Y022660D01*
X003435Y022668D01*
X003411Y022680D01*
X003390Y022695D01*
X003370Y022713D01*
X003354Y022733D01*
X003341Y022756D01*
X003331Y022781D01*
X003325Y022807D01*
X003323Y022833D01*
D11*
X003500Y022833D03*
X003500Y021455D03*
X003500Y011022D03*
X003500Y009644D03*
D12*
X002000Y006883D03*
X002000Y013883D03*
X002000Y018694D03*
X002000Y025694D03*
D13*
X003000Y025594D03*
X004000Y025694D03*
X005000Y025594D03*
X006000Y025694D03*
X007000Y025594D03*
X008000Y025694D03*
X009000Y025594D03*
X010000Y025694D03*
X011000Y025594D03*
X012000Y025694D03*
X013000Y025594D03*
X014000Y025694D03*
X015000Y025594D03*
X016000Y025694D03*
X017000Y025594D03*
X018000Y025694D03*
X019000Y025594D03*
X020000Y025694D03*
X021000Y025594D03*
X020000Y018694D03*
X021000Y018594D03*
X019000Y018594D03*
X018000Y018694D03*
X017000Y018594D03*
X016000Y018694D03*
X015000Y018594D03*
X014000Y018694D03*
X013000Y018594D03*
X012000Y018694D03*
X011000Y018594D03*
X010000Y018694D03*
X009000Y018594D03*
X008000Y018694D03*
X007000Y018594D03*
X006000Y018694D03*
X005000Y018594D03*
X004000Y018694D03*
X003000Y018594D03*
X003000Y013783D03*
X004000Y013883D03*
X005000Y013783D03*
X006000Y013883D03*
X007000Y013783D03*
X008000Y013883D03*
X009000Y013783D03*
X010000Y013883D03*
X011000Y013783D03*
X012000Y013883D03*
X013000Y013783D03*
X014000Y013883D03*
X015000Y013783D03*
X016000Y013883D03*
X017000Y013783D03*
X018000Y013883D03*
X019000Y013783D03*
X020000Y013883D03*
X021000Y013783D03*
X020000Y006883D03*
X021000Y006783D03*
X019000Y006783D03*
X018000Y006883D03*
X017000Y006783D03*
X016000Y006883D03*
X015000Y006783D03*
X014000Y006883D03*
X013000Y006783D03*
X012000Y006883D03*
X011000Y006783D03*
X010000Y006883D03*
X009000Y006783D03*
X008000Y006883D03*
X007000Y006783D03*
X006000Y006883D03*
X005000Y006783D03*
X004000Y006883D03*
X003000Y006783D03*
D14*
X002839Y017026D03*
X020161Y015451D03*
M02*
