G75*
G70*
%OFA0B0*%
%FSLAX24Y24*%
%IPPOS*%
%LPD*%
%AMOC8*
5,1,8,0,0,1.08239X$1,22.5*
%
%ADD10C,0.0000*%
%ADD11R,0.0512X0.0512*%
%ADD12R,0.0473X0.0434*%
%ADD13R,0.0434X0.0473*%
%ADD14R,0.0827X0.0985*%
%ADD15R,0.0827X0.0237*%
%ADD16R,0.0906X0.1024*%
%ADD17C,0.0394*%
%ADD18R,0.0670X0.0750*%
%ADD19R,0.0434X0.0316*%
%ADD20R,0.0276X0.0316*%
%ADD21R,0.0827X0.0670*%
%ADD22R,0.0257X0.0512*%
%ADD23R,0.0631X0.0552*%
%ADD24R,0.0780X0.0780*%
%ADD25C,0.0780*%
%ADD26R,0.0740X0.0340*%
%ADD27R,0.0631X0.0138*%
%ADD28R,0.0138X0.0631*%
%ADD29R,0.0316X0.0276*%
%ADD30C,0.2000*%
D10*
X001657Y006396D02*
X001657Y026081D01*
X021343Y026081D01*
X021343Y006396D01*
X001657Y006396D01*
X003323Y009644D02*
X003325Y009670D01*
X003331Y009696D01*
X003341Y009721D01*
X003354Y009744D01*
X003370Y009764D01*
X003390Y009782D01*
X003412Y009797D01*
X003435Y009809D01*
X003461Y009817D01*
X003487Y009821D01*
X003513Y009821D01*
X003539Y009817D01*
X003565Y009809D01*
X003589Y009797D01*
X003610Y009782D01*
X003630Y009764D01*
X003646Y009744D01*
X003659Y009721D01*
X003669Y009696D01*
X003675Y009670D01*
X003677Y009644D01*
X003675Y009618D01*
X003669Y009592D01*
X003659Y009567D01*
X003646Y009544D01*
X003630Y009524D01*
X003610Y009506D01*
X003588Y009491D01*
X003565Y009479D01*
X003539Y009471D01*
X003513Y009467D01*
X003487Y009467D01*
X003461Y009471D01*
X003435Y009479D01*
X003411Y009491D01*
X003390Y009506D01*
X003370Y009524D01*
X003354Y009544D01*
X003341Y009567D01*
X003331Y009592D01*
X003325Y009618D01*
X003323Y009644D01*
X003323Y011022D02*
X003325Y011048D01*
X003331Y011074D01*
X003341Y011099D01*
X003354Y011122D01*
X003370Y011142D01*
X003390Y011160D01*
X003412Y011175D01*
X003435Y011187D01*
X003461Y011195D01*
X003487Y011199D01*
X003513Y011199D01*
X003539Y011195D01*
X003565Y011187D01*
X003589Y011175D01*
X003610Y011160D01*
X003630Y011142D01*
X003646Y011122D01*
X003659Y011099D01*
X003669Y011074D01*
X003675Y011048D01*
X003677Y011022D01*
X003675Y010996D01*
X003669Y010970D01*
X003659Y010945D01*
X003646Y010922D01*
X003630Y010902D01*
X003610Y010884D01*
X003588Y010869D01*
X003565Y010857D01*
X003539Y010849D01*
X003513Y010845D01*
X003487Y010845D01*
X003461Y010849D01*
X003435Y010857D01*
X003411Y010869D01*
X003390Y010884D01*
X003370Y010902D01*
X003354Y010922D01*
X003341Y010945D01*
X003331Y010970D01*
X003325Y010996D01*
X003323Y011022D01*
X003323Y021455D02*
X003325Y021481D01*
X003331Y021507D01*
X003341Y021532D01*
X003354Y021555D01*
X003370Y021575D01*
X003390Y021593D01*
X003412Y021608D01*
X003435Y021620D01*
X003461Y021628D01*
X003487Y021632D01*
X003513Y021632D01*
X003539Y021628D01*
X003565Y021620D01*
X003589Y021608D01*
X003610Y021593D01*
X003630Y021575D01*
X003646Y021555D01*
X003659Y021532D01*
X003669Y021507D01*
X003675Y021481D01*
X003677Y021455D01*
X003675Y021429D01*
X003669Y021403D01*
X003659Y021378D01*
X003646Y021355D01*
X003630Y021335D01*
X003610Y021317D01*
X003588Y021302D01*
X003565Y021290D01*
X003539Y021282D01*
X003513Y021278D01*
X003487Y021278D01*
X003461Y021282D01*
X003435Y021290D01*
X003411Y021302D01*
X003390Y021317D01*
X003370Y021335D01*
X003354Y021355D01*
X003341Y021378D01*
X003331Y021403D01*
X003325Y021429D01*
X003323Y021455D01*
X003323Y022833D02*
X003325Y022859D01*
X003331Y022885D01*
X003341Y022910D01*
X003354Y022933D01*
X003370Y022953D01*
X003390Y022971D01*
X003412Y022986D01*
X003435Y022998D01*
X003461Y023006D01*
X003487Y023010D01*
X003513Y023010D01*
X003539Y023006D01*
X003565Y022998D01*
X003589Y022986D01*
X003610Y022971D01*
X003630Y022953D01*
X003646Y022933D01*
X003659Y022910D01*
X003669Y022885D01*
X003675Y022859D01*
X003677Y022833D01*
X003675Y022807D01*
X003669Y022781D01*
X003659Y022756D01*
X003646Y022733D01*
X003630Y022713D01*
X003610Y022695D01*
X003588Y022680D01*
X003565Y022668D01*
X003539Y022660D01*
X003513Y022656D01*
X003487Y022656D01*
X003461Y022660D01*
X003435Y022668D01*
X003411Y022680D01*
X003390Y022695D01*
X003370Y022713D01*
X003354Y022733D01*
X003341Y022756D01*
X003331Y022781D01*
X003325Y022807D01*
X003323Y022833D01*
D11*
X002913Y024744D03*
X002087Y024744D03*
X002087Y019544D03*
X002913Y019544D03*
X008300Y019681D03*
X008300Y020508D03*
X002913Y012933D03*
X002087Y012933D03*
X002087Y007733D03*
X002913Y007733D03*
X008300Y007870D03*
X008300Y008697D03*
D12*
X008900Y008668D03*
X008900Y007999D03*
X005900Y008699D03*
X005900Y009368D03*
X005300Y009368D03*
X005300Y008699D03*
X008615Y013033D03*
X009285Y013033D03*
X013365Y008433D03*
X013365Y007883D03*
X014035Y007883D03*
X014035Y008433D03*
X015165Y008333D03*
X015835Y008333D03*
X016765Y011033D03*
X017435Y011033D03*
X015835Y012333D03*
X015165Y012333D03*
X014535Y012333D03*
X014535Y012983D03*
X013865Y012983D03*
X013865Y012333D03*
X014035Y019694D03*
X014035Y020244D03*
X013365Y020244D03*
X013365Y019694D03*
X015165Y020144D03*
X015835Y020144D03*
X016765Y022844D03*
X017435Y022844D03*
X015835Y024144D03*
X015165Y024144D03*
X014535Y024144D03*
X014535Y024794D03*
X013865Y024794D03*
X013865Y024144D03*
X009285Y024844D03*
X008615Y024844D03*
X005900Y021179D03*
X005300Y021179D03*
X005300Y020510D03*
X005900Y020510D03*
X008900Y020479D03*
X008900Y019810D03*
D13*
X007285Y021894D03*
X006615Y021894D03*
X006615Y022694D03*
X006050Y023310D03*
X006050Y023979D03*
X007285Y022694D03*
X007965Y023644D03*
X007965Y024244D03*
X008635Y024244D03*
X008635Y023644D03*
X004185Y024744D03*
X003515Y024744D03*
X003515Y019544D03*
X004185Y019544D03*
X004185Y012933D03*
X003515Y012933D03*
X006050Y012168D03*
X006050Y011499D03*
X006615Y010883D03*
X007285Y010883D03*
X007285Y010083D03*
X006615Y010083D03*
X007965Y011833D03*
X007965Y012433D03*
X008635Y012433D03*
X008635Y011833D03*
X004185Y007733D03*
X003515Y007733D03*
X016765Y011633D03*
X016765Y012233D03*
X016765Y012833D03*
X017435Y012833D03*
X017435Y012233D03*
X017435Y011633D03*
X017435Y023444D03*
X017435Y024044D03*
X017435Y024644D03*
X016765Y024644D03*
X016765Y024044D03*
X016765Y023444D03*
D14*
X015550Y023325D03*
X015550Y020963D03*
X015550Y011514D03*
X015550Y009152D03*
D15*
X004386Y009703D03*
X004386Y010018D03*
X004386Y010333D03*
X004386Y010648D03*
X004386Y010963D03*
X004386Y021514D03*
X004386Y021829D03*
X004386Y022144D03*
X004386Y022459D03*
X004386Y022774D03*
D16*
X004287Y023798D03*
X002201Y023798D03*
X002201Y020491D03*
X004287Y020491D03*
X004287Y011987D03*
X002201Y011987D03*
X002201Y008680D03*
X004287Y008680D03*
D17*
X003500Y009644D03*
X003500Y011022D03*
X003500Y021455D03*
X003500Y022833D03*
D18*
X005440Y019644D03*
X006560Y019644D03*
X006560Y007833D03*
X005440Y007833D03*
D19*
X005305Y010090D03*
X005305Y021901D03*
D20*
X005974Y021901D03*
X005974Y022688D03*
X005226Y022688D03*
X016626Y022338D03*
X017374Y022338D03*
X017000Y021551D03*
X016626Y010527D03*
X017374Y010527D03*
X017000Y009740D03*
X005974Y010090D03*
X005974Y010877D03*
X005226Y010877D03*
D21*
X018437Y012633D03*
X020563Y012633D03*
X020563Y008033D03*
X018437Y008033D03*
X018437Y019844D03*
X020563Y019844D03*
X020563Y024444D03*
X018437Y024444D03*
D22*
X007474Y024556D03*
X006726Y024556D03*
X006726Y023533D03*
X007100Y023533D03*
X007474Y023533D03*
X007474Y012745D03*
X006726Y012745D03*
X006726Y011721D03*
X007100Y011721D03*
X007474Y011721D03*
D23*
X005350Y011549D03*
X005350Y012218D03*
X005350Y023360D03*
X005350Y024029D03*
D24*
X002000Y025694D03*
X002000Y018694D03*
X002000Y013883D03*
X002000Y006883D03*
D25*
X003000Y006783D03*
X004000Y006883D03*
X005000Y006783D03*
X006000Y006883D03*
X007000Y006783D03*
X008000Y006883D03*
X009000Y006783D03*
X010000Y006883D03*
X011000Y006783D03*
X012000Y006883D03*
X013000Y006783D03*
X014000Y006883D03*
X015000Y006783D03*
X016000Y006883D03*
X017000Y006783D03*
X018000Y006883D03*
X019000Y006783D03*
X020000Y006883D03*
X021000Y006783D03*
X021000Y013783D03*
X020000Y013883D03*
X019000Y013783D03*
X018000Y013883D03*
X017000Y013783D03*
X016000Y013883D03*
X015000Y013783D03*
X014000Y013883D03*
X013000Y013783D03*
X012000Y013883D03*
X011000Y013783D03*
X010000Y013883D03*
X009000Y013783D03*
X008000Y013883D03*
X007000Y013783D03*
X006000Y013883D03*
X005000Y013783D03*
X004000Y013883D03*
X003000Y013783D03*
X003000Y018594D03*
X004000Y018694D03*
X005000Y018594D03*
X006000Y018694D03*
X007000Y018594D03*
X008000Y018694D03*
X009000Y018594D03*
X010000Y018694D03*
X011000Y018594D03*
X012000Y018694D03*
X013000Y018594D03*
X014000Y018694D03*
X015000Y018594D03*
X016000Y018694D03*
X017000Y018594D03*
X018000Y018694D03*
X019000Y018594D03*
X020000Y018694D03*
X021000Y018594D03*
X021000Y025594D03*
X020000Y025694D03*
X019000Y025594D03*
X018000Y025694D03*
X017000Y025594D03*
X016000Y025694D03*
X015000Y025594D03*
X014000Y025694D03*
X013000Y025594D03*
X012000Y025694D03*
X011000Y025594D03*
X010000Y025694D03*
X009000Y025594D03*
X008000Y025694D03*
X007000Y025594D03*
X006000Y025694D03*
X005000Y025594D03*
X004000Y025694D03*
X003000Y025594D03*
D26*
X018500Y023144D03*
X018500Y022644D03*
X018500Y022144D03*
X018500Y021644D03*
X018500Y021144D03*
X019500Y021144D03*
X019500Y021644D03*
X019500Y022144D03*
X019500Y022644D03*
X019500Y023144D03*
X019500Y011333D03*
X019500Y010833D03*
X019500Y010333D03*
X019500Y009833D03*
X019500Y009333D03*
X018500Y009333D03*
X018500Y009833D03*
X018500Y010333D03*
X018500Y010833D03*
X018500Y011333D03*
D27*
G36*
X013192Y010592D02*
X013636Y011036D01*
X013734Y010938D01*
X013290Y010494D01*
X013192Y010592D01*
G37*
G36*
X013052Y010731D02*
X013496Y011175D01*
X013594Y011077D01*
X013150Y010633D01*
X013052Y010731D01*
G37*
G36*
X012913Y010870D02*
X013357Y011314D01*
X013455Y011216D01*
X013011Y010772D01*
X012913Y010870D01*
G37*
G36*
X012774Y011009D02*
X013218Y011453D01*
X013316Y011355D01*
X012872Y010911D01*
X012774Y011009D01*
G37*
G36*
X012635Y011149D02*
X013079Y011593D01*
X013177Y011495D01*
X012733Y011051D01*
X012635Y011149D01*
G37*
G36*
X012496Y011288D02*
X012940Y011732D01*
X013038Y011634D01*
X012594Y011190D01*
X012496Y011288D01*
G37*
G36*
X012356Y011427D02*
X012800Y011871D01*
X012898Y011773D01*
X012454Y011329D01*
X012356Y011427D01*
G37*
G36*
X012217Y011566D02*
X012661Y012010D01*
X012759Y011912D01*
X012315Y011468D01*
X012217Y011566D01*
G37*
G36*
X012078Y011705D02*
X012522Y012149D01*
X012620Y012051D01*
X012176Y011607D01*
X012078Y011705D01*
G37*
G36*
X011939Y011845D02*
X012383Y012289D01*
X012481Y012191D01*
X012037Y011747D01*
X011939Y011845D01*
G37*
G36*
X011800Y011984D02*
X012244Y012428D01*
X012342Y012330D01*
X011898Y011886D01*
X011800Y011984D01*
G37*
G36*
X011661Y012123D02*
X012105Y012567D01*
X012203Y012469D01*
X011759Y012025D01*
X011661Y012123D01*
G37*
G36*
X009266Y009729D02*
X009710Y010173D01*
X009808Y010075D01*
X009364Y009631D01*
X009266Y009729D01*
G37*
G36*
X009406Y009590D02*
X009850Y010034D01*
X009948Y009936D01*
X009504Y009492D01*
X009406Y009590D01*
G37*
G36*
X009545Y009450D02*
X009989Y009894D01*
X010087Y009796D01*
X009643Y009352D01*
X009545Y009450D01*
G37*
G36*
X009684Y009311D02*
X010128Y009755D01*
X010226Y009657D01*
X009782Y009213D01*
X009684Y009311D01*
G37*
G36*
X009823Y009172D02*
X010267Y009616D01*
X010365Y009518D01*
X009921Y009074D01*
X009823Y009172D01*
G37*
G36*
X009962Y009033D02*
X010406Y009477D01*
X010504Y009379D01*
X010060Y008935D01*
X009962Y009033D01*
G37*
G36*
X010102Y008894D02*
X010546Y009338D01*
X010644Y009240D01*
X010200Y008796D01*
X010102Y008894D01*
G37*
G36*
X010241Y008754D02*
X010685Y009198D01*
X010783Y009100D01*
X010339Y008656D01*
X010241Y008754D01*
G37*
G36*
X010380Y008615D02*
X010824Y009059D01*
X010922Y008961D01*
X010478Y008517D01*
X010380Y008615D01*
G37*
G36*
X010519Y008476D02*
X010963Y008920D01*
X011061Y008822D01*
X010617Y008378D01*
X010519Y008476D01*
G37*
G36*
X010658Y008337D02*
X011102Y008781D01*
X011200Y008683D01*
X010756Y008239D01*
X010658Y008337D01*
G37*
G36*
X010797Y008198D02*
X011241Y008642D01*
X011339Y008544D01*
X010895Y008100D01*
X010797Y008198D01*
G37*
G36*
X010797Y020009D02*
X011241Y020453D01*
X011339Y020355D01*
X010895Y019911D01*
X010797Y020009D01*
G37*
G36*
X010658Y020148D02*
X011102Y020592D01*
X011200Y020494D01*
X010756Y020050D01*
X010658Y020148D01*
G37*
G36*
X010519Y020287D02*
X010963Y020731D01*
X011061Y020633D01*
X010617Y020189D01*
X010519Y020287D01*
G37*
G36*
X010380Y020426D02*
X010824Y020870D01*
X010922Y020772D01*
X010478Y020328D01*
X010380Y020426D01*
G37*
G36*
X010241Y020565D02*
X010685Y021009D01*
X010783Y020911D01*
X010339Y020467D01*
X010241Y020565D01*
G37*
G36*
X010102Y020705D02*
X010546Y021149D01*
X010644Y021051D01*
X010200Y020607D01*
X010102Y020705D01*
G37*
G36*
X009962Y020844D02*
X010406Y021288D01*
X010504Y021190D01*
X010060Y020746D01*
X009962Y020844D01*
G37*
G36*
X009823Y020983D02*
X010267Y021427D01*
X010365Y021329D01*
X009921Y020885D01*
X009823Y020983D01*
G37*
G36*
X009684Y021122D02*
X010128Y021566D01*
X010226Y021468D01*
X009782Y021024D01*
X009684Y021122D01*
G37*
G36*
X009545Y021261D02*
X009989Y021705D01*
X010087Y021607D01*
X009643Y021163D01*
X009545Y021261D01*
G37*
G36*
X009406Y021401D02*
X009850Y021845D01*
X009948Y021747D01*
X009504Y021303D01*
X009406Y021401D01*
G37*
G36*
X009266Y021540D02*
X009710Y021984D01*
X009808Y021886D01*
X009364Y021442D01*
X009266Y021540D01*
G37*
G36*
X011661Y023934D02*
X012105Y024378D01*
X012203Y024280D01*
X011759Y023836D01*
X011661Y023934D01*
G37*
G36*
X011800Y023795D02*
X012244Y024239D01*
X012342Y024141D01*
X011898Y023697D01*
X011800Y023795D01*
G37*
G36*
X011939Y023656D02*
X012383Y024100D01*
X012481Y024002D01*
X012037Y023558D01*
X011939Y023656D01*
G37*
G36*
X012078Y023516D02*
X012522Y023960D01*
X012620Y023862D01*
X012176Y023418D01*
X012078Y023516D01*
G37*
G36*
X012217Y023377D02*
X012661Y023821D01*
X012759Y023723D01*
X012315Y023279D01*
X012217Y023377D01*
G37*
G36*
X012356Y023238D02*
X012800Y023682D01*
X012898Y023584D01*
X012454Y023140D01*
X012356Y023238D01*
G37*
G36*
X012496Y023099D02*
X012940Y023543D01*
X013038Y023445D01*
X012594Y023001D01*
X012496Y023099D01*
G37*
G36*
X012635Y022960D02*
X013079Y023404D01*
X013177Y023306D01*
X012733Y022862D01*
X012635Y022960D01*
G37*
G36*
X012774Y022820D02*
X013218Y023264D01*
X013316Y023166D01*
X012872Y022722D01*
X012774Y022820D01*
G37*
G36*
X012913Y022681D02*
X013357Y023125D01*
X013455Y023027D01*
X013011Y022583D01*
X012913Y022681D01*
G37*
G36*
X013052Y022542D02*
X013496Y022986D01*
X013594Y022888D01*
X013150Y022444D01*
X013052Y022542D01*
G37*
G36*
X013192Y022403D02*
X013636Y022847D01*
X013734Y022749D01*
X013290Y022305D01*
X013192Y022403D01*
G37*
D28*
G36*
X013192Y021886D02*
X013290Y021984D01*
X013734Y021540D01*
X013636Y021442D01*
X013192Y021886D01*
G37*
G36*
X013052Y021747D02*
X013150Y021845D01*
X013594Y021401D01*
X013496Y021303D01*
X013052Y021747D01*
G37*
G36*
X012913Y021607D02*
X013011Y021705D01*
X013455Y021261D01*
X013357Y021163D01*
X012913Y021607D01*
G37*
G36*
X012774Y021468D02*
X012872Y021566D01*
X013316Y021122D01*
X013218Y021024D01*
X012774Y021468D01*
G37*
G36*
X012635Y021329D02*
X012733Y021427D01*
X013177Y020983D01*
X013079Y020885D01*
X012635Y021329D01*
G37*
G36*
X012496Y021190D02*
X012594Y021288D01*
X013038Y020844D01*
X012940Y020746D01*
X012496Y021190D01*
G37*
G36*
X012356Y021051D02*
X012454Y021149D01*
X012898Y020705D01*
X012800Y020607D01*
X012356Y021051D01*
G37*
G36*
X012217Y020911D02*
X012315Y021009D01*
X012759Y020565D01*
X012661Y020467D01*
X012217Y020911D01*
G37*
G36*
X012078Y020772D02*
X012176Y020870D01*
X012620Y020426D01*
X012522Y020328D01*
X012078Y020772D01*
G37*
G36*
X011939Y020633D02*
X012037Y020731D01*
X012481Y020287D01*
X012383Y020189D01*
X011939Y020633D01*
G37*
G36*
X011800Y020494D02*
X011898Y020592D01*
X012342Y020148D01*
X012244Y020050D01*
X011800Y020494D01*
G37*
G36*
X011661Y020355D02*
X011759Y020453D01*
X012203Y020009D01*
X012105Y019911D01*
X011661Y020355D01*
G37*
G36*
X009266Y022749D02*
X009364Y022847D01*
X009808Y022403D01*
X009710Y022305D01*
X009266Y022749D01*
G37*
G36*
X009406Y022888D02*
X009504Y022986D01*
X009948Y022542D01*
X009850Y022444D01*
X009406Y022888D01*
G37*
G36*
X009545Y023027D02*
X009643Y023125D01*
X010087Y022681D01*
X009989Y022583D01*
X009545Y023027D01*
G37*
G36*
X009684Y023166D02*
X009782Y023264D01*
X010226Y022820D01*
X010128Y022722D01*
X009684Y023166D01*
G37*
G36*
X009823Y023306D02*
X009921Y023404D01*
X010365Y022960D01*
X010267Y022862D01*
X009823Y023306D01*
G37*
G36*
X009962Y023445D02*
X010060Y023543D01*
X010504Y023099D01*
X010406Y023001D01*
X009962Y023445D01*
G37*
G36*
X010102Y023584D02*
X010200Y023682D01*
X010644Y023238D01*
X010546Y023140D01*
X010102Y023584D01*
G37*
G36*
X010241Y023723D02*
X010339Y023821D01*
X010783Y023377D01*
X010685Y023279D01*
X010241Y023723D01*
G37*
G36*
X010380Y023862D02*
X010478Y023960D01*
X010922Y023516D01*
X010824Y023418D01*
X010380Y023862D01*
G37*
G36*
X010519Y024002D02*
X010617Y024100D01*
X011061Y023656D01*
X010963Y023558D01*
X010519Y024002D01*
G37*
G36*
X010658Y024141D02*
X010756Y024239D01*
X011200Y023795D01*
X011102Y023697D01*
X010658Y024141D01*
G37*
G36*
X010797Y024280D02*
X010895Y024378D01*
X011339Y023934D01*
X011241Y023836D01*
X010797Y024280D01*
G37*
G36*
X010797Y012469D02*
X010895Y012567D01*
X011339Y012123D01*
X011241Y012025D01*
X010797Y012469D01*
G37*
G36*
X010658Y012330D02*
X010756Y012428D01*
X011200Y011984D01*
X011102Y011886D01*
X010658Y012330D01*
G37*
G36*
X010519Y012191D02*
X010617Y012289D01*
X011061Y011845D01*
X010963Y011747D01*
X010519Y012191D01*
G37*
G36*
X010380Y012051D02*
X010478Y012149D01*
X010922Y011705D01*
X010824Y011607D01*
X010380Y012051D01*
G37*
G36*
X010241Y011912D02*
X010339Y012010D01*
X010783Y011566D01*
X010685Y011468D01*
X010241Y011912D01*
G37*
G36*
X010102Y011773D02*
X010200Y011871D01*
X010644Y011427D01*
X010546Y011329D01*
X010102Y011773D01*
G37*
G36*
X009962Y011634D02*
X010060Y011732D01*
X010504Y011288D01*
X010406Y011190D01*
X009962Y011634D01*
G37*
G36*
X009823Y011495D02*
X009921Y011593D01*
X010365Y011149D01*
X010267Y011051D01*
X009823Y011495D01*
G37*
G36*
X009684Y011355D02*
X009782Y011453D01*
X010226Y011009D01*
X010128Y010911D01*
X009684Y011355D01*
G37*
G36*
X009545Y011216D02*
X009643Y011314D01*
X010087Y010870D01*
X009989Y010772D01*
X009545Y011216D01*
G37*
G36*
X009406Y011077D02*
X009504Y011175D01*
X009948Y010731D01*
X009850Y010633D01*
X009406Y011077D01*
G37*
G36*
X009266Y010938D02*
X009364Y011036D01*
X009808Y010592D01*
X009710Y010494D01*
X009266Y010938D01*
G37*
G36*
X011661Y008544D02*
X011759Y008642D01*
X012203Y008198D01*
X012105Y008100D01*
X011661Y008544D01*
G37*
G36*
X011800Y008683D02*
X011898Y008781D01*
X012342Y008337D01*
X012244Y008239D01*
X011800Y008683D01*
G37*
G36*
X011939Y008822D02*
X012037Y008920D01*
X012481Y008476D01*
X012383Y008378D01*
X011939Y008822D01*
G37*
G36*
X012078Y008961D02*
X012176Y009059D01*
X012620Y008615D01*
X012522Y008517D01*
X012078Y008961D01*
G37*
G36*
X012217Y009100D02*
X012315Y009198D01*
X012759Y008754D01*
X012661Y008656D01*
X012217Y009100D01*
G37*
G36*
X012356Y009240D02*
X012454Y009338D01*
X012898Y008894D01*
X012800Y008796D01*
X012356Y009240D01*
G37*
G36*
X012496Y009379D02*
X012594Y009477D01*
X013038Y009033D01*
X012940Y008935D01*
X012496Y009379D01*
G37*
G36*
X012635Y009518D02*
X012733Y009616D01*
X013177Y009172D01*
X013079Y009074D01*
X012635Y009518D01*
G37*
G36*
X012774Y009657D02*
X012872Y009755D01*
X013316Y009311D01*
X013218Y009213D01*
X012774Y009657D01*
G37*
G36*
X012913Y009796D02*
X013011Y009894D01*
X013455Y009450D01*
X013357Y009352D01*
X012913Y009796D01*
G37*
G36*
X013052Y009936D02*
X013150Y010034D01*
X013594Y009590D01*
X013496Y009492D01*
X013052Y009936D01*
G37*
G36*
X013192Y010075D02*
X013290Y010173D01*
X013734Y009729D01*
X013636Y009631D01*
X013192Y010075D01*
G37*
D29*
X007294Y009407D03*
X007294Y008659D03*
X006506Y009033D03*
X007294Y020470D03*
X007294Y021218D03*
X006506Y020844D03*
D30*
X002839Y017026D03*
X020161Y015451D03*
M02*
